<?xml version="1.0" encoding="UTF-8"?>
<svg width="5.556257mm" height="5.556257mm" version="1.1" viewBox="0 0 5.556257 5.556257" xmlns="http://www.w3.org/2000/svg" xmlns:cc="http://creativecommons.org/ns#" xmlns:dc="http://purl.org/dc/elements/1.1/" xmlns:rdf="http://www.w3.org/1999/02/22-rdf-syntax-ns#" xmlns:xlink="http://www.w3.org/1999/xlink"><title>MyBB Vector Smiley - Censored</title><defs><linearGradient id="linearGradient379" x1="-75.05662" x2="-75.05662" y1="106.0459" y2="110.5928" gradientTransform="matrix(.9878046 0 0 .9878046 76.9194 -104.6534)" gradientUnits="userSpaceOnUse"><stop stop-color="#eca549" offset="0"/><stop stop-color="#f05b44" offset="1"/></linearGradient></defs><metadata><rdf:RDF><cc:Work rdf:about=""><dc:format>image/svg+xml</dc:format><dc:type rdf:resource="http://purl.org/dc/dcmitype/StillImage"/><dc:title>MyBB Vector Smiley - Censored</dc:title><dc:date>2025-07-13</dc:date><dc:creator><cc:Agent><dc:title>Paul Verbitsky</dc:title></cc:Agent></dc:creator><dc:rights><cc:Agent><dc:title>Distributed under GNU Lesser General Public License v3.0</dc:title></cc:Agent></dc:rights><cc:license rdf:resource="https://www.gnu.org/licenses/lgpl-3.0.html"/></cc:Work></rdf:RDF></metadata><path d="m5.457038 2.778128a2.678905 2.678905 0 0 1-2.67891 2.67891 2.678905 2.678905 0 0 1-2.67891-2.67891 2.678905 2.678905 0 0 1 2.67891-2.67891 2.678905 2.678905 0 0 1 2.67891 2.67891z" fill="url(#linearGradient379)" stroke="#000" stroke-linecap="round" stroke-linejoin="round" stroke-width=".198437" style="paint-order:normal"/><g fill="none" stroke="#000" stroke-linecap="round" stroke-linejoin="round"><path d="m3.646768 1.111818-0.86864 0.86865-0.86865-0.86865" stroke-width=".198437"/><path d="m1.909478 1.894528v0.42365" stop-color="#000000" stroke-width=".264583" style="font-variation-settings:normal"/><path d="m3.646768 1.894528v0.42365" stop-color="#000000" stroke-width=".264583" style="font-variation-settings:normal"/></g><path d="m1.241546 3.021748h3.073159c0.161949 0 0.292326 0.13038 0.292326 0.29233v0.76694c0 0.16195-0.130377 0.29232-0.292326 0.29232h-3.073159c-0.161949 0-0.292326-0.13037-0.292326-0.29232v-0.76694c0-0.16195 0.130377-0.29233 0.292326-0.29233z"/><g fill="#fff"><path d="m1.221012 4.123228c-0.0055 0.0356 0.0096 0.0534 0.04517 0.0534h0.06296c0.02738 0 0.04517-0.0137 0.05338-0.0438l0.04107-0.20942h0.156039l-0.04243 0.19983c-0.0083 0.0356 0.0068 0.0534 0.0438 0.0534h0.06297c0.03011 0 0.04791-0.0137 0.05338-0.0438l0.0438-0.20943h0.08212c0.03012 0 0.0479-0.0137 0.05338-0.0424l0.01232-0.052c0.0055-0.0356-0.0096-0.0534-0.04517-0.0534h-0.07392l0.03559-0.15604h0.08076c0.02738 0 0.04654-0.0137 0.05475-0.0424l0.0096-0.0507c0.0083-0.0356-0.0068-0.0534-0.04243-0.0534h-0.07392l0.04243-0.20121c0.0083-0.0356-0.0068-0.0534-0.0438-0.0534h-0.06433c-0.02874 0-0.04654 0.0151-0.05338 0.0438l-0.04243 0.2108h-0.154671l0.04243-0.20121c0.0028-0.0164 0.0013-0.0301-0.0068-0.0397-0.0083-8e-3 -0.0219-0.0137-0.03832-0.0137h-0.06159c-0.03011 0-0.0479 0.0151-0.05338 0.0438l-0.0438 0.2108h-0.07939c-0.03011 0-0.04927 0.0151-0.05475 0.0424l-0.0096 0.0506c-0.0083 0.0356 0.0055 0.0534 0.04243 0.0534h0.07117l-0.03422 0.15605h-0.07802c-0.03011 0-0.0479 0.0151-0.05338 0.0438l-0.01094 0.0506c-0.0083 0.0356 0.0068 0.0534 0.0438 0.0534h0.06981zm0.232691-0.34766 0.03559-0.15604h0.153302l-0.03285 0.15604z"/><path d="m2.028648 3.565828c0 0.0671 0.02053 0.12044 0.06296 0.15878 0.04107 0.0397 0.09719 0.0588 0.16699 0.0588 0.06844 0 0.124557-0.0192 0.16699-0.0588 0.04107-0.0383 0.06296-0.0917 0.06296-0.15878v-0.1492c0-0.0657-0.0219-0.11908-0.06296-0.15741-0.04243-0.0383-0.09855-0.0588-0.16699-0.0588-0.06981 0-0.125926 0.0206-0.16699 0.0588-0.04243 0.0383-0.06296 0.0917-0.06296 0.15741zm0.16699-0.13825c0-0.0575 0.02053-0.0876 0.06296-0.0876 0.04107 0 0.06296 0.0302 0.06296 0.0876v0.12867c0 0.0588-0.0219 0.0876-0.06296 0.0876-0.04243 0-0.06296-0.0287-0.06296-0.0876zm0.531081 0.54614c0 0.0657 0.02053 0.11908 0.06297 0.15878 0.04107 0.0398 0.09719 0.0588 0.16699 0.0588 0.06844 0 0.123188-0.0192 0.165619-0.0588 0.04107-0.0398 0.06296-0.0931 0.06296-0.15878v-0.15056c0-0.0657-0.0219-0.11909-0.06296-0.15741-0.04107-0.0383-0.09719-0.0588-0.165619-0.0588-0.06981 0-0.125928 0.0205-0.16699 0.0588-0.04243 0.0383-0.06297 0.0917-0.06297 0.15741zm0.165621-0.13825c0-0.0575 0.02053-0.0876 0.06434-0.0876 0.01916 0 0.03422 8e-3 0.04517 0.0232 0.01094 0.0151 0.0178 0.0369 0.0178 0.0643v0.12866c0 0.0274-0.0068 0.0493-0.0178 0.0643-0.01094 0.0151-0.026 0.0219-0.04517 0.0219-0.0438 0-0.06434-0.0287-0.06434-0.0862zm-0.663852 0.2984c-0.01916 0.0273-0.01505 0.0506 0.01369 0.0684l0.04791 0.0315c0.02738 0.0192 0.05065 0.0137 0.06844-0.0136l0.626895-0.96225c0.01916-0.0274 0.01369-0.0492-0.01642-0.0671l-0.05065-0.0315c-0.02738-0.0164-0.05065-0.0112-0.06844 0.0151z"/><path d="m3.35293 3.859018c0.0013 0.0328 0.0178 0.0479 0.05065 0.0479h0.04927c0.03148 0 0.04791-0.0151 0.05065-0.0479l0.01369-0.40104v-0.1971c0-0.0328-0.01642-0.0492-0.04928-0.0492h-0.08076c-0.03285 0-0.04928 0.0164-0.04928 0.0492v0.1971zm0.07392 0.3244c0.06433 0 0.09719-0.0315 0.09719-0.0945 0-0.0602-0.03285-0.0917-0.09719-0.0917-0.02874 0-0.05201 8e-3 -0.06844 0.0232-0.01642 0.0164-0.02464 0.0383-0.02464 0.0684 0 0.0315 0.0083 0.0547 0.02464 0.0711 0.01643 0.0164 0.0397 0.0232 0.06844 0.0232z"/><path d="m3.664624 3.943968c0 0.0821 0.026 0.14509 0.08076 0.18752 0.05338 0.0438 0.128664 0.0643 0.224479 0.0643 0.09992 0 0.182045-0.0273 0.245009-0.0849l0.04243 0.0479c0.0219 0.0247 0.04517 0.0274 0.06981 6e-3l0.05065-0.0452c0.0219-0.0219 0.02327-0.0452 0.0041-0.0698l-0.05749-0.063c0.0438-0.0656 0.07117-0.13961 0.0835-0.21899 0.0041-0.0302-0.0096-0.0479-0.04243-0.0534l-0.0657-0.01c-0.03149-2e-3 -0.04791 0.0123-0.05065 0.0452-0.0083 0.0438-0.01916 0.078-0.03558 0.10261l-0.140984-0.17109c0.05885-0.0424 0.104021-0.0821 0.13414-0.12046 0.03011-0.037 0.04654-0.0807 0.04654-0.13276 0-0.0698-0.0219-0.12593-0.06433-0.16699-0.04243-0.0411-0.109504-0.0616-0.201209-0.0616-0.0835 0-0.147827 0.0232-0.194365 0.0684-0.04654 0.0466-0.06981 0.10406-0.06981 0.17382 0 0.0698 0.03696 0.14509 0.112238 0.22722-0.114976 0.0876-0.171095 0.17384-0.171095 0.26006zm0.183414-7e-3c0-0.0507 0.03012-0.10127 0.09034-0.15193l0.175203 0.20805c-0.03559 0.0328-0.07939 0.0492-0.128665 0.0492-0.0917 0-0.136876-0.0328-0.136876-0.10127zm0.124558-0.37095c-0.04654-0.0466-0.06981-0.089-0.06981-0.12864 0-0.0274 0.0068-0.0493 0.0219-0.0657 0.01369-0.0151 0.03559-0.0232 0.06296-0.0232 0.05886 0 0.08897 0.0288 0.08897 0.0862 0 0.0411-0.03559 0.0849-0.104021 0.1314z"/></g></svg>
