<?xml version="1.0" encoding="UTF-8"?>
<svg width="21" height="21" version="1.1" viewBox="0 0 5.55625 5.55625" xmlns="http://www.w3.org/2000/svg" xmlns:xlink="http://www.w3.org/1999/xlink"><defs><linearGradient id="linearGradient379" x1="-75.05662" x2="-75.05662" y1="106.0459" y2="110.5928" gradientTransform="matrix(1.024388 0 0 1.024388 79.66527 -108.6322)" gradientUnits="userSpaceOnUse"><stop stop-color="#eca549" offset="0"/><stop stop-color="#f05b44" offset="1"/></linearGradient></defs><path d="m5.55625 2.77813a2.77812 2.77812 0 0 1-2.778125 2.77812 2.77812 2.77812 0 0 1-2.778125-2.77812 2.77812 2.77812 0 0 1 2.778125-2.77813 2.77812 2.77812 0 0 1 2.778125 2.77813z" fill="url(#linearGradient379)" style="paint-order:normal"/><g fill="none" stroke="#460e07" stroke-linecap="round" stroke-linejoin="round"><path d="M 3.678941,1.0501 2.77813,1.95093 1.877309,1.0501" stroke-width=".205786"/><path d="m1.877304 1.8618v0.43934" stop-color="#000000" stroke-width=".274382" style="font-variation-settings:normal"/><path d="m3.678936 1.8618v0.43934" stop-color="#000000" stroke-width=".274382" style="font-variation-settings:normal"/></g><path d="m1.184635 3.03077h3.186975c0.167947 0 0.303153 0.13521 0.303153 0.30316v0.79534c0 0.16795-0.135206 0.30315-0.303153 0.30315h-3.186975c-0.167947 0-0.303152-0.1352-0.303152-0.30315v-0.79534c0-0.16795 0.135205-0.30316 0.303152-0.30316z" fill="#1a1a1a"/><g fill="#fff"><path d="m1.163329 4.17307c-0.0057 0.0369 0.01 0.0554 0.04684 0.0554h0.06529c0.02839 0 0.04684-0.0142 0.05536-0.0454l0.04259-0.21718h0.161818l-0.044 0.20723c-0.0086 0.0369 0.0071 0.0554 0.04542 0.0554h0.0653c0.03123 0 0.04968-0.0142 0.05536-0.0454l0.04542-0.21719h0.08516c0.03124 0 0.04967-0.0142 0.05536-0.044l0.01278-0.0539c0.0057-0.0369-0.01-0.0554-0.04684-0.0554h-0.07666l0.03691-0.16182h0.08375c0.02839 0 0.04826-0.0142 0.05678-0.044l0.01-0.0526c0.0086-0.0369-0.0071-0.0554-0.044-0.0554h-0.07666l0.044-0.20867c0.0086-0.0369-0.0071-0.0554-0.04542-0.0554h-0.06671c-0.0298 0-0.04826 0.0157-0.05536 0.0454l-0.044 0.21859h-0.160399l0.044-0.20865c0.0029-0.017 0.0013-0.0312-0.0071-0.0412-0.0086-8e-3 -0.02271-0.0142-0.03974-0.0142h-0.06387c-0.03123 0-0.04967 0.0157-0.05536 0.0454l-0.04542 0.21859h-0.08233c-0.03123 0-0.05109 0.0157-0.05678 0.044l-0.01 0.0525c-0.0086 0.0369 0.0057 0.0554 0.044 0.0554h0.07381l-0.03549 0.16182h-0.08091c-0.03123 0-0.04967 0.0157-0.05536 0.0454l-0.01135 0.0525c-0.0086 0.0369 0.0071 0.0554 0.04542 0.0554h0.0724zm0.241308-0.36053 0.03691-0.16182h0.15898l-0.03407 0.16182z"/><path d="m2.048407 3.59501c0 0.0696 0.02129 0.1249 0.06529 0.16466 0.04259 0.0412 0.100789 0.061 0.173174 0.061 0.07098 0 0.12917-0.0199 0.173175-0.061 0.04259-0.0397 0.06529-0.0951 0.06529-0.16466v-0.15473c0-0.0681-0.02271-0.12349-0.06529-0.16323-0.044-0.0397-0.1022-0.061-0.173175-0.061-0.0724 0-0.13059 0.0214-0.173174 0.061-0.044 0.0397-0.06529 0.0951-0.06529 0.16323zm0.173174-0.14337c0-0.0596 0.02129-0.0908 0.06529-0.0908 0.04259 0 0.06529 0.0313 0.06529 0.0908v0.13344c0 0.061-0.02271 0.0908-0.06529 0.0908-0.044 0-0.06529-0.0298-0.06529-0.0908zm0.55075 0.56637c0 0.0681 0.02129 0.12349 0.0653 0.16466 0.04259 0.0413 0.10079 0.061 0.173175 0.061 0.07098 0 0.12775-0.0199 0.171753-0.061 0.04259-0.0413 0.06529-0.0965 0.06529-0.16466v-0.15614c0-0.0681-0.02271-0.1235-0.06529-0.16324-0.04259-0.0397-0.10079-0.061-0.171753-0.061-0.0724 0-0.130592 0.0213-0.173175 0.061-0.044 0.0397-0.0653 0.0951-0.0653 0.16324zm0.171755-0.14337c0-0.0596 0.02129-0.0908 0.06672-0.0908 0.01987 0 0.03549 8e-3 0.04684 0.0241 0.01135 0.0157 0.01846 0.0383 0.01846 0.0667v0.13343c0 0.0284-0.0071 0.0511-0.01846 0.0667-0.01134 0.0157-0.02696 0.0227-0.04684 0.0227-0.04542 0-0.06672-0.0298-0.06672-0.0894zm-0.688438 0.30945c-0.01987 0.0283-0.01561 0.0525 0.0142 0.0709l0.04968 0.0327c0.02839 0.0199 0.05253 0.0142 0.07097-0.0141l0.650113-0.99788c0.01987-0.0284 0.0142-0.051-0.01703-0.0696l-0.05253-0.0327c-0.02839-0.017-0.05253-0.0116-0.07098 0.0157z"/><path d="m3.393858 3.89904c0.0013 0.034 0.01846 0.0497 0.05253 0.0497h0.05109c0.03265 0 0.04968-0.0157 0.05253-0.0497l0.0142-0.41589v-0.2044c0-0.034-0.01703-0.051-0.05111-0.051h-0.08375c-0.03407 0-0.05111 0.017-0.05111 0.051v0.2044zm0.07666 0.33641c0.06671 0 0.10079-0.0327 0.10079-0.098 0-0.0624-0.03407-0.0951-0.10079-0.0951-0.0298 0-0.05394 8e-3 -0.07098 0.0241-0.01703 0.017-0.02555 0.0397-0.02555 0.0709 0 0.0327 0.0086 0.0567 0.02555 0.0737 0.01704 0.017 0.04117 0.0241 0.07098 0.0241z"/><path d="m3.69745 3.98723c0 0.0851 0.02696 0.15046 0.08375 0.19446 0.05536 0.0454 0.133429 0.0667 0.232793 0.0667 0.103621 0 0.188787-0.0283 0.254083-0.088l0.044 0.0497c0.02271 0.0256 0.04684 0.0284 0.0724 6e-3l0.05253-0.0469c0.02271-0.0227 0.02413-0.0469 0.0043-0.0724l-0.05962-0.0653c0.04542-0.068 0.07381-0.14478 0.08659-0.2271 0.0043-0.0313-0.01-0.0497-0.044-0.0554l-0.06813-0.0104c-0.03266-2e-3 -0.04968 0.0128-0.05253 0.0469-0.0086 0.0454-0.01987 0.0809-0.0369 0.10641l-0.146206-0.17743c0.06103-0.044 0.107874-0.0851 0.139108-0.12492 0.03122-0.0384 0.04826-0.0837 0.04826-0.13768 0-0.0724-0.02271-0.13059-0.06671-0.17317-0.044-0.0426-0.113559-0.0639-0.208661-0.0639-0.08659 0-0.153301 0.0241-0.201563 0.0709-0.04826 0.0483-0.0724 0.10791-0.0724 0.18026 0 0.0724 0.03833 0.15046 0.116394 0.23563-0.119234 0.0909-0.177431 0.18028-0.177431 0.26969zm0.190207-7e-3c0-0.0526 0.03124-0.10502 0.09369-0.15756l0.181692 0.21575c-0.03691 0.034-0.08233 0.051-0.133431 0.051-0.0951 0-0.141945-0.034-0.141945-0.10502zm0.129171-0.38469c-0.04826-0.0483-0.07239-0.0923-0.07239-0.13341 0-0.0284 0.0071-0.0511 0.02271-0.0681 0.0142-0.0157 0.03691-0.0241 0.06529-0.0241 0.06104 0 0.09227 0.0299 0.09227 0.0894 0 0.0426-0.03691 0.088-0.107874 0.13627z"/></g></svg>
