<?xml version="1.0" encoding="UTF-8" standalone="no"?>
<svg
   xmlns:dc="http://purl.org/dc/elements/1.1/"
   xmlns:cc="http://creativecommons.org/ns#"
   xmlns:rdf="http://www.w3.org/1999/02/22-rdf-syntax-ns#"
   xmlns:svg="http://www.w3.org/2000/svg"
   xmlns="http://www.w3.org/2000/svg"
   xmlns:xlink="http://www.w3.org/1999/xlink"
   xmlns:sodipodi="http://sodipodi.sourceforge.net/DTD/sodipodi-0.dtd"
   xmlns:inkscape="http://www.inkscape.org/namespaces/inkscape"
   sodipodi:docname="censored.svg"
   inkscape:version="1.0 (4035a4fb49, 2020-05-01)"
   id="svg416"
   version="1.1"
   viewBox="0 0 5.5562568 5.5562568"
   height="5.5562568mm"
   width="5.5562568mm">
  <title
     id="title19">MyBB Vector Smiley - Censored</title>
  <defs
     id="defs410">
    <linearGradient
       inkscape:collect="always"
       xlink:href="#linearGradient883"
       id="linearGradient379"
       gradientUnits="userSpaceOnUse"
       gradientTransform="matrix(0.98780458,0,0,0.98780458,76.919405,-104.65343)"
       x1="-75.056625"
       y1="106.04592"
       x2="-75.056625"
       y2="110.59284" />
    <linearGradient
       inkscape:collect="always"
       id="linearGradient883">
      <stop
         style="stop-color:#eca549;stop-opacity:1"
         offset="0"
         id="stop879" />
      <stop
         style="stop-color:#f05b44;stop-opacity:1"
         offset="1"
         id="stop881" />
    </linearGradient>
  </defs>
  <sodipodi:namedview
     inkscape:window-maximized="1"
     inkscape:window-y="-8"
     inkscape:window-x="-8"
     inkscape:window-height="837"
     inkscape:window-width="1600"
     fit-margin-bottom="0"
     fit-margin-right="0"
     fit-margin-left="0"
     fit-margin-top="0"
     showgrid="false"
     inkscape:document-rotation="0"
     inkscape:current-layer="svg416"
     inkscape:document-units="px"
     inkscape:cy="10.500013"
     inkscape:cx="10.500013"
     inkscape:zoom="28.809489"
     inkscape:pageshadow="2"
     inkscape:pageopacity="0.0"
     borderopacity="1.0"
     bordercolor="#666666"
     pagecolor="#ffffff"
     id="base" />
  <metadata
     id="metadata413">
    <rdf:RDF>
      <cc:Work
         rdf:about="">
        <dc:format>image/svg+xml</dc:format>
        <dc:type
           rdf:resource="http://purl.org/dc/dcmitype/StillImage" />
        <dc:title>MyBB Vector Smiley - Censored</dc:title>
        <dc:date>2025-07-13</dc:date>
        <dc:creator>
          <cc:Agent>
            <dc:title>Paul Verbitsky</dc:title>
          </cc:Agent>
        </dc:creator>
        <dc:rights>
          <cc:Agent>
            <dc:title>Distributed under GNU Lesser General Public License v3.0</dc:title>
          </cc:Agent>
        </dc:rights>
        <cc:license
           rdf:resource="https://www.gnu.org/licenses/lgpl-3.0.html" />
      </cc:Work>
    </rdf:RDF>
  </metadata>
  <path
     d="m 5.4570385,2.7781285 a 2.6789053,2.6789053 0 0 1 -2.67891,2.67891 2.6789053,2.6789053 0 0 1 -2.67891,-2.67891 2.6789053,2.6789053 0 0 1 2.67891,-2.67891 2.6789053,2.6789053 0 0 1 2.67891,2.67891 z"
     style="fill:url(#linearGradient379);fill-opacity:1;stroke:#000000;stroke-width:0.198437;stroke-linecap:round;stroke-linejoin:round;stroke-miterlimit:4;stroke-dasharray:none;paint-order:normal"
     id="path366" />
  <path
     id="path368"
     style="fill:none;stroke:#000000;stroke-width:0.198437;stroke-linecap:round;stroke-linejoin:round"
     d="m 3.6467685,1.1118185 -0.86864,0.86865 -0.86865,-0.86865"
     sodipodi:nodetypes="ccc" />
  <path
     style="font-variation-settings:normal;vector-effect:none;fill:none;fill-opacity:1;stroke:#000000;stroke-width:0.264583;stroke-linecap:round;stroke-linejoin:round;stroke-miterlimit:4;stroke-dasharray:none;stroke-dashoffset:0;stroke-opacity:1;stop-color:#000000"
     d="m 1.9094785,1.8945285 v 0.42365"
     id="path371"
     sodipodi:nodetypes="cc" />
  <path
     sodipodi:nodetypes="cc"
     id="path373"
     d="m 3.6467685,1.8945285 v 0.42365"
     style="font-variation-settings:normal;vector-effect:none;fill:none;fill-opacity:1;stroke:#000000;stroke-width:0.264583;stroke-linecap:round;stroke-linejoin:round;stroke-miterlimit:4;stroke-dasharray:none;stroke-dashoffset:0;stroke-opacity:1;stop-color:#000000" />
  <path
     id="rect388"
     style="fill:#000000;stroke:none;stroke-width:0.198436;stroke-linecap:round;stroke-linejoin:round"
     d="m 1.2415465,3.0217485 h 3.073159 c 0.161949,0 0.292326,0.13038 0.292326,0.29233 v 0.76694 c 0,0.16195 -0.130377,0.29232 -0.292326,0.29232 h -3.073159 c -0.161949,0 -0.292326,-0.13037 -0.292326,-0.29232 v -0.76694 c 0,-0.16195 0.130377,-0.29233 0.292326,-0.29233 z" />
  <path
     d="m 1.2210115,4.1232285 c -0.0055,0.0356 0.0096,0.0534 0.04517,0.0534 h 0.06296 c 0.02738,0 0.04517,-0.0137 0.05338,-0.0438 l 0.04107,-0.20942 h 0.156039 l -0.04243,0.19983 c -0.0083,0.0356 0.0068,0.0534 0.0438,0.0534 h 0.06297 c 0.03011,0 0.04791,-0.0137 0.05338,-0.0438 l 0.0438,-0.20943 h 0.08212 c 0.03012,0 0.0479,-0.0137 0.05338,-0.0424 l 0.01232,-0.052 c 0.0055,-0.0356 -0.0096,-0.0534 -0.04517,-0.0534 h -0.07392 l 0.03559,-0.15604 h 0.08076 c 0.02738,0 0.04654,-0.0137 0.05475,-0.0424 l 0.0096,-0.0507 c 0.0083,-0.0356 -0.0068,-0.0534 -0.04243,-0.0534 h -0.07392 l 0.04243,-0.20121 c 0.0083,-0.0356 -0.0068,-0.0534 -0.0438,-0.0534 h -0.06433 c -0.02874,0 -0.04654,0.0151 -0.05338,0.0438 l -0.04243,0.2108 h -0.154671 l 0.04243,-0.20121 c 0.0028,-0.0164 0.0013,-0.0301 -0.0068,-0.0397 -0.0083,-0.008 -0.0219,-0.0137 -0.03832,-0.0137 h -0.06159 c -0.03011,0 -0.0479,0.0151 -0.05338,0.0438 l -0.0438,0.2108 h -0.07939 c -0.03011,0 -0.04927,0.0151 -0.05475,0.0424 l -0.0096,0.0506 c -0.0083,0.0356 0.0055,0.0534 0.04243,0.0534 h 0.07117 l -0.03422,0.15605 h -0.07802 c -0.03011,0 -0.0479,0.0151 -0.05338,0.0438 l -0.01094,0.0506 c -0.0083,0.0356 0.0068,0.0534 0.0438,0.0534 h 0.06981 z m 0.232691,-0.34766 0.03559,-0.15604 h 0.153302 l -0.03285,0.15604 z"
     style="font-style:normal;font-variant:normal;font-weight:bold;font-stretch:normal;font-size:1.22585px;line-height:125%;font-family:EstandarRoundedBold;-inkscape-font-specification:'EstandarRoundedBold Bold';letter-spacing:0px;word-spacing:0px;fill:#ffffff;stroke:none;stroke-width:0.264583px;stroke-linecap:butt;stroke-linejoin:miter;stroke-opacity:1"
     id="path1217" />
  <path
     d="m 2.0286485,3.5658285 c 0,0.0671 0.02053,0.12044 0.06296,0.15878 0.04107,0.0397 0.09719,0.0588 0.16699,0.0588 0.06844,0 0.124557,-0.0192 0.16699,-0.0588 0.04107,-0.0383 0.06296,-0.0917 0.06296,-0.15878 v -0.1492 c 0,-0.0657 -0.0219,-0.11908 -0.06296,-0.15741 -0.04243,-0.0383 -0.09855,-0.0588 -0.16699,-0.0588 -0.06981,0 -0.125926,0.0206 -0.16699,0.0588 -0.04243,0.0383 -0.06296,0.0917 -0.06296,0.15741 z m 0.16699,-0.13825 c 0,-0.0575 0.02053,-0.0876 0.06296,-0.0876 0.04107,0 0.06296,0.0302 0.06296,0.0876 v 0.12867 c 0,0.0588 -0.0219,0.0876 -0.06296,0.0876 -0.04243,0 -0.06296,-0.0287 -0.06296,-0.0876 z m 0.531081,0.54614 c 0,0.0657 0.02053,0.11908 0.06297,0.15878 0.04107,0.0398 0.09719,0.0588 0.16699,0.0588 0.06844,0 0.123188,-0.0192 0.165619,-0.0588 0.04107,-0.0398 0.06296,-0.0931 0.06296,-0.15878 v -0.15056 c 0,-0.0657 -0.0219,-0.11909 -0.06296,-0.15741 -0.04107,-0.0383 -0.09719,-0.0588 -0.165619,-0.0588 -0.06981,0 -0.125928,0.0205 -0.16699,0.0588 -0.04243,0.0383 -0.06297,0.0917 -0.06297,0.15741 z m 0.165621,-0.13825 c 0,-0.0575 0.02053,-0.0876 0.06434,-0.0876 0.01916,0 0.03422,0.008 0.04517,0.0232 0.01094,0.0151 0.0178,0.0369 0.0178,0.0643 v 0.12866 c 0,0.0274 -0.0068,0.0493 -0.0178,0.0643 -0.01094,0.0151 -0.026,0.0219 -0.04517,0.0219 -0.0438,0 -0.06434,-0.0287 -0.06434,-0.0862 z m -0.663852,0.2984 c -0.01916,0.0273 -0.01505,0.0506 0.01369,0.0684 l 0.04791,0.0315 c 0.02738,0.0192 0.05065,0.0137 0.06844,-0.0136 l 0.626895,-0.96225 c 0.01916,-0.0274 0.01369,-0.0492 -0.01642,-0.0671 l -0.05065,-0.0315 c -0.02738,-0.0164 -0.05065,-0.0112 -0.06844,0.0151 z"
     style="font-style:normal;font-variant:normal;font-weight:bold;font-stretch:normal;font-size:1.22585px;line-height:125%;font-family:EstandarRoundedBold;-inkscape-font-specification:'EstandarRoundedBold Bold';letter-spacing:0px;word-spacing:0px;fill:#ffffff;stroke:none;stroke-width:0.264583px;stroke-linecap:butt;stroke-linejoin:miter;stroke-opacity:1"
     id="path1219" />
  <path
     d="m 3.3529305,3.8590185 c 0.0013,0.0328 0.0178,0.0479 0.05065,0.0479 h 0.04927 c 0.03148,0 0.04791,-0.0151 0.05065,-0.0479 l 0.01369,-0.40104 v -0.1971 c 0,-0.0328 -0.01642,-0.0492 -0.04928,-0.0492 h -0.08076 c -0.03285,0 -0.04928,0.0164 -0.04928,0.0492 v 0.1971 z m 0.07392,0.3244 c 0.06433,0 0.09719,-0.0315 0.09719,-0.0945 0,-0.0602 -0.03285,-0.0917 -0.09719,-0.0917 -0.02874,0 -0.05201,0.008 -0.06844,0.0232 -0.01642,0.0164 -0.02464,0.0383 -0.02464,0.0684 0,0.0315 0.0083,0.0547 0.02464,0.0711 0.01643,0.0164 0.0397,0.0232 0.06844,0.0232 z"
     style="font-style:normal;font-variant:normal;font-weight:bold;font-stretch:normal;font-size:1.22585px;line-height:125%;font-family:EstandarRoundedBold;-inkscape-font-specification:'EstandarRoundedBold Bold';letter-spacing:0px;word-spacing:0px;fill:#ffffff;stroke:none;stroke-width:0.264583px;stroke-linecap:butt;stroke-linejoin:miter;stroke-opacity:1"
     id="path1221" />
  <path
     d="m 3.6646245,3.9439685 c 0,0.0821 0.026,0.14509 0.08076,0.18752 0.05338,0.0438 0.128664,0.0643 0.224479,0.0643 0.09992,0 0.182045,-0.0273 0.245009,-0.0849 l 0.04243,0.0479 c 0.0219,0.0247 0.04517,0.0274 0.06981,0.006 l 0.05065,-0.0452 c 0.0219,-0.0219 0.02327,-0.0452 0.0041,-0.0698 l -0.05749,-0.063 c 0.0438,-0.0656 0.07117,-0.13961 0.0835,-0.21899 0.0041,-0.0302 -0.0096,-0.0479 -0.04243,-0.0534 l -0.0657,-0.01 c -0.03149,-0.002 -0.04791,0.0123 -0.05065,0.0452 -0.0083,0.0438 -0.01916,0.078 -0.03558,0.10261 l -0.140984,-0.17109 c 0.05885,-0.0424 0.104021,-0.0821 0.13414,-0.12046 0.03011,-0.037 0.04654,-0.0807 0.04654,-0.13276 0,-0.0698 -0.0219,-0.12593 -0.06433,-0.16699 -0.04243,-0.0411 -0.109504,-0.0616 -0.201209,-0.0616 -0.0835,0 -0.147827,0.0232 -0.194365,0.0684 -0.04654,0.0466 -0.06981,0.10406 -0.06981,0.17382 0,0.0698 0.03696,0.14509 0.112238,0.22722 -0.114976,0.0876 -0.171095,0.17384 -0.171095,0.26006 z m 0.183414,-0.007 c 0,-0.0507 0.03012,-0.10127 0.09034,-0.15193 l 0.175203,0.20805 c -0.03559,0.0328 -0.07939,0.0492 -0.128665,0.0492 -0.0917,0 -0.136876,-0.0328 -0.136876,-0.10127 z m 0.124558,-0.37095 c -0.04654,-0.0466 -0.06981,-0.089 -0.06981,-0.12864 0,-0.0274 0.0068,-0.0493 0.0219,-0.0657 0.01369,-0.0151 0.03559,-0.0232 0.06296,-0.0232 0.05886,0 0.08897,0.0288 0.08897,0.0862 0,0.0411 -0.03559,0.0849 -0.104021,0.1314 z"
     style="font-style:normal;font-variant:normal;font-weight:bold;font-stretch:normal;font-size:1.22585px;line-height:125%;font-family:EstandarRoundedBold;-inkscape-font-specification:'EstandarRoundedBold Bold';letter-spacing:0px;word-spacing:0px;fill:#ffffff;stroke:none;stroke-width:0.264583px;stroke-linecap:butt;stroke-linejoin:miter;stroke-opacity:1"
     id="path1223" />
</svg>
