<?xml version="1.0" encoding="UTF-8" standalone="no"?>
<svg
   xmlns:dc="http://purl.org/dc/elements/1.1/"
   xmlns:cc="http://creativecommons.org/ns#"
   xmlns:rdf="http://www.w3.org/1999/02/22-rdf-syntax-ns#"
   xmlns:svg="http://www.w3.org/2000/svg"
   xmlns="http://www.w3.org/2000/svg"
   xmlns:xlink="http://www.w3.org/1999/xlink"
   xmlns:sodipodi="http://sodipodi.sourceforge.net/DTD/sodipodi-0.dtd"
   xmlns:inkscape="http://www.inkscape.org/namespaces/inkscape"
   width="5.5562568mm"
   height="5.5562568mm"
   viewBox="0 0 5.5562568 5.5562568"
   version="1.1"
   id="svg416"
   inkscape:version="1.0 (4035a4fb49, 2020-05-01)"
   sodipodi:docname="censored.svg">
  <title
     id="title19">MyBB Vector Smiley - Censored</title>
  <defs
     id="defs410">
    <linearGradient
       inkscape:collect="always"
       xlink:href="#linearGradient883"
       id="linearGradient379"
       gradientUnits="userSpaceOnUse"
       gradientTransform="matrix(0.98780458,0,0,0.98780458,76.919409,-104.65343)"
       x1="-75.056625"
       y1="106.04592"
       x2="-75.056625"
       y2="110.59284" />
    <linearGradient
       inkscape:collect="always"
       id="linearGradient883">
      <stop
         style="stop-color:#eca549;stop-opacity:1"
         offset="0"
         id="stop879" />
      <stop
         style="stop-color:#f05b44;stop-opacity:1"
         offset="1"
         id="stop881" />
    </linearGradient>
  </defs>
  <sodipodi:namedview
     id="base"
     pagecolor="#ffffff"
     bordercolor="#666666"
     borderopacity="1.0"
     inkscape:pageopacity="0.0"
     inkscape:pageshadow="2"
     inkscape:zoom="28.809489"
     inkscape:cx="10.500013"
     inkscape:cy="10.500013"
     inkscape:document-units="px"
     inkscape:current-layer="svg416"
     inkscape:document-rotation="0"
     showgrid="false"
     fit-margin-top="0"
     fit-margin-left="0"
     fit-margin-right="0"
     fit-margin-bottom="0"
     inkscape:window-width="1600"
     inkscape:window-height="837"
     inkscape:window-x="-8"
     inkscape:window-y="-8"
     inkscape:window-maximized="1" />
  <metadata
     id="metadata413">
    <rdf:RDF>
      <cc:Work
         rdf:about="">
        <dc:format>image/svg+xml</dc:format>
        <dc:type
           rdf:resource="http://purl.org/dc/dcmitype/StillImage" />
        <dc:title>MyBB Vector Smiley - Censored</dc:title>
        <dc:date>2025-07-13</dc:date>
        <dc:creator>
          <cc:Agent>
            <dc:title>Paul Verbitsky</dc:title>
          </cc:Agent>
        </dc:creator>
        <dc:rights>
          <cc:Agent>
            <dc:title>Distributed under GNU Lesser General Public License v3.0</dc:title>
          </cc:Agent>
        </dc:rights>
        <cc:license
           rdf:resource="https://www.gnu.org/licenses/lgpl-3.0.html" />
      </cc:Work>
    </rdf:RDF>
  </metadata>
  <path
     d="m 5.4570385,2.7781285 a 2.6789053,2.6789053 0 0 1 -2.67891,2.67891 2.6789053,2.6789053 0 0 1 -2.67891,-2.67891 2.6789053,2.6789053 0 0 1 2.67891,-2.67891 2.6789053,2.6789053 0 0 1 2.67891,2.67891 z"
     style="fill:url(#linearGradient379);fill-opacity:1;stroke:#000000;stroke-width:0.198437;stroke-linecap:round;stroke-linejoin:round;stroke-miterlimit:4;stroke-dasharray:none;paint-order:normal"
     id="path366" />
  <path
     id="path368"
     style="fill:none;stroke:#000000;stroke-width:0.198437;stroke-linecap:round;stroke-linejoin:round"
     d="m 3.6467685,1.1118185 -0.86864,0.86865 -0.86865,-0.86865"
     sodipodi:nodetypes="ccc" />
  <path
     style="font-variation-settings:normal;vector-effect:none;fill:none;fill-opacity:1;stroke:#000000;stroke-width:0.264583;stroke-linecap:round;stroke-linejoin:round;stroke-miterlimit:4;stroke-dasharray:none;stroke-dashoffset:0;stroke-opacity:1;stop-color:#000000"
     d="m 1.9094785,1.8945285 v 0.42365"
     id="path371"
     sodipodi:nodetypes="cc" />
  <path
     sodipodi:nodetypes="cc"
     id="path373"
     d="m 3.6467685,1.8945285 v 0.42365"
     style="font-variation-settings:normal;vector-effect:none;fill:none;fill-opacity:1;stroke:#000000;stroke-width:0.264583;stroke-linecap:round;stroke-linejoin:round;stroke-miterlimit:4;stroke-dasharray:none;stroke-dashoffset:0;stroke-opacity:1;stop-color:#000000" />
  <path
     id="rect388"
     style="fill:#000000;stroke:none;stroke-width:0.198436;stroke-linecap:round;stroke-linejoin:round"
     d="m 1.2415485,3.0217485 h 3.07316 c 0.16195,0 0.29232,0.13038 0.29232,0.29233 v 0.76694 c 0,0.16195 -0.13037,0.29232 -0.29232,0.29232 h -3.07316 c -0.16195,0 -0.29233,-0.13037 -0.29233,-0.29232 v -0.76694 c 0,-0.16195 0.13038,-0.29233 0.29233,-0.29233 z" />
  <path
     d="m 1.2209885,4.1215085 c -0.005,0.0356 0.01,0.0534 0.0452,0.0534 h 0.063 c 0.0274,0 0.0452,-0.0137 0.0534,-0.0438 l 0.0411,-0.20942 h 0.15604 l -0.0424,0.19983 c -0.008,0.0356 0.007,0.0534 0.0438,0.0534 h 0.063 c 0.0301,0 0.0479,-0.0137 0.0534,-0.0438 l 0.0438,-0.20943 h 0.0821 c 0.0301,0 0.0479,-0.0137 0.0534,-0.0424 l 0.0123,-0.052 c 0.006,-0.0356 -0.01,-0.0534 -0.0452,-0.0534 h -0.0739 l 0.0356,-0.15604 h 0.0808 c 0.0274,0 0.0465,-0.0137 0.0547,-0.0424 l 0.01,-0.0507 c 0.008,-0.0356 -0.007,-0.0534 -0.0424,-0.0534 h -0.0739 l 0.0424,-0.20121 c 0.008,-0.0356 -0.007,-0.0534 -0.0438,-0.0534 h -0.0643 c -0.0287,0 -0.0465,0.0151 -0.0534,0.0438 l -0.0424,0.2108 h -0.15467 l 0.0424,-0.20121 c 0.003,-0.0164 0.001,-0.0301 -0.007,-0.0397 -0.008,-0.008 -0.0219,-0.0137 -0.0383,-0.0137 h -0.0616 c -0.0301,0 -0.0479,0.0151 -0.0534,0.0438 l -0.0438,0.2108 h -0.0794 c -0.0301,0 -0.0493,0.0151 -0.0547,0.0424 l -0.01,0.0506 c -0.008,0.0356 0.005,0.0534 0.0424,0.0534 h 0.0712 l -0.0342,0.15605 h -0.078 c -0.0301,0 -0.0479,0.0151 -0.0534,0.0438 l -0.0109,0.0506 c -0.008,0.0356 0.007,0.0534 0.0438,0.0534 h 0.0698 z m 0.23269,-0.34766 0.0356,-0.15604 h 0.15331 l -0.0328,0.15604 z"
     style="font-style:normal;font-variant:normal;font-weight:bold;font-stretch:normal;font-size:1.22585px;line-height:125%;font-family:EstandarRoundedBold;-inkscape-font-specification:'EstandarRoundedBold Bold';letter-spacing:0px;word-spacing:0px;fill:#ffffff;stroke:none;stroke-width:0.264583px;stroke-linecap:butt;stroke-linejoin:miter;stroke-opacity:1"
     id="path1217" />
  <path
     d="m 2.0286285,3.5657985 c 0,0.0671 0.0205,0.12044 0.063,0.15878 0.0411,0.0397 0.0972,0.0588 0.16699,0.0588 0.0684,0 0.12456,-0.0192 0.16699,-0.0588 0.0411,-0.0383 0.063,-0.0917 0.063,-0.15878 v -0.1492 c 0,-0.0657 -0.0219,-0.11908 -0.063,-0.15741 -0.0424,-0.0383 -0.0986,-0.0588 -0.16699,-0.0588 -0.0698,0 -0.12593,0.0206 -0.16699,0.0588 -0.0424,0.0383 -0.063,0.0917 -0.063,0.15741 z m 0.16699,-0.13825 c 0,-0.0575 0.0205,-0.0876 0.063,-0.0876 0.0411,0 0.063,0.0302 0.063,0.0876 v 0.12867 c 0,0.0588 -0.0219,0.0876 -0.063,0.0876 -0.0424,0 -0.063,-0.0287 -0.063,-0.0876 z m 0.53108,0.54614 c 0,0.0657 0.0205,0.11908 0.063,0.15878 0.0411,0.0398 0.0972,0.0588 0.16699,0.0588 0.0684,0 0.12319,-0.0192 0.16562,-0.0588 0.0411,-0.0398 0.063,-0.0931 0.063,-0.15878 v -0.15056 c 0,-0.0657 -0.0219,-0.11909 -0.063,-0.15741 -0.0411,-0.0383 -0.0972,-0.0588 -0.16562,-0.0588 -0.0698,0 -0.12593,0.0205 -0.16699,0.0588 -0.0424,0.0383 -0.063,0.0917 -0.063,0.15741 z m 0.16562,-0.13825 c 0,-0.0575 0.0205,-0.0876 0.0643,-0.0876 0.0192,0 0.0342,0.008 0.0452,0.0232 0.0109,0.0151 0.0178,0.0369 0.0178,0.0643 v 0.12866 c 0,0.0274 -0.007,0.0493 -0.0178,0.0643 -0.0109,0.0151 -0.026,0.0219 -0.0452,0.0219 -0.0438,0 -0.0643,-0.0287 -0.0643,-0.0862 z m -0.66385,0.2984 c -0.0192,0.0273 -0.0151,0.0506 0.0137,0.0684 l 0.0479,0.0315 c 0.0274,0.0192 0.0507,0.0137 0.0684,-0.0136 l 0.6269,-0.96225 c 0.0192,-0.0274 0.0137,-0.0492 -0.0164,-0.0671 l -0.0507,-0.0315 c -0.0274,-0.0164 -0.0507,-0.0112 -0.0684,0.0151 z"
     style="font-style:normal;font-variant:normal;font-weight:bold;font-stretch:normal;font-size:1.22585px;line-height:125%;font-family:EstandarRoundedBold;-inkscape-font-specification:'EstandarRoundedBold Bold';letter-spacing:0px;word-spacing:0px;fill:#ffffff;stroke:none;stroke-width:0.264583px;stroke-linecap:butt;stroke-linejoin:miter;stroke-opacity:1"
     id="path1219" />
  <path
     d="m 3.3529085,3.8641785 c 0.001,0.0328 0.0178,0.0479 0.0507,0.0479 h 0.0493 c 0.0315,0 0.0479,-0.0151 0.0506,-0.0479 l 0.0137,-0.40104 v -0.1971 c 0,-0.0328 -0.0164,-0.0492 -0.0493,-0.0492 h -0.0808 c -0.0328,0 -0.0493,0.0164 -0.0493,0.0492 v 0.1971 z m 0.0739,0.3244 c 0.0643,0 0.0972,-0.0315 0.0972,-0.0945 0,-0.0602 -0.0329,-0.0917 -0.0972,-0.0917 -0.0287,0 -0.052,0.008 -0.0684,0.0232 -0.0164,0.0164 -0.0246,0.0383 -0.0246,0.0684 0,0.0315 0.008,0.0547 0.0246,0.0711 0.0164,0.0164 0.0397,0.0232 0.0684,0.0232 z"
     style="font-style:normal;font-variant:normal;font-weight:bold;font-stretch:normal;font-size:1.22585px;line-height:125%;font-family:EstandarRoundedBold;-inkscape-font-specification:'EstandarRoundedBold Bold';letter-spacing:0px;word-spacing:0px;fill:#ffffff;stroke:none;stroke-width:0.264583px;stroke-linecap:butt;stroke-linejoin:miter;stroke-opacity:1"
     id="path1221" />
  <path
     d="m 3.6646085,3.9422085 c 0,0.0821 0.026,0.14509 0.0808,0.18752 0.0534,0.0438 0.12866,0.0643 0.22448,0.0643 0.0999,0 0.18204,-0.0273 0.245,-0.0849 l 0.0424,0.0479 c 0.0219,0.0247 0.0452,0.0274 0.0698,0.006 l 0.0507,-0.0452 c 0.0219,-0.0219 0.0233,-0.0452 0.004,-0.0698 l -0.0575,-0.063 c 0.0438,-0.0656 0.0712,-0.13961 0.0835,-0.219 0.004,-0.0302 -0.01,-0.0479 -0.0424,-0.0534 l -0.0657,-0.01 c -0.0315,-0.002 -0.0479,0.0123 -0.0507,0.0452 -0.008,0.0438 -0.0192,0.078 -0.0356,0.10261 l -0.14098,-0.1711 c 0.0589,-0.0424 0.10402,-0.0821 0.13414,-0.12045 0.0301,-0.037 0.0465,-0.0807 0.0465,-0.13277 0,-0.0698 -0.0219,-0.12593 -0.0643,-0.16699 -0.0424,-0.0411 -0.1095,-0.0616 -0.20121,-0.0616 -0.0835,0 -0.14783,0.0232 -0.19436,0.0684 -0.0465,0.0466 -0.0698,0.10407 -0.0698,0.17383 0,0.0698 0.037,0.14509 0.11223,0.22722 -0.11497,0.0876 -0.17109,0.17384 -0.17109,0.26006 z m 0.18341,-0.007 c 0,-0.0507 0.0301,-0.10127 0.0903,-0.15193 l 0.1752,0.20805 c -0.0356,0.0328 -0.0794,0.0492 -0.12866,0.0492 -0.0917,0 -0.13688,-0.0328 -0.13688,-0.10127 z m 0.12456,-0.37094 c -0.0465,-0.0466 -0.0698,-0.089 -0.0698,-0.12866 0,-0.0274 0.007,-0.0493 0.0219,-0.0657 0.0137,-0.0151 0.0356,-0.0232 0.063,-0.0232 0.0589,0 0.089,0.0288 0.089,0.0862 0,0.0411 -0.0356,0.0849 -0.10402,0.1314 z"
     style="font-style:normal;font-variant:normal;font-weight:bold;font-stretch:normal;font-size:1.22585px;line-height:125%;font-family:EstandarRoundedBold;-inkscape-font-specification:'EstandarRoundedBold Bold';letter-spacing:0px;word-spacing:0px;fill:#ffffff;stroke:none;stroke-width:0.264583px;stroke-linecap:butt;stroke-linejoin:miter;stroke-opacity:1"
     id="path1223" />
</svg>
