<?xml version="1.0" encoding="UTF-8"?>
<svg width="21" height="21.00004" version="1.1" viewBox="0 0 5.556251 5.55626" xmlns="http://www.w3.org/2000/svg" xmlns:cc="http://creativecommons.org/ns#" xmlns:dc="http://purl.org/dc/elements/1.1/" xmlns:rdf="http://www.w3.org/1999/02/22-rdf-syntax-ns#" xmlns:xlink="http://www.w3.org/1999/xlink"><title>MyBB Vector Smiley - Dead</title><defs><linearGradient id="linearGradient479" x1="-75.05662" x2="-75.05662" y1="106.0459" y2="111.4699" gradientTransform="matrix(1.02439 0 0 1.02439 79.66541 -108.6324)" gradientUnits="userSpaceOnUse"><stop stop-color="#d9d9d9" offset="0"/><stop stop-color="#b8b8b8" offset="1"/></linearGradient></defs><metadata><rdf:RDF><cc:Work rdf:about=""><dc:format>image/svg+xml</dc:format><dc:type rdf:resource="http://purl.org/dc/dcmitype/StillImage"/><dc:title>MyBB Vector Smiley - Dead</dc:title><dc:date>2025-07-13</dc:date><dc:creator><cc:Agent><dc:title>Paul Verbitsky</dc:title></cc:Agent></dc:creator><dc:rights><cc:Agent><dc:title>Distributed under GNU Lesser General Public License v3.0</dc:title></cc:Agent></dc:rights><cc:license rdf:resource="https://www.gnu.org/licenses/lgpl-3.0.html"/></cc:Work></rdf:RDF></metadata><path d="m5.556251 2.77813a2.778125 2.778125 0 0 1-2.77813 2.77813 2.778125 2.778125 0 0 1-2.778121-2.77813 2.778125 2.778125 0 0 1 2.778121-2.77813 2.778125 2.778125 0 0 1 2.77813 2.77813z" fill="url(#linearGradient479)" style="paint-order:normal"/><g fill="none" stroke="#292f33" stroke-linecap="round" stroke-linejoin="round" stroke-width=".205787"><path d="m2.248506 1.65478-0.85371 0.87356" stop-color="#000000" style="font-variation-settings:normal"/><path d="m1.394796 1.65478 0.85371 0.87356" stop-color="#000000" style="font-variation-settings:normal"/><path d="m4.161467 1.65478-0.85371 0.87356" stop-color="#000000" style="font-variation-settings:normal"/><path d="m3.307757 1.65478 0.85371 0.87356" stop-color="#000000" style="font-variation-settings:normal"/></g><path d="m1.291901 3.54162 2.869556-1e-5v0.55975c0 0.30309-0.244005 0.5471-0.5471 0.5471-0.303084 0-0.547089-0.24401-0.547089-0.5471v-0.55975" fill="#e5595a" stop-color="#000000" stroke="#292f33" stroke-width=".205787" style="font-variation-settings:normal"/></svg>
