<?xml version="1.0" encoding="UTF-8"?>
<svg width="5.556247mm" height="5.556257mm" version="1.1" viewBox="0 0 5.556247 5.556257" xmlns="http://www.w3.org/2000/svg" xmlns:cc="http://creativecommons.org/ns#" xmlns:dc="http://purl.org/dc/elements/1.1/" xmlns:rdf="http://www.w3.org/1999/02/22-rdf-syntax-ns#" xmlns:xlink="http://www.w3.org/1999/xlink"><title>MyBB Vector Smiley - Dead</title><defs><linearGradient id="linearGradient479" x1="-75.05662" x2="-75.05662" y1="106.0459" y2="111.4699" gradientTransform="matrix(.9878046 0 0 .9878046 76.9194 -104.6534)" gradientUnits="userSpaceOnUse"><stop stop-color="#e6e6e6" offset="0"/><stop stop-color="#b8b8b8" offset="1"/></linearGradient></defs><metadata><rdf:RDF><cc:Work rdf:about=""><dc:format>image/svg+xml</dc:format><dc:type rdf:resource="http://purl.org/dc/dcmitype/StillImage"/><dc:title>MyBB Vector Smiley - Dead</dc:title><dc:date>2025-07-13</dc:date><dc:creator><cc:Agent><dc:title>Paul Verbitsky</dc:title></cc:Agent></dc:creator><dc:rights><cc:Agent><dc:title>Distributed under GNU Lesser General Public License v3.0</dc:title></cc:Agent></dc:rights><cc:license rdf:resource="https://www.gnu.org/licenses/lgpl-3.0.html"/></cc:Work></rdf:RDF></metadata><path d="m5.457028 2.778128a2.678905 2.678905 0 0 1-2.67891 2.67891 2.678905 2.678905 0 0 1-2.6789-2.67891 2.678905 2.678905 0 0 1 2.6789-2.67891 2.678905 2.678905 0 0 1 2.67891 2.67891z" fill="url(#linearGradient479)" stroke="#000" stroke-linecap="round" stroke-linejoin="round" stroke-width=".198437" style="paint-order:normal"/><g fill="none" stroke="#000" stroke-linecap="round" stroke-linejoin="round" stroke-width=".198437"><path d="m2.267418 1.694898-0.82322 0.84236" stop-color="#000000" style="font-variation-settings:normal"/><path d="m1.444198 1.694898 0.82322 0.84236" stop-color="#000000" style="font-variation-settings:normal"/><path d="m4.112058 1.694898-0.82322 0.84236" stop-color="#000000" style="font-variation-settings:normal"/><path d="m3.288838 1.694898 0.82322 0.84236" stop-color="#000000" style="font-variation-settings:normal"/></g><path d="m1.344978 3.514358 2.76707-1e-5v0.53975c0 0.29227-0.23529 0.52756-0.52756 0.52756-0.29226 0-0.52755-0.23529-0.52755-0.52756v-0.53975" fill="#e5595a" stop-color="#000000" stroke="#000" stroke-width=".198437" style="font-variation-settings:normal"/></svg>
