<?xml version="1.0" encoding="UTF-8"?>
<svg width="21" height="21.00004" version="1.1" viewBox="0 0 5.55625 5.55626" xmlns="http://www.w3.org/2000/svg" xmlns:cc="http://creativecommons.org/ns#" xmlns:dc="http://purl.org/dc/elements/1.1/" xmlns:rdf="http://www.w3.org/1999/02/22-rdf-syntax-ns#" xmlns:xlink="http://www.w3.org/1999/xlink"><title>MyBB Vector Smiley - Evil</title><defs><linearGradient id="linearGradient355" x1="-76.97428" x2="-73.13896" y1="106.8402" y2="110.6756" gradientTransform="matrix(1.02439 0 0 1.02439 79.66541 -108.6324)" gradientUnits="userSpaceOnUse"><stop stop-color="#fee03f" offset="0"/><stop stop-color="#feb434" offset="1"/></linearGradient></defs><metadata><rdf:RDF><cc:Work rdf:about=""><dc:format>image/svg+xml</dc:format><dc:type rdf:resource="http://purl.org/dc/dcmitype/StillImage"/><dc:title>MyBB Vector Smiley - Evil</dc:title><dc:date>2025-07-13</dc:date><dc:creator><cc:Agent><dc:title>Paul Verbitsky</dc:title></cc:Agent></dc:creator><dc:rights><cc:Agent><dc:title>Distributed under GNU Lesser General Public License v3.0</dc:title></cc:Agent></dc:rights><cc:license rdf:resource="https://www.gnu.org/licenses/lgpl-3.0.html"/></cc:Work></rdf:RDF></metadata><path d="m5.55625 2.77813a2.778125 2.778125 0 0 1-2.77813 2.77813 2.778125 2.778125 0 0 1-2.77812-2.77813 2.778125 2.778125 0 0 1 2.77812-2.77813 2.778125 2.778125 0 0 1 2.77813 2.77813z" fill="url(#linearGradient355)" style="paint-order:normal"/><path d="m4.28935 3.22574s-0.4049 1.0615-1.51121 1.0615c-1.10632 0-1.51123-1.0615-1.51123-1.0615s0.61382 0.2393 1.51123 0.2393 1.51121-0.2393 1.51121-0.2393z" fill="#fff" stop-color="#000000" stroke="#433410" stroke-width=".205787" style="font-variation-settings:normal"/><g fill="none" stroke="#433410" stroke-linecap="round" stroke-linejoin="round"><path d="m3.67895 1.0501-0.90081 0.90082-0.90083-0.90082" stroke-width=".205787"/><path d="m1.8773 1.8618v0.43934" stop-color="#000000" stroke-width=".274382" style="font-variation-settings:normal"/><path d="m3.67894 1.8618v0.43934" stop-color="#000000" stroke-width=".274382" style="font-variation-settings:normal"/></g></svg>
