<?xml version="1.0" encoding="UTF-8"?>
<svg width="21" height="21.00004" version="1.1" viewBox="0 0 5.55625 5.55626" xmlns="http://www.w3.org/2000/svg" xmlns:xlink="http://www.w3.org/1999/xlink"><defs><linearGradient id="linearGradient415" x1="-75.05662" x2="-75.05662" y1="106.0459" y2="111.4699" gradientTransform="matrix(1.02439 0 0 1.02439 79.66541 -108.6324)" gradientUnits="userSpaceOnUse"><stop stop-color="#b3d8f4" offset="0"/><stop stop-color="#50a5e6" offset="1"/></linearGradient><filter id="filter1142-9" x="-.3193961" y="-.2828248" width="1.638792" height="1.56565" color-interpolation-filters="sRGB"><feGaussianBlur stdDeviation="0.13651363"/></filter></defs><g><path d="m5.55625 2.77813a2.778125 2.778125 0 0 1-2.77813 2.77813 2.778125 2.778125 0 0 1-2.77812-2.77813 2.778125 2.778125 0 0 1 2.77812-2.77813 2.778125 2.778125 0 0 1 2.77813 2.77813z" fill="url(#linearGradient415)" style="paint-order:normal"/><path transform="matrix(1.037038 0 0 1.242975 50.63994 -133.197)" d="m-47.47585 109.0858a0.5128943 0.5792168 0 0 1-0.512893 0.57922 0.5128943 0.5792168 0 0 1-0.512895-0.57922 0.5128943 0.5792168 0 0 1 0.512895-0.57921 0.5128943 0.5792168 0 0 1 0.512893 0.57921z" fill="#bbddf5" filter="url(#filter1142-9)"/><path transform="matrix(-1.037038 0 0 1.242975 -45.08369 -133.197)" d="m-47.47585 109.0858a0.5128943 0.5792168 0 0 1-0.512893 0.57922 0.5128943 0.5792168 0 0 1-0.512895-0.57922 0.5128943 0.5792168 0 0 1 0.512895-0.57921 0.5128943 0.5792168 0 0 1 0.512893 0.57921z" fill="#bbddf5" filter="url(#filter1142-9)"/></g><path d="m1.947411 1.70621v0.52429" fill="none" stop-color="#000000" stroke="#0c355a" stroke-linecap="round" stroke-linejoin="round" stroke-width=".274382" style="font-variation-settings:normal"/><path d="m3.608838 1.70621v0.52429" fill="none" stop-color="#000000" stroke="#0c355a" stroke-linecap="round" stroke-linejoin="round" stroke-width=".274382" style="font-variation-settings:normal"/><g fill="#bbddf5"><path d="m3.582905 3.59524-0.220528 1.41034c-0.04146 0.26517-0.108222 0.26517-0.149689 1e-5l-0.22053-1.41035z"/><path d="m2.564104 3.40309-0.220528 1.41034c-0.04146 0.26517-0.108222 0.26517-0.149689 1e-5l-0.22053-1.41035z"/><path d="m4.429406 3.59652-0.134288 0.85939c-0.04144 0.26517-0.108222 0.26517-0.149689 1e-5l-0.13447-0.8594z"/><path d="m1.545305 3.59652-0.134288 0.85939c-0.04144 0.26517-0.108222 0.26517-0.149689 1e-5l-0.134471-0.8594z"/></g><path d="m1.664716 3.05866h2.226818c0.297974 0 0.537858 0.23988 0.537858 0.53786 0 0.29797-0.239885 0.53786-0.537858 0.53786h-2.226818c-0.297974 0-0.537859-0.23989-0.537859-0.53786 0-0.29798 0.239886-0.53786 0.537859-0.53786z" fill="#fff" stroke="#0c355a" stroke-linecap="round" stroke-linejoin="round" stroke-width=".205787"/><g fill="none" stroke="#0c355a" stroke-width=".205787"><g><path d="m3.109109 3.05866 1.2e-5 1.07572" stop-color="#000000" style="font-variation-settings:normal"/><path d="m3.771084 3.05866 1e-5 1.07572" stop-color="#000000" style="font-variation-settings:normal"/><path d="m1.785143 3.05866 2.2e-5 1.07572" stop-color="#000000" style="font-variation-settings:normal"/><path d="m1.126855 3.59653 3.302539-1e-5" stop-color="#000000" style="font-variation-settings:normal"/><path d="m2.447126 3.05866 2.2e-5 1.07572" stop-color="#000000" style="font-variation-settings:normal"/></g><path d="m1.361765 1.44686 0.361874-0.32852" stop-color="#000000" stroke-linecap="round" stroke-linejoin="round" style="font-variation-settings:normal"/><path d="m4.194487 1.44686-0.361874-0.32852" stop-color="#000000" stroke-linecap="round" stroke-linejoin="round" style="font-variation-settings:normal"/></g></svg>
