<?xml version="1.0" encoding="UTF-8"?>
<svg width="21" height="21.00004" version="1.1" viewBox="0 0 5.55625 5.55626" xmlns="http://www.w3.org/2000/svg" xmlns:cc="http://creativecommons.org/ns#" xmlns:dc="http://purl.org/dc/elements/1.1/" xmlns:rdf="http://www.w3.org/1999/02/22-rdf-syntax-ns#" xmlns:xlink="http://www.w3.org/1999/xlink"><title>MyBB Vector Smiley - Frozen</title><defs><linearGradient id="linearGradient415" x1="-75.05662" x2="-75.05662" y1="106.0459" y2="111.4699" gradientTransform="matrix(1.02439 0 0 1.02439 79.66541 -108.6324)" gradientUnits="userSpaceOnUse"><stop stop-color="#bbddf5" offset="0"/><stop stop-color="#50a5e6" offset="1"/></linearGradient><filter id="filter1142-9" x="-.3193961" y="-.2828248" width="1.638792" height="1.56565" color-interpolation-filters="sRGB"><feGaussianBlur stdDeviation="0.13651363"/></filter></defs><metadata><rdf:RDF><cc:Work rdf:about=""><dc:format>image/svg+xml</dc:format><dc:type rdf:resource="http://purl.org/dc/dcmitype/StillImage"/><dc:title>MyBB Vector Smiley - Frozen</dc:title><dc:date>2025-07-13</dc:date><dc:creator><cc:Agent><dc:title>Paul Verbitsky</dc:title></cc:Agent></dc:creator><dc:rights><cc:Agent><dc:title>Distributed under GNU Lesser General Public License v3.0</dc:title></cc:Agent></dc:rights><cc:license rdf:resource="https://www.gnu.org/licenses/lgpl-3.0.html"/></cc:Work></rdf:RDF></metadata><g><path d="m5.55625 2.77813a2.778125 2.778125 0 0 1-2.77813 2.77813 2.778125 2.778125 0 0 1-2.77812-2.77813 2.778125 2.778125 0 0 1 2.77812-2.77813 2.778125 2.778125 0 0 1 2.77813 2.77813z" fill="url(#linearGradient415)" style="paint-order:normal"/><path transform="matrix(1.037038 0 0 1.242975 50.63993 -133.197)" d="m-47.47585 109.0858a0.5128943 0.5792168 0 0 1-0.512893 0.57922 0.5128943 0.5792168 0 0 1-0.512895-0.57922 0.5128943 0.5792168 0 0 1 0.512895-0.57921 0.5128943 0.5792168 0 0 1 0.512893 0.57921z" fill="#bbddf5" filter="url(#filter1142-9)"/><path transform="matrix(-1.037038 0 0 1.242975 -45.08369 -133.197)" d="m-47.47585 109.0858a0.5128943 0.5792168 0 0 1-0.512893 0.57922 0.5128943 0.5792168 0 0 1-0.512895-0.57922 0.5128943 0.5792168 0 0 1 0.512895-0.57921 0.5128943 0.5792168 0 0 1 0.512893 0.57921z" fill="#bbddf5" filter="url(#filter1142-9)"/></g><path d="m1.94741 1.70621v0.52429" fill="none" stop-color="#000000" stroke="#292f33" stroke-linecap="round" stroke-linejoin="round" stroke-width=".274382" style="font-variation-settings:normal"/><path d="m3.60884 1.70621v0.52429" fill="none" stop-color="#000000" stroke="#292f33" stroke-linecap="round" stroke-linejoin="round" stroke-width=".274382" style="font-variation-settings:normal"/><g fill="#bbddf5"><path d="m3.5829 3.59524-0.22052 1.41034c-0.0415 0.26517-0.10823 0.26517-0.14969 1e-5l-0.22053-1.41035z"/><path d="m2.5641 3.40309-0.22053 1.41034c-0.0415 0.26517-0.10822 0.26517-0.14968 1e-5l-0.22053-1.41035z"/><path d="m4.4294 3.59652-0.13428 0.85939c-0.0414 0.26517-0.10823 0.26517-0.14969 1e-5l-0.13447-0.8594z"/><path d="m1.5453 3.59652-0.13428 0.85939c-0.0414 0.26517-0.10823 0.26517-0.14969 1e-5l-0.13447-0.8594z"/></g><path d="m1.66471 3.05866h2.22682c0.29798 0 0.53786 0.23988 0.53786 0.53786 0 0.29797-0.23988 0.53786-0.53786 0.53786h-2.22682c-0.29797 0-0.53785-0.23989-0.53785-0.53786 0-0.29798 0.23988-0.53786 0.53785-0.53786z" fill="#fff" stroke="#292f33" stroke-linecap="round" stroke-linejoin="round" stroke-width=".205787"/><g fill="none" stroke="#292f33" stroke-width=".205787"><g><path d="m3.10911 3.05866 1e-5 1.07572" stop-color="#000000" style="font-variation-settings:normal"/><path d="m3.77108 3.05866 1e-5 1.07572" stop-color="#000000" style="font-variation-settings:normal"/><path d="m1.78514 3.05866 2e-5 1.07572" stop-color="#000000" style="font-variation-settings:normal"/><path d="m1.12685 3.59653 3.30254-1e-5" stop-color="#000000" style="font-variation-settings:normal"/><path d="m2.44712 3.05866 3e-5 1.07572" stop-color="#000000" style="font-variation-settings:normal"/></g><path d="m1.36176 1.44686 0.36188-0.32852" stop-color="#000000" stroke-linecap="round" stroke-linejoin="round" style="font-variation-settings:normal"/><path d="m4.19449 1.44686-0.36188-0.32852" stop-color="#000000" stroke-linecap="round" stroke-linejoin="round" style="font-variation-settings:normal"/></g></svg>
