<?xml version="1.0" encoding="UTF-8"?>
<svg width="5.556247mm" height="5.556257mm" version="1.1" viewBox="0 0 5.556247 5.556257" xmlns="http://www.w3.org/2000/svg" xmlns:cc="http://creativecommons.org/ns#" xmlns:dc="http://purl.org/dc/elements/1.1/" xmlns:rdf="http://www.w3.org/1999/02/22-rdf-syntax-ns#" xmlns:xlink="http://www.w3.org/1999/xlink"><title>MyBB Vector Smiley - Grimace</title><defs><linearGradient id="linearGradient398-1" x1="-76.97428" x2="-73.13896" y1="106.8402" y2="110.6756" gradientTransform="matrix(.9878046 0 0 .9878046 76.9194 -104.6534)" gradientUnits="userSpaceOnUse"><stop stop-color="#fee03f" offset="0"/><stop stop-color="#feb434" offset="1"/></linearGradient></defs><metadata><rdf:RDF><cc:Work rdf:about=""><dc:format>image/svg+xml</dc:format><dc:type rdf:resource="http://purl.org/dc/dcmitype/StillImage"/><dc:title>MyBB Vector Smiley - Grimace</dc:title><dc:date>2025-07-13</dc:date><dc:creator><cc:Agent><dc:title>Paul Verbitsky</dc:title></cc:Agent></dc:creator><dc:rights><cc:Agent><dc:title>Distributed under GNU Lesser General Public License v3.0</dc:title></cc:Agent></dc:rights><cc:license rdf:resource="https://www.gnu.org/licenses/lgpl-3.0.html"/></cc:Work></rdf:RDF></metadata><g stroke="#000" stroke-linecap="round" stroke-linejoin="round"><g><path d="m5.457028 2.778128a2.678905 2.678905 0 0 1-2.67891 2.67891 2.678905 2.678905 0 0 1-2.6789-2.67891 2.678905 2.678905 0 0 1 2.6789-2.67891 2.678905 2.678905 0 0 1 2.67891 2.67891z" fill="url(#linearGradient398-1)" stroke-width=".198437" style="paint-order:normal"/><path d="m1.977078 1.665108v0.50557" fill="none" stop-color="#000000" stroke-width=".264583" style="font-variation-settings:normal"/><path d="m3.579168 1.665108v0.50557" fill="none" stop-color="#000000" stroke-width=".264583" style="font-variation-settings:normal"/></g><path d="m1.704478 3.048638h2.14729c0.28733 0 0.51865 0.23132 0.51865 0.51865s-0.23132 0.51865-0.51865 0.51865h-2.14729c-0.28733 0-0.51865-0.23132-0.51865-0.51865s0.23132-0.51865 0.51865-0.51865z" fill="#fff" stroke-width=".198437"/></g><g fill="none" stroke="#000" stroke-width=".198437"><path d="m3.096598 3.048628 1e-5 1.0373" stop-color="#000000" style="font-variation-settings:normal"/><path d="m3.733508 3.048628 1e-5 1.0373" stop-color="#000000" style="font-variation-settings:normal"/><path d="m1.822758 3.048628 2e-5 1.0373" stop-color="#000000" style="font-variation-settings:normal"/><path d="m1.185828 3.567288 3.18459-1e-5" stop-color="#000000" style="font-variation-settings:normal"/><path d="m2.459678 3.048628 2e-5 1.0373" stop-color="#000000" style="font-variation-settings:normal"/></g></svg>
