<?xml version="1.0" encoding="UTF-8"?>
<svg width="21" height="21.00004" version="1.1" viewBox="0 0 5.55625 5.55626" xmlns="http://www.w3.org/2000/svg" xmlns:cc="http://creativecommons.org/ns#" xmlns:dc="http://purl.org/dc/elements/1.1/" xmlns:rdf="http://www.w3.org/1999/02/22-rdf-syntax-ns#" xmlns:xlink="http://www.w3.org/1999/xlink"><title>MyBB Vector Smiley - Grimace</title><defs><linearGradient id="linearGradient398-1" x1="-76.97428" x2="-73.13896" y1="106.8402" y2="110.6756" gradientTransform="matrix(1.02439 0 0 1.02439 79.66541 -108.6324)" gradientUnits="userSpaceOnUse"><stop stop-color="#fee03f" offset="0"/><stop stop-color="#feb434" offset="1"/></linearGradient></defs><metadata><rdf:RDF><cc:Work rdf:about=""><dc:format>image/svg+xml</dc:format><dc:type rdf:resource="http://purl.org/dc/dcmitype/StillImage"/><dc:title>MyBB Vector Smiley - Grimace</dc:title><dc:date>2025-07-13</dc:date><dc:creator><cc:Agent><dc:title>Paul Verbitsky</dc:title></cc:Agent></dc:creator><dc:rights><cc:Agent><dc:title>Distributed under GNU Lesser General Public License v3.0</dc:title></cc:Agent></dc:rights><cc:license rdf:resource="https://www.gnu.org/licenses/lgpl-3.0.html"/></cc:Work></rdf:RDF></metadata><path d="m5.55625 2.77813a2.778125 2.778125 0 0 1-2.77813 2.77813 2.778125 2.778125 0 0 1-2.77812-2.77813 2.778125 2.778125 0 0 1 2.77812-2.77813 2.778125 2.778125 0 0 1 2.77813 2.77813z" fill="url(#linearGradient398-1)" style="paint-order:normal"/><g stroke="#433410" stroke-linecap="round" stroke-linejoin="round"><path d="m1.947411 1.62388v0.5243" fill="none" stop-color="#000000" stroke-width=".274382" style="font-variation-settings:normal"/><path d="m3.608839 1.62388v0.5243" fill="none" stop-color="#000000" stroke-width=".274382" style="font-variation-settings:normal"/><path d="m1.664716 3.05866h2.226818c0.297974 0 0.537858 0.23988 0.537858 0.53786 0 0.29797-0.239885 0.53786-0.537858 0.53786h-2.226818c-0.297974 0-0.537859-0.23989-0.537859-0.53786 0-0.29798 0.239886-0.53786 0.537859-0.53786z" fill="#fff" stroke-width=".205787"/></g><g fill="none" stroke="#433410" stroke-width=".205787"><path d="m3.109111 3.05866 1.2e-5 1.07572" stop-color="#000000" style="font-variation-settings:normal"/><path d="m3.771086 3.05866 1e-5 1.07572" stop-color="#000000" style="font-variation-settings:normal"/><path d="m1.785145 3.05866 2.2e-5 1.07572" stop-color="#000000" style="font-variation-settings:normal"/><path d="m1.126855 3.59653 3.302539-1e-5" stop-color="#000000" style="font-variation-settings:normal"/><path d="m2.447128 3.05866 2.2e-5 1.07572" stop-color="#000000" style="font-variation-settings:normal"/></g></svg>
