<?xml version="1.0" encoding="UTF-8"?>
<svg width="21" height="21" version="1.1" viewBox="0 0 5.55625 5.55625" xmlns="http://www.w3.org/2000/svg" xmlns:xlink="http://www.w3.org/1999/xlink"><defs><linearGradient id="linearGradient494" x1="-75.05662" x2="-75.05662" y1="106.0459" y2="110.5928" gradientTransform="matrix(1.024388 0 0 1.024388 79.66527 -108.6322)" gradientUnits="userSpaceOnUse"><stop stop-color="#ffb98a" offset="0"/><stop stop-color="#ff751a" offset="1"/></linearGradient><linearGradient id="linearGradient525" x1="-54.17353" x2="-54.17353" y1="124.7477" y2="124.4195" gradientTransform="matrix(1.069659 0 0 1.068522 60.72534 -129.4586)" gradientUnits="userSpaceOnUse"><stop stop-color="#e5595a" offset="0"/><stop stop-color="#4d1f00" offset="1"/></linearGradient></defs><path d="m5.55625 2.77813a2.77812 2.77812 0 0 1-2.778125 2.77812 2.77812 2.77812 0 0 1-2.778125-2.77812 2.77812 2.77812 0 0 1 2.778125-2.77813 2.77812 2.77812 0 0 1 2.778125 2.77813z" fill="url(#linearGradient494)" style="paint-order:normal"/><g fill="none" stroke="#4d1f00" stroke-linecap="round" stroke-linejoin="round"><path d="m1.947412 2.02581v0.52429" stop-color="#000000" stroke-width=".274382" style="font-variation-settings:normal"/><path d="m3.608836 2.02581v0.52429" stop-color="#000000" stroke-width=".274382" style="font-variation-settings:normal"/><path d="m1.361766 1.68415 0.361874-0.32852" stop-color="#000000" stroke-width=".205786" style="font-variation-settings:normal"/><path d="m4.194483 1.68415-0.361873-0.32852" stop-color="#000000" stroke-width=".205786" style="font-variation-settings:normal"/></g><path d="m2.778136 4.325a1.306107 0.5829616 0 0 1-1.306121-0.58295 1.306107 0.5829616 0 0 1 1.306121-0.58299 1.306107 0.5829616 0 0 1 1.306099 0.58299 1.306107 0.5829616 0 0 1-1.306099 0.58295z" fill="#4d1f00" style="paint-order:stroke fill markers"/><path d="m3.44912 3.40484v0.81145c0 0.37133-0.299265 0.67028-0.670996 0.67028-0.37173 0-0.670993-0.29895-0.670993-0.67028v-0.81145" fill="url(#linearGradient525)" stroke="#4d1f00" stroke-width=".205786"/><path d="m4.242072 2.96691c0-0.0385 0.0038-0.0769 0.01245-0.11415 0.03251-0.1401 0.08396-0.27193 0.146535-0.40353 0.182769-0.38441 0.296596-0.46249 0.296596-0.46249s0.113828 0.0781 0.2966 0.46249c0.06257 0.1316 0.114024 0.26343 0.146533 0.40353 0.0086 0.0371 0.01245 0.0757 0.01245 0.11415 5.1e-5 0.27064-0.203825 0.49015-0.455584 0.49035-0.251758-2.1e-4 -0.455637-0.21971-0.455585-0.49035z" fill="#d5e5ff"/><path d="m0.403018 2.54663c0-0.0331 0.0033-0.0662 0.01071-0.0982 0.02797-0.12051 0.07222-0.2339 0.126045-0.3471 0.157214-0.33066 0.255125-0.39782 0.255125-0.39782s0.09791 0.0672 0.255128 0.39782c0.05382 0.1132 0.09808 0.22659 0.126044 0.3471 0.0074 0.0319 0.01071 0.0651 0.01071 0.0982 4.3e-5 0.2328-0.175326 0.42163-0.391882 0.42179-0.216557-1.7e-4 -0.391928-0.18899-0.391884-0.42179z" fill="#d5e5ff"/></svg>
