<?xml version="1.0" encoding="UTF-8"?>
<svg width="16.35748" height="21.0004" version="1.1" viewBox="0 0 4.327917 5.556357" xmlns="http://www.w3.org/2000/svg" xmlns:cc="http://creativecommons.org/ns#" xmlns:dc="http://purl.org/dc/elements/1.1/" xmlns:rdf="http://www.w3.org/1999/02/22-rdf-syntax-ns#" xmlns:xlink="http://www.w3.org/1999/xlink"><title>MyBB Vector Smiley - Like</title><defs><linearGradient id="linearGradient485" x1="733.4838" x2="748.7012" y1="100.8271" y2="120.3845" gradientTransform="matrix(.2829639 0 0 .2829639 -207.5407 -28.52142)" gradientUnits="userSpaceOnUse"><stop stop-color="#fee03f" offset="0"/><stop stop-color="#feb434" offset="1"/></linearGradient></defs><metadata><rdf:RDF><cc:Work rdf:about=""><dc:format>image/svg+xml</dc:format><dc:type rdf:resource="http://purl.org/dc/dcmitype/StillImage"/><dc:title>MyBB Vector Smiley - Like</dc:title><dc:date>2025-07-13</dc:date><dc:creator><cc:Agent><dc:title>Paul Verbitsky</dc:title></cc:Agent></dc:creator><dc:rights><cc:Agent><dc:title>Distributed under GNU Lesser General Public License v3.0</dc:title></cc:Agent></dc:rights><cc:license rdf:resource="https://www.gnu.org/licenses/lgpl-3.0.html"/></cc:Work></rdf:RDF></metadata><path d="m1.876858 0.00433641c-0.05915 7e-3 -0.118214 0.0231-0.172432 0.0519-0.108435 0.0577-0.192902 0.17092-0.198406 0.34707-0.01061 0.33773-0.01695 0.67203-0.123245 1.00253-0.203148 0.6316601-0.626773 0.9995501-1.34905 1.04841-0.0191 8.5e-4 -0.03403 0.0168-0.03372 0.0359v2.54391c3e-6 0.0195 0.01585 0.0354 0.03537 0.0354 0.587501 0 0.79134 0.1345301 1.098698 0.3387805 0.140693 0.0935 0.366956 0.14812 0.819047 0.14812h1.556302c0.2648821 0 0.4802633-0.21372 0.4802633-0.4786103 0-0.1786202-0.09921-0.3328202-0.2442771-0.4156001 0.2336569-0.0318 0.4133929-0.2293599 0.4133929-0.4719701 0-0.1786699-0.09813-0.3333898-0.242619-0.4161599 0.233021-0.0324 0.4117351-0.2292599 0.4117351-0.4714201 0-0.2137799-0.1398212-0.39326-0.3327029-0.4554 0.1631119-0.0761 0.2763308-0.2403499 0.2763308-0.4327399 0-0.26488-0.21317-0.48026-0.4780529-0.48026h-1.314237c0.131026-0.3012602 0.236813-0.7204002 0.1862501-1.08377-0.02776-0.19945-0.0944-0.39226-0.1967511-0.54548-0.102348-0.15323-0.243264-0.26799-0.419471-0.29678-0.05382-9e-3 -0.113279-0.0109-0.17243-4e-3z" color="#000000" color-rendering="auto" dominant-baseline="auto" fill="url(#linearGradient485)" image-rendering="auto" shape-rendering="auto" solid-color="#000000" stop-color="#000000" style="font-feature-settings:normal;font-variant-alternates:normal;font-variant-caps:normal;font-variant-east-asian:normal;font-variant-ligatures:normal;font-variant-numeric:normal;font-variant-position:normal;font-variation-settings:normal;inline-size:0;isolation:auto;mix-blend-mode:normal;shape-margin:0;shape-padding:0;text-decoration-color:#000000;text-decoration-line:none;text-decoration-style:solid;text-indent:0;text-orientation:mixed;text-transform:none;white-space:normal"/></svg>
