<?xml version="1.0" encoding="UTF-8"?>
<svg width="16.35759" height="21.0004" version="1.1" viewBox="0 0 4.327945 5.556356" xmlns="http://www.w3.org/2000/svg" xmlns:cc="http://creativecommons.org/ns#" xmlns:dc="http://purl.org/dc/elements/1.1/" xmlns:rdf="http://www.w3.org/1999/02/22-rdf-syntax-ns#" xmlns:xlink="http://www.w3.org/1999/xlink"><title>MyBB Vector Smiley - Like</title><defs><linearGradient id="linearGradient485" x1="733.4838" x2="748.7012" y1="100.8271" y2="120.3845" gradientTransform="matrix(.2829638 0 0 .2829638 -207.5408 -28.52141)" gradientUnits="userSpaceOnUse"><stop stop-color="#fee03f" offset="0"/><stop stop-color="#feb434" offset="1"/></linearGradient></defs><metadata><rdf:RDF><cc:Work rdf:about=""><dc:format>image/svg+xml</dc:format><dc:type rdf:resource="http://purl.org/dc/dcmitype/StillImage"/><dc:title>MyBB Vector Smiley - Like</dc:title><dc:date>2025-07-13</dc:date><dc:creator><cc:Agent><dc:title>Paul Verbitsky</dc:title></cc:Agent></dc:creator><dc:rights><cc:Agent><dc:title>Distributed under GNU Lesser General Public License v3.0</dc:title></cc:Agent></dc:rights><cc:license rdf:resource="https://www.gnu.org/licenses/lgpl-3.0.html"/></cc:Work></rdf:RDF></metadata><path d="m1.876834 0.00433641c-0.0591 7e-3 -0.11821 0.0231-0.17243 0.0519-0.10843 0.0577-0.1929 0.17092-0.19841 0.34707-0.0106 0.33773-0.0169 0.67203-0.12324 1.00253-0.20315 0.63166-0.62677 0.99955-1.34905 1.04841-0.0191 8.5e-4 -0.034 0.0168-0.0337 0.0359v2.54391c0 0.0195 0.0159 0.0354 0.0354 0.0354 0.5875 0 0.79134 0.13453 1.0987 0.33878 0.14069 0.0935 0.36695 0.14812 0.81904 0.14812h1.55631c0.26488 0 0.48026-0.21372 0.48026-0.47861 0-0.17862-0.0992-0.33282-0.24428-0.4156 0.23366-0.0318 0.4134-0.22935 0.4134-0.47197 0-0.17867-0.0981-0.33339-0.24262-0.41616 0.23302-0.0324 0.41173-0.22926 0.41173-0.47142 0-0.21378-0.13982-0.39326-0.3327-0.4554 0.16311-0.0761 0.27633-0.24035 0.27633-0.43274 0-0.26488-0.21317-0.48026-0.47805-0.48026h-1.31424c0.13103-0.30126 0.23681-0.7204 0.18625-1.08377-0.0278-0.19945-0.0944-0.39226-0.19675-0.54548-0.10235-0.15323-0.24327-0.26799-0.41947-0.29678-0.0538-9e-3 -0.11328-0.0109-0.17243-4e-3z" color="#000000" color-rendering="auto" dominant-baseline="auto" fill="url(#linearGradient485)" image-rendering="auto" shape-rendering="auto" solid-color="#000000" stop-color="#000000" style="font-feature-settings:normal;font-variant-alternates:normal;font-variant-caps:normal;font-variant-east-asian:normal;font-variant-ligatures:normal;font-variant-numeric:normal;font-variant-position:normal;font-variation-settings:normal;inline-size:0;isolation:auto;mix-blend-mode:normal;shape-margin:0;shape-padding:0;text-decoration-color:#000000;text-decoration-line:none;text-decoration-style:solid;text-indent:0;text-orientation:mixed;text-transform:none;white-space:normal"/></svg>
