<?xml version="1.0" encoding="UTF-8"?>
<svg width="16.35748" height="21.0004" version="1.1" viewBox="0 0 4.327917 5.556356" xmlns="http://www.w3.org/2000/svg" xmlns:xlink="http://www.w3.org/1999/xlink"><defs><linearGradient id="linearGradient485" x1="733.4838" x2="748.7012" y1="100.8271" y2="120.3845" gradientTransform="matrix(.2829639 0 0 .2829639 -207.5407 -28.52142)" gradientUnits="userSpaceOnUse"><stop stop-color="#ffd74c" offset="0"/><stop stop-color="#feb83e" offset="1"/></linearGradient></defs><path d="m1.876858 0.00433641c-0.05915 7e-3 -0.118214 0.0231-0.172432 0.0519-0.108435 0.0577-0.192902 0.17092-0.198406 0.3470701-0.01061 0.33773-0.01695 0.6720299-0.123245 1.00253-0.203148 0.63166-0.6267731 0.9995501-1.34905 1.04841-0.0191 8.5e-4 -0.03403 0.0168-0.03372 0.0359v2.54391c3e-6 0.0195 0.01585 0.0354 0.03537 0.0354 0.587501 0 0.79134 0.13453 1.098698 0.3387802 0.140693 0.0935 0.366956 0.1481198 0.819047 0.1481198h1.556302c0.2648821 0 0.4802632-0.2137198 0.4802632-0.4786098 0-0.1786202-0.09921-0.3328202-0.2442771-0.4156001 0.233657-0.0318 0.413393-0.2293599 0.413393-0.4719701 0-0.17867-0.09813-0.3333898-0.242619-0.41616 0.233021-0.0324 0.4117351-0.2292598 0.4117351-0.47142 0-0.2137799-0.1398212-0.39326-0.332703-0.4554 0.163112-0.0761 0.2763309-0.2403499 0.2763309-0.43274 0-0.2648799-0.2131701-0.48026-0.4780529-0.48026h-1.314237c0.131026-0.30126 0.236813-0.7204 0.1862501-1.08377-0.02776-0.19945-0.0944-0.39226-0.1967511-0.54548-0.102348-0.1532301-0.243264-0.2679901-0.419471-0.2967801-0.05382-9e-3 -0.113279-0.0109-0.17243-4e-3z" color="#000000" color-rendering="auto" dominant-baseline="auto" fill="url(#linearGradient485)" image-rendering="auto" shape-rendering="auto" solid-color="#000000" stop-color="#000000" style="font-feature-settings:normal;font-variant-alternates:normal;font-variant-caps:normal;font-variant-east-asian:normal;font-variant-ligatures:normal;font-variant-numeric:normal;font-variant-position:normal;font-variation-settings:normal;inline-size:0;isolation:auto;mix-blend-mode:normal;shape-margin:0;shape-padding:0;text-decoration-color:#000000;text-decoration-line:none;text-decoration-style:solid;text-indent:0;text-orientation:mixed;text-transform:none;white-space:normal"/></svg>
