<?xml version="1.0" encoding="UTF-8" standalone="no"?>
<svg
   xmlns:dc="http://purl.org/dc/elements/1.1/"
   xmlns:cc="http://creativecommons.org/ns#"
   xmlns:rdf="http://www.w3.org/1999/02/22-rdf-syntax-ns#"
   xmlns:svg="http://www.w3.org/2000/svg"
   xmlns="http://www.w3.org/2000/svg"
   xmlns:xlink="http://www.w3.org/1999/xlink"
   xmlns:sodipodi="http://sodipodi.sourceforge.net/DTD/sodipodi-0.dtd"
   xmlns:inkscape="http://www.inkscape.org/namespaces/inkscape"
   width="5.5562472mm"
   height="5.5562568mm"
   viewBox="0 0 5.5562472 5.5562568"
   version="1.1"
   id="svg497"
   inkscape:version="1.0 (4035a4fb49, 2020-05-01)"
   sodipodi:docname="shocked.svg">
  <title
     id="title16">MyBB Vector Smiley - Shocked</title>
  <defs
     id="defs491">
    <linearGradient
       inkscape:collect="always"
       xlink:href="#linearGradient359"
       id="linearGradient345"
       gradientUnits="userSpaceOnUse"
       gradientTransform="matrix(0.98780458,0,0,0.98780458,76.919389,-104.65343)"
       x1="-76.974281"
       y1="106.84025"
       x2="-73.138962"
       y2="110.67557" />
    <linearGradient
       id="linearGradient359"
       inkscape:collect="always">
      <stop
         id="stop355"
         offset="0"
         style="stop-color:#fee03f;stop-opacity:1" />
      <stop
         id="stop357"
         offset="1"
         style="stop-color:#feb434;stop-opacity:1" />
    </linearGradient>
  </defs>
  <sodipodi:namedview
     id="base"
     pagecolor="#ffffff"
     bordercolor="#666666"
     borderopacity="1.0"
     inkscape:pageopacity="0.0"
     inkscape:pageshadow="2"
     inkscape:zoom="28.809489"
     inkscape:cx="10.499995"
     inkscape:cy="10.500013"
     inkscape:document-units="px"
     inkscape:current-layer="svg497"
     inkscape:document-rotation="0"
     showgrid="false"
     fit-margin-top="0"
     fit-margin-left="0"
     fit-margin-right="0"
     fit-margin-bottom="0"
     inkscape:window-width="1600"
     inkscape:window-height="837"
     inkscape:window-x="-8"
     inkscape:window-y="-8"
     inkscape:window-maximized="1" />
  <metadata
     id="metadata494">
    <rdf:RDF>
      <cc:Work
         rdf:about="">
        <dc:format>image/svg+xml</dc:format>
        <dc:type
           rdf:resource="http://purl.org/dc/dcmitype/StillImage" />
        <dc:title>MyBB Vector Smiley - Shocked</dc:title>
        <dc:date>2025-07-13</dc:date>
        <dc:creator>
          <cc:Agent>
            <dc:title>Paul Verbitsky</dc:title>
          </cc:Agent>
        </dc:creator>
        <dc:rights>
          <cc:Agent>
            <dc:title>Distributed under GNU Lesser General Public License v3.0</dc:title>
          </cc:Agent>
        </dc:rights>
        <cc:license
           rdf:resource="https://www.gnu.org/licenses/lgpl-3.0.html" />
      </cc:Work>
    </rdf:RDF>
  </metadata>
  <path
     d="m 5.4570285,2.7781285 a 2.6789053,2.6789053 0 0 1 -2.67891,2.67891 2.6789053,2.6789053 0 0 1 -2.6789,-2.67891 2.6789053,2.6789053 0 0 1 2.6789,-2.67891 2.6789053,2.6789053 0 0 1 2.67891,2.67891 z"
     style="fill:url(#linearGradient345);fill-opacity:1;stroke:#000000;stroke-width:0.198437;stroke-linecap:round;stroke-linejoin:round;stroke-miterlimit:4;stroke-dasharray:none;paint-order:normal"
     id="path335" />
  <path
     style="font-variation-settings:normal;vector-effect:none;fill:none;fill-opacity:1;stroke:#000000;stroke-width:0.198437;stroke-linecap:butt;stroke-linejoin:miter;stroke-miterlimit:4;stroke-dasharray:none;stroke-dashoffset:0;stroke-opacity:1;stop-color:#000000"
     d="m 2.1740485,3.9252585 1.20815,-1e-5"
     id="path341"
     sodipodi:nodetypes="cc" />
  <path
     d="m 2.5248685,2.1954485 a 0.85807893,0.85807893 0 0 1 -0.85808,0.85808 0.85807893,0.85807893 0 0 1 -0.85808,-0.85808 0.85807893,0.85807893 0 0 1 0.85808,-0.85808 0.85807893,0.85807893 0 0 1 0.85808,0.85808 z"
     style="fill:#ffffff;stroke:#000000;stroke-width:0.198437"
     id="path59-1" />
  <path
     d="m 1.8652285,2.1954485 a 0.19843883,0.19843883 0 0 1 -0.19843,0.19844 0.19843883,0.19843883 0 0 1 -0.19844,-0.19844 0.19843883,0.19843883 0 0 1 0.19844,-0.19844 0.19843883,0.19843883 0 0 1 0.19843,0.19844 z"
     style="fill:#000000;stroke:none;stroke-width:0.198437"
     id="path61-6" />
  <path
     id="path403"
     style="fill:#ffffff;stroke:#000000;stroke-width:0.198437"
     d="m 4.7475385,2.1954485 a 0.85807893,0.85807893 0 0 1 -0.85808,0.85808 0.85807893,0.85807893 0 0 1 -0.85808,-0.85808 0.85807893,0.85807893 0 0 1 0.85808,-0.85808 0.85807893,0.85807893 0 0 1 0.85808,0.85808 z" />
  <path
     id="path401"
     style="fill:#000000;stroke:none;stroke-width:0.198437"
     d="m 4.0878885,2.1954485 a 0.19843883,0.19843883 0 0 1 -0.19843,0.19844 0.19843883,0.19843883 0 0 1 -0.19844,-0.19844 0.19843883,0.19843883 0 0 1 0.19844,-0.19844 0.19843883,0.19843883 0 0 1 0.19843,0.19844 z" />
</svg>
