<?xml version="1.0" encoding="UTF-8"?>
<svg width="21" height="21.00004" version="1.1" viewBox="0 0 5.55625 5.55626" xmlns="http://www.w3.org/2000/svg" xmlns:xlink="http://www.w3.org/1999/xlink"><defs><linearGradient id="linearGradient345" x1="-76.97428" x2="-73.13896" y1="106.8402" y2="110.6756" gradientTransform="matrix(1.02439 0 0 1.02439 79.66541 -108.6324)" gradientUnits="userSpaceOnUse"><stop stop-color="#ffd74c" offset="0"/><stop stop-color="#feb83e" offset="1"/></linearGradient></defs><path d="m5.55625 2.77813a2.778125 2.778125 0 0 1-2.77813 2.77813 2.778125 2.778125 0 0 1-2.77812-2.77813 2.778125 2.778125 0 0 1 2.77812-2.77813 2.778125 2.778125 0 0 1 2.77813 2.77813z" fill="url(#linearGradient345)" style="paint-order:normal"/><path d="m2.15167 3.96774 1.2529-1e-5" fill="none" stop-color="#000000" stroke="#433410" stroke-width=".205787" style="font-variation-settings:normal"/><path d="m2.51549 2.17387a0.88986 0.88986 0 0 1-0.88986 0.88986 0.88986 0.88986 0 0 1-0.88986-0.88986 0.88986 0.88986 0 0 1 0.88986-0.88987 0.88986 0.88986 0 0 1 0.88986 0.88987z" fill="#fff" stroke="#433410" stroke-width=".205787"/><path d="m1.83141 2.17386a0.2057885 0.2057885 0 0 1-0.20578 0.20579 0.2057885 0.2057885 0 0 1-0.20579-0.20579 0.2057885 0.2057885 0 0 1 0.20579-0.20579 0.2057885 0.2057885 0 0 1 0.20578 0.20579z" fill="#433410"/><path d="m4.82049 2.17387a0.88986 0.88986 0 0 1-0.88986 0.88986 0.88986 0.88986 0 0 1-0.88987-0.88986 0.88986 0.88986 0 0 1 0.88987-0.88987 0.88986 0.88986 0 0 1 0.88986 0.88987z" fill="#fff" stroke="#433410" stroke-width=".205787"/><path d="m4.1364 2.17387a0.2057885 0.2057885 0 0 1-0.20577 0.20579 0.2057885 0.2057885 0 0 1-0.20579-0.20579 0.2057885 0.2057885 0 0 1 0.20579-0.20579 0.2057885 0.2057885 0 0 1 0.20577 0.20579z" fill="#433410"/></svg>
