<?xml version="1.0" encoding="UTF-8"?>
<svg width="21" height="21.00004" version="1.1" viewBox="0 0 5.55625 5.55626" xmlns="http://www.w3.org/2000/svg" xmlns:cc="http://creativecommons.org/ns#" xmlns:dc="http://purl.org/dc/elements/1.1/" xmlns:rdf="http://www.w3.org/1999/02/22-rdf-syntax-ns#" xmlns:xlink="http://www.w3.org/1999/xlink"><title>MyBB Vector Smiley - Surprise</title><defs><linearGradient id="linearGradient1283" x1="-76.97428" x2="-73.13896" y1="106.8402" y2="110.6756" gradientTransform="matrix(1.02439 0 0 1.02439 79.6654 -108.6324)" gradientUnits="userSpaceOnUse"><stop stop-color="#fee03f" offset="0"/><stop stop-color="#feb434" offset="1"/></linearGradient></defs><metadata><rdf:RDF><cc:Work rdf:about=""><dc:format>image/svg+xml</dc:format><dc:type rdf:resource="http://purl.org/dc/dcmitype/StillImage"/><dc:title>MyBB Vector Smiley - Surprise</dc:title><dc:date>2025-07-13</dc:date><dc:creator><cc:Agent><dc:title>Paul Verbitsky</dc:title></cc:Agent></dc:creator><dc:rights><cc:Agent><dc:title>Distributed under GNU Lesser General Public License v3.0</dc:title></cc:Agent></dc:rights><cc:license rdf:resource="https://www.gnu.org/licenses/lgpl-3.0.html"/></cc:Work></rdf:RDF></metadata><path d="m5.55625 2.77813a2.778125 2.778125 0 0 1-2.77813 2.77813 2.778125 2.778125 0 0 1-2.77812-2.77813 2.778125 2.778125 0 0 1 2.77812-2.77813 2.778125 2.778125 0 0 1 2.77813 2.77813z" fill="url(#linearGradient1283)" style="paint-order:normal"/><path d="m3.4905 3.96773a0.7123722 0.9080693 0 0 1-0.71237 0.90809 0.7123722 0.9080693 0 0 1-0.71238-0.90809 0.7123722 0.9080693 0 0 1 0.71238-0.90806 0.7123722 0.9080693 0 0 1 0.71237 0.90806z" fill="#292f33" style="paint-order:stroke fill markers"/><path d="m2.77052 3.05967c-0.24372 4e-3 -0.46603 0.16512-0.59378 0.4223h1.20257c-0.12914-0.26003-0.35483-0.42218-0.60128-0.4223-2e-3 -2e-5 -5e-3 -2e-5 -7e-3 0z" fill="#fff" style="paint-order:stroke fill markers"/><path d="m3.4905 3.96773a0.7123722 0.9080693 0 0 1-0.71237 0.90809 0.7123722 0.9080693 0 0 1-0.71238-0.90809 0.7123722 0.9080693 0 0 1 0.71238-0.90806 0.7123722 0.9080693 0 0 1 0.71237 0.90806z" fill="none" stroke="#292f33" stroke-width=".205787" style="paint-order:stroke fill markers"/><path d="m2.51549 2.06412a0.88986 0.88986 0 0 1-0.88986 0.88986 0.88986 0.88986 0 0 1-0.88986-0.88986 0.88986 0.88986 0 0 1 0.88986-0.88987 0.88986 0.88986 0 0 1 0.88986 0.88987z" fill="#fff" stroke="#292f33" stroke-width=".205787"/><path d="m1.37302 2.06412a0.2526108 0.2526108 0 0 0 0.25261 0.25261 0.2526108 0.2526108 0 0 0 0.25261-0.25261 0.2526108 0.2526108 0 0 0-0.25261-0.25262 0.2526108 0.2526108 0 0 0-0.25261 0.25262z" fill="#292f33"/><path d="m4.82048 2.06412a0.88986 0.88986 0 0 1-0.88986 0.88986 0.88986 0.88986 0 0 1-0.88986-0.88986 0.88986 0.88986 0 0 1 0.88986-0.88987 0.88986 0.88986 0 0 1 0.88986 0.88987z" fill="#fff" stroke="#292f33" stroke-width=".205787"/><path d="m3.67801 2.06412a0.2526108 0.2526108 0 0 0 0.25261 0.25261 0.2526108 0.2526108 0 0 0 0.25261-0.25261 0.2526108 0.2526108 0 0 0-0.25261-0.25262 0.2526108 0.2526108 0 0 0-0.25261 0.25262z" fill="#292f33"/></svg>
