<?xml version="1.0" encoding="UTF-8"?>
<svg width="5.556247mm" height="5.556257mm" version="1.1" viewBox="0 0 5.556247 5.556257" xmlns="http://www.w3.org/2000/svg" xmlns:cc="http://creativecommons.org/ns#" xmlns:dc="http://purl.org/dc/elements/1.1/" xmlns:rdf="http://www.w3.org/1999/02/22-rdf-syntax-ns#" xmlns:xlink="http://www.w3.org/1999/xlink"><title>MyBB Vector Smiley - Surprise</title><defs><linearGradient id="linearGradient1283" x1="-76.97428" x2="-73.13896" y1="106.8402" y2="110.6756" gradientTransform="matrix(.9878046 0 0 .9878046 76.91939 -104.6534)" gradientUnits="userSpaceOnUse"><stop stop-color="#fee03f" offset="0"/><stop stop-color="#feb434" offset="1"/></linearGradient></defs><metadata><rdf:RDF><cc:Work rdf:about=""><dc:format>image/svg+xml</dc:format><dc:type rdf:resource="http://purl.org/dc/dcmitype/StillImage"/><dc:title>MyBB Vector Smiley - Surprise</dc:title><dc:date>2025-07-13</dc:date><dc:creator><cc:Agent><dc:title>Paul Verbitsky</dc:title></cc:Agent></dc:creator><dc:rights><cc:Agent><dc:title>Distributed under GNU Lesser General Public License v3.0</dc:title></cc:Agent></dc:rights><cc:license rdf:resource="https://www.gnu.org/licenses/lgpl-3.0.html"/></cc:Work></rdf:RDF></metadata><g stroke="#000" stroke-width=".198437"><path d="m5.457028 2.778128a2.678905 2.678905 0 0 1-2.67891 2.67891 2.678905 2.678905 0 0 1-2.6789-2.67891 2.678905 2.678905 0 0 1 2.6789-2.67891 2.678905 2.678905 0 0 1 2.67891 2.67891z" fill="url(#linearGradient1283)" stroke-linecap="round" stroke-linejoin="round" style="paint-order:normal"/><path d="m2.524868 2.089618a0.8580789 0.8580789 0 0 1-0.85808 0.85808 0.8580789 0.8580789 0 0 1-0.85808-0.85808 0.8580789 0.8580789 0 0 1 0.85808-0.85808 0.8580789 0.8580789 0 0 1 0.85808 0.85808z" fill="#fff"/><path d="m4.747538 2.089618a0.8580789 0.8580789 0 0 1-0.85808 0.85808 0.8580789 0.8580789 0 0 1-0.85808-0.85808 0.8580789 0.8580789 0 0 1 0.85808-0.85808 0.8580789 0.8580789 0 0 1 0.85808 0.85808z" fill="#fff"/></g><path d="m3.465058 3.925248a0.68693 0.8756379 0 0 1-0.68693 0.87565 0.68693 0.8756379 0 0 1-0.68694-0.87565 0.68693 0.8756379 0 0 1 0.68694-0.87563 0.68693 0.8756379 0 0 1 0.68693 0.87563z" style="paint-order:stroke fill markers"/><path d="m2.770798 3.049748c-0.23502 3e-3 -0.44939 0.15922-0.57257 0.40721h1.15961c-0.12452-0.25074-0.34215-0.4071-0.57981-0.40721-2e-3 -2e-5 -5e-3 -2e-5 -7e-3 0z" fill="#fff" style="paint-order:stroke fill markers"/><path d="m3.465058 3.925248a0.68693 0.8756379 0 0 1-0.68693 0.87565 0.68693 0.8756379 0 0 1-0.68694-0.87565 0.68693 0.8756379 0 0 1 0.68694-0.87563 0.68693 0.8756379 0 0 1 0.68693 0.87563z" fill="none" stroke="#000" stroke-width=".198437" style="paint-order:stroke fill markers"/><path d="m1.423198 2.089618a0.2435889 0.2435889 0 0 0 0.24359 0.24359 0.2435889 0.2435889 0 0 0 0.24359-0.24359 0.2435889 0.2435889 0 0 0-0.24359-0.24359 0.2435889 0.2435889 0 0 0-0.24359 0.24359z"/><path d="m3.645868 2.089618a0.2435889 0.2435889 0 0 0 0.24359 0.24359 0.2435889 0.2435889 0 0 0 0.24359-0.24359 0.2435889 0.2435889 0 0 0-0.24359-0.24359 0.2435889 0.2435889 0 0 0-0.24359 0.24359z"/></svg>
