<?xml version="1.0" encoding="UTF-8"?>
<svg width="16.35762" height="21.0004" version="1.1" viewBox="0 0 4.327954 5.556356" xmlns="http://www.w3.org/2000/svg" xmlns:xlink="http://www.w3.org/1999/xlink"><defs><linearGradient id="linearGradient655" x1="733.4838" x2="748.7012" y1="100.8271" y2="120.3845" gradientTransform="matrix(.2829639 0 0 -.2829639 -99.36525 181.6364)" gradientUnits="userSpaceOnUse"><stop stop-color="#ffd74c" offset="0"/><stop stop-color="#feb83e" offset="1"/></linearGradient></defs><g transform="translate(-108.1755 -147.5586)"><path d="m110.0523 153.1106c-0.0592-7e-3 -0.11822-0.0231-0.17243-0.0519-0.10844-0.0577-0.19291-0.17092-0.19841-0.34707-0.0106-0.33773-0.017-0.67203-0.12325-1.00253-0.20314-0.63166-0.62677-0.99955-1.34905-1.04841-0.0191-8.5e-4 -0.034-0.0168-0.0337-0.0359v-2.54391c1e-5 -0.0195 0.0159-0.0354 0.0354-0.0354 0.58751 0 0.79134-0.13453 1.0987-0.33878 0.1407-0.0935 0.36696-0.14812 0.81905-0.14812h1.5563c0.26488 0 0.48026 0.21372 0.48026 0.47861 0 0.17862-0.0992 0.33282-0.24427 0.4156 0.23365 0.0318 0.41339 0.22936 0.41339 0.47197 0 0.17867-0.0981 0.33339-0.24262 0.41616 0.23302 0.0324 0.41174 0.22926 0.41174 0.47142 0 0.21378-0.13982 0.39326-0.33271 0.4554 0.16312 0.0761 0.27633 0.24035 0.27633 0.43274 0 0.26488-0.21317 0.48026-0.47805 0.48026h-1.31424c0.13103 0.30126 0.23682 0.7204 0.18625 1.08377-0.0278 0.19945-0.0944 0.39226-0.19675 0.54548-0.10234 0.15323-0.24326 0.26799-0.41947 0.29678-0.0538 9e-3 -0.11328 0.0109-0.17243 4e-3z" color="#000000" color-rendering="auto" dominant-baseline="auto" fill="url(#linearGradient655)" image-rendering="auto" shape-rendering="auto" solid-color="#000000" stop-color="#000000" style="font-feature-settings:normal;font-variant-alternates:normal;font-variant-caps:normal;font-variant-east-asian:normal;font-variant-ligatures:normal;font-variant-numeric:normal;font-variant-position:normal;font-variation-settings:normal;inline-size:0;isolation:auto;mix-blend-mode:normal;shape-margin:0;shape-padding:0;text-decoration-color:#000000;text-decoration-line:none;text-decoration-style:solid;text-indent:0;text-orientation:mixed;text-transform:none;white-space:normal"/></g></svg>
