<?xml version="1.0" encoding="UTF-8"?>
<svg width="21" height="21.00004" version="1.1" viewBox="0 0 5.55625 5.55626" xmlns="http://www.w3.org/2000/svg" xmlns:xlink="http://www.w3.org/1999/xlink"><defs><linearGradient id="linearGradient393-6" x1="-76.97428" x2="-73.13896" y1="106.8402" y2="110.6756" gradientTransform="matrix(1.02439 0 0 1.02439 79.6654 -108.6324)" gradientUnits="userSpaceOnUse"><stop stop-color="#ffd74c" offset="0"/><stop stop-color="#feb83e" offset="1"/></linearGradient></defs><path d="m5.55625 2.77813a2.778125 2.778125 0 0 1-2.77813 2.77813 2.778125 2.778125 0 0 1-2.77812-2.77813 2.778125 2.778125 0 0 1 2.77812-2.77813 2.778125 2.778125 0 0 1 2.77813 2.77813z" fill="url(#linearGradient393-6)" style="paint-order:normal"/><path d="m3.01684 2.17387a0.8095182 0.8095182 0 0 0 0.80952 0.80952 0.8095182 0.8095182 0 0 0 0.80952-0.80952 0.8095182 0.8095182 0 0 0-0.80952-0.80951 0.8095182 0.8095182 0 0 0-0.80952 0.80951z" fill="#fff" stroke="#433410" stroke-width=".205787"/><path d="m3.57375 2.17388a0.2526108 0.2526108 0 0 0 0.25261 0.25261 0.2526108 0.2526108 0 0 0 0.25261-0.25261 0.2526108 0.2526108 0 0 0-0.25261-0.25261 0.2526108 0.2526108 0 0 0-0.25261 0.25261z" fill="#433410"/><path d="m0.92036 2.17387a1.048237 1.048237 0 0 0 1.04823 1.04825 1.048237 1.048237 0 0 0 1.04825-1.04825 1.048237 1.048237 0 0 0-1.04825-1.04823 1.048237 1.048237 0 0 0-1.04823 1.04823z" fill="#fff" stroke="#433410" stroke-width=".205787"/><path d="m1.62413 2.17389a0.3444647 0.3444647 0 0 0 0.34446 0.34446 0.3444647 0.3444647 0 0 0 0.34447-0.34446 0.3444647 0.3444647 0 0 0-0.34447-0.34447 0.3444647 0.3444647 0 0 0-0.34446 0.34447z" fill="#433410"/><path d="m1.95754 4.06743s0.34392-0.44068 1.0593-0.0983c0.71538 0.34237 1.0593-0.0983 1.0593-0.0983" fill="none" stop-color="#000000" stroke="#433410" stroke-width=".205787" style="font-variation-settings:normal"/></svg>
