<?xml version="1.0" encoding="UTF-8"?>
<svg width="5.556247mm" height="5.556257mm" version="1.1" viewBox="0 0 5.556247 5.556257" xmlns="http://www.w3.org/2000/svg" xmlns:cc="http://creativecommons.org/ns#" xmlns:dc="http://purl.org/dc/elements/1.1/" xmlns:rdf="http://www.w3.org/1999/02/22-rdf-syntax-ns#" xmlns:xlink="http://www.w3.org/1999/xlink"><title>MyBB Vector Smiley - Yawn</title><defs><linearGradient id="linearGradient407" x1="-76.97428" x2="-73.13896" y1="106.8402" y2="110.6756" gradientTransform="matrix(.9878046 0 0 .9878046 76.91939 -104.6534)" gradientUnits="userSpaceOnUse"><stop stop-color="#fee03f" offset="0"/><stop stop-color="#feb434" offset="1"/></linearGradient></defs><metadata><rdf:RDF><cc:Work rdf:about=""><dc:format>image/svg+xml</dc:format><dc:type rdf:resource="http://purl.org/dc/dcmitype/StillImage"/><dc:title>MyBB Vector Smiley - Yawn</dc:title><dc:date>2025-07-13</dc:date><dc:creator><cc:Agent><dc:title>Paul Verbitsky</dc:title></cc:Agent></dc:creator><dc:rights><cc:Agent><dc:title>Distributed under GNU Lesser General Public License v3.0</dc:title></cc:Agent></dc:rights><cc:license rdf:resource="https://www.gnu.org/licenses/lgpl-3.0.html"/></cc:Work></rdf:RDF></metadata><path d="m5.457028 2.778128a2.678905 2.678905 0 0 1-2.67891 2.67891 2.678905 2.678905 0 0 1-2.6789-2.67891 2.678905 2.678905 0 0 1 2.6789-2.67891 2.678905 2.678905 0 0 1 2.67891 2.67891z" fill="url(#linearGradient407)" stroke="#000" stroke-linecap="round" stroke-linejoin="round" stroke-width=".198437" style="paint-order:normal"/><path d="m3.790448 3.404378a1.012312 1.279126 0 0 1-1.01233 1.27915 1.012312 1.279126 0 0 1-1.01231-1.27915 1.012312 1.279126 0 0 1 1.01231-1.27911 1.012312 1.279126 0 0 1 1.01233 1.27911z" style="paint-order:stroke fill markers"/><path d="m2.767328 4.683528c-0.3993-5e-3 -0.75874-0.30709-0.91766-0.76999 0 0 0.2688-0.4331 0.92832-0.4331s0.92832 0.4331 0.92832 0.4331c-0.16048 0.46735-0.52514 0.76982-0.92832 0.76999-3e-3 2e-5 -7e-3 2e-5 -0.0103 0z" fill="#e5595a" style="paint-order:stroke fill markers"/><g fill="none" stroke="#000" stroke-width=".198437"><path d="m3.790448 3.404378a1.012312 1.279126 0 0 1-1.01233 1.27915 1.012312 1.279126 0 0 1-1.01231-1.27915 1.012312 1.279126 0 0 1 1.01231-1.27911 1.012312 1.279126 0 0 1 1.01233 1.27911z" style="paint-order:stroke fill markers"/><path d="m1.362328 1.617908s0.11398-0.2512 0.46399-0.37572c0.35003-0.12455 0.60167-3e-3 0.60167-3e-3" stop-color="#000000" stroke-linecap="round" stroke-linejoin="round" style="font-variation-settings:normal"/><path d="m4.193918 1.617908s-0.11398-0.2512-0.46399-0.37572c-0.35003-0.12455-0.60168-3e-3 -0.60168-3e-3" stop-color="#000000" stroke-linecap="round" stroke-linejoin="round" style="font-variation-settings:normal"/></g></svg>
