<?xml version="1.0" encoding="UTF-8" standalone="no"?>
<svg
   xmlns:dc="http://purl.org/dc/elements/1.1/"
   xmlns:cc="http://creativecommons.org/ns#"
   xmlns:rdf="http://www.w3.org/1999/02/22-rdf-syntax-ns#"
   xmlns:svg="http://www.w3.org/2000/svg"
   xmlns="http://www.w3.org/2000/svg"
   xmlns:xlink="http://www.w3.org/1999/xlink"
   xmlns:sodipodi="http://sodipodi.sourceforge.net/DTD/sodipodi-0.dtd"
   xmlns:inkscape="http://www.inkscape.org/namespaces/inkscape"
   width="5.5562472mm"
   height="5.5562568mm"
   viewBox="0 0 5.5562472 5.5562568"
   version="1.1"
   id="svg741"
   inkscape:version="1.0 (4035a4fb49, 2020-05-01)"
   sodipodi:docname="yawn.svg">
  <title
     id="title16">MyBB Vector Smiley - Yawn</title>
  <defs
     id="defs735">
    <linearGradient
       inkscape:collect="always"
       xlink:href="#linearGradient359"
       id="linearGradient407"
       gradientUnits="userSpaceOnUse"
       gradientTransform="matrix(0.98780458,0,0,0.98780458,76.919389,-104.65343)"
       x1="-76.974281"
       y1="106.84025"
       x2="-73.138962"
       y2="110.67557" />
    <linearGradient
       id="linearGradient359"
       inkscape:collect="always">
      <stop
         id="stop355"
         offset="0"
         style="stop-color:#fee03f;stop-opacity:1" />
      <stop
         id="stop357"
         offset="1"
         style="stop-color:#feb434;stop-opacity:1" />
    </linearGradient>
  </defs>
  <sodipodi:namedview
     id="base"
     pagecolor="#ffffff"
     bordercolor="#666666"
     borderopacity="1.0"
     inkscape:pageopacity="0.0"
     inkscape:pageshadow="2"
     inkscape:zoom="28.809489"
     inkscape:cx="10.499995"
     inkscape:cy="10.500013"
     inkscape:document-units="px"
     inkscape:current-layer="svg741"
     inkscape:document-rotation="0"
     showgrid="false"
     fit-margin-top="0"
     fit-margin-left="0"
     fit-margin-right="0"
     fit-margin-bottom="0"
     inkscape:window-width="1600"
     inkscape:window-height="837"
     inkscape:window-x="-8"
     inkscape:window-y="-8"
     inkscape:window-maximized="1" />
  <metadata
     id="metadata738">
    <rdf:RDF>
      <cc:Work
         rdf:about="">
        <dc:format>image/svg+xml</dc:format>
        <dc:type
           rdf:resource="http://purl.org/dc/dcmitype/StillImage" />
        <dc:title>MyBB Vector Smiley - Yawn</dc:title>
        <dc:date>2025-07-13</dc:date>
        <dc:creator>
          <cc:Agent>
            <dc:title>Paul Verbitsky</dc:title>
          </cc:Agent>
        </dc:creator>
        <dc:rights>
          <cc:Agent>
            <dc:title>Distributed under GNU Lesser General Public License v3.0</dc:title>
          </cc:Agent>
        </dc:rights>
        <cc:license
           rdf:resource="https://www.gnu.org/licenses/lgpl-3.0.html" />
      </cc:Work>
    </rdf:RDF>
  </metadata>
  <path
     d="m 5.4570285,2.7781285 a 2.6789053,2.6789053 0 0 1 -2.67891,2.67891 2.6789053,2.6789053 0 0 1 -2.6789,-2.67891 2.6789053,2.6789053 0 0 1 2.6789,-2.67891 2.6789053,2.6789053 0 0 1 2.67891,2.67891 z"
     style="fill:url(#linearGradient407);fill-opacity:1;stroke:#000000;stroke-width:0.198437;stroke-linecap:round;stroke-linejoin:round;stroke-miterlimit:4;stroke-dasharray:none;paint-order:normal"
     id="path383" />
  <path
     d="m 3.7904485,3.4043785 a 1.012312,1.2791256 0 0 1 -1.01233,1.27915 1.012312,1.2791256 0 0 1 -1.01231,-1.27915 1.012312,1.2791256 0 0 1 1.01231,-1.27911 1.012312,1.2791256 0 0 1 1.01233,1.27911 z"
     style="fill:#000000;stroke:none;stroke-width:0.198437;paint-order:stroke fill markers"
     id="path393" />
  <path
     sodipodi:nodetypes="sczccss"
     style="fill:#e5595a;stroke:none;stroke-width:0.198437;paint-order:stroke fill markers"
     d="m 2.7673285,4.6835285 c -0.3993,-0.005 -0.75874,-0.30709 -0.91766,-0.76999 0,0 0.2688,-0.4331 0.92832,-0.4331 0.65952,0 0.92832,0.4331 0.92832,0.4331 -0.16048,0.46735 -0.52514,0.76982 -0.92832,0.76999 -0.003,2e-5 -0.007,2e-5 -0.0103,0 z"
     id="path395" />
  <path
     id="path397"
     style="fill:none;stroke:#000000;stroke-width:0.198437;paint-order:stroke fill markers"
     d="m 3.7904485,3.4043785 a 1.012312,1.2791256 0 0 1 -1.01233,1.27915 1.012312,1.2791256 0 0 1 -1.01231,-1.27915 1.012312,1.2791256 0 0 1 1.01231,-1.27911 1.012312,1.2791256 0 0 1 1.01233,1.27911 z" />
  <path
     style="font-variation-settings:normal;vector-effect:none;fill:none;fill-opacity:1;stroke:#000000;stroke-width:0.198437;stroke-linecap:round;stroke-linejoin:round;stroke-miterlimit:4;stroke-dasharray:none;stroke-dashoffset:0;stroke-opacity:1;stop-color:#000000"
     d="m 1.3623285,1.6179085 c 0,0 0.11398,-0.2512 0.46399,-0.37572 0.35003,-0.12455 0.60167,-0.003 0.60167,-0.003"
     id="path417"
     sodipodi:nodetypes="czc" />
  <path
     sodipodi:nodetypes="czc"
     id="path429"
     d="m 4.1939185,1.6179085 c 0,0 -0.11398,-0.2512 -0.46399,-0.37572 -0.35003,-0.12455 -0.60168,-0.003 -0.60168,-0.003"
     style="font-variation-settings:normal;vector-effect:none;fill:none;fill-opacity:1;stroke:#000000;stroke-width:0.198437;stroke-linecap:round;stroke-linejoin:round;stroke-miterlimit:4;stroke-dasharray:none;stroke-dashoffset:0;stroke-opacity:1;stop-color:#000000" />
</svg>
