<?xml version="1.0" encoding="UTF-8"?>
<svg width="21" height="21.00004" version="1.1" viewBox="0 0 5.55625 5.55626" xmlns="http://www.w3.org/2000/svg" xmlns:cc="http://creativecommons.org/ns#" xmlns:dc="http://purl.org/dc/elements/1.1/" xmlns:rdf="http://www.w3.org/1999/02/22-rdf-syntax-ns#" xmlns:xlink="http://www.w3.org/1999/xlink"><title>MyBB Vector Smiley - Yawn</title><defs><linearGradient id="linearGradient407" x1="-76.97428" x2="-73.13896" y1="106.8402" y2="110.6756" gradientTransform="matrix(1.02439 0 0 1.02439 79.6654 -108.6324)" gradientUnits="userSpaceOnUse"><stop stop-color="#fee03f" offset="0"/><stop stop-color="#feb434" offset="1"/></linearGradient></defs><metadata><rdf:RDF><cc:Work rdf:about=""><dc:format>image/svg+xml</dc:format><dc:type rdf:resource="http://purl.org/dc/dcmitype/StillImage"/><dc:title>MyBB Vector Smiley - Yawn</dc:title><dc:date>2025-07-13</dc:date><dc:creator><cc:Agent><dc:title>Paul Verbitsky</dc:title></cc:Agent></dc:creator><dc:rights><cc:Agent><dc:title>Distributed under GNU Lesser General Public License v3.0</dc:title></cc:Agent></dc:rights><cc:license rdf:resource="https://www.gnu.org/licenses/lgpl-3.0.html"/></cc:Work></rdf:RDF></metadata><path d="m5.55625 2.77813a2.778125 2.778125 0 0 1-2.77813 2.77813 2.778125 2.778125 0 0 1-2.77812-2.77813 2.778125 2.778125 0 0 1 2.77812-2.77813 2.778125 2.778125 0 0 1 2.77813 2.77813z" fill="url(#linearGradient407)" style="paint-order:normal"/><path d="m3.827944 3.42757a1.049806 1.326501 0 0 1-1.049824 1.32653 1.049806 1.326501 0 0 1-1.049804-1.32653 1.049806 1.326501 0 0 1 1.049804-1.32648 1.049806 1.326501 0 0 1 1.049824 1.32648z" fill="#292f33" style="paint-order:stroke fill markers"/><path d="m2.76693 4.75402c-0.414089-5e-3 -0.786842-0.31847-0.951648-0.79851 0 0 0.278756-0.44914 0.962703-0.44914s0.962703 0.44914 0.962703 0.44914c-0.166424 0.48466-0.54459 0.79833-0.962703 0.79851-0.0031 2e-5 -0.0073 2e-5 -0.01068 0z" fill="#e5595a" style="paint-order:stroke fill markers"/><g fill="none" stroke="#292f33" stroke-width=".205787"><path d="m3.827944 3.42757a1.049806 1.326501 0 0 1-1.049824 1.32653 1.049806 1.326501 0 0 1-1.049804-1.32653 1.049806 1.326501 0 0 1 1.049804-1.32648 1.049806 1.326501 0 0 1 1.049824 1.32648z" style="paint-order:stroke fill markers"/><path d="m1.309893 1.57494s0.118201-0.26051 0.481175-0.38964c0.362994-0.12916 0.623954-3e-3 0.623954-3e-3" stop-color="#000000" stroke-linecap="round" stroke-linejoin="round" style="font-variation-settings:normal"/><path d="m4.246358 1.57494s-0.118202-0.26051-0.481175-0.38964c-0.362995-0.12916-0.623965-3e-3 -0.623965-3e-3" stop-color="#000000" stroke-linecap="round" stroke-linejoin="round" style="font-variation-settings:normal"/></g></svg>
