<?xml version="1.0" encoding="UTF-8"?>
<svg width="21" height="21.00004" version="1.1" viewBox="0 0 5.55625 5.55626" xmlns="http://www.w3.org/2000/svg" xmlns:cc="http://creativecommons.org/ns#" xmlns:dc="http://purl.org/dc/elements/1.1/" xmlns:rdf="http://www.w3.org/1999/02/22-rdf-syntax-ns#" xmlns:xlink="http://www.w3.org/1999/xlink"><title>MyBB Vector Smiley - ZZZ</title><defs><linearGradient id="linearGradient469" x1="-76.97428" x2="-73.13896" y1="106.8402" y2="110.6756" gradientTransform="matrix(1.02439 0 0 1.02439 79.6654 -108.6324)" gradientUnits="userSpaceOnUse"><stop stop-color="#fee03f" offset="0"/><stop stop-color="#feb434" offset="1"/></linearGradient></defs><metadata><rdf:RDF><cc:Work rdf:about=""><dc:format>image/svg+xml</dc:format><dc:type rdf:resource="http://purl.org/dc/dcmitype/StillImage"/><dc:title>MyBB Vector Smiley - ZZZ</dc:title><dc:date>2025-07-13</dc:date><dc:creator><cc:Agent><dc:title>Paul Verbitsky</dc:title></cc:Agent></dc:creator><dc:rights><cc:Agent><dc:title>Distributed under GNU Lesser General Public License v3.0</dc:title></cc:Agent></dc:rights><cc:license rdf:resource="https://www.gnu.org/licenses/lgpl-3.0.html"/></cc:Work></rdf:RDF></metadata><path d="m5.55625 2.77813a2.778125 2.778125 0 0 1-2.77813 2.77813 2.778125 2.778125 0 0 1-2.77812-2.77813 2.778125 2.778125 0 0 1 2.77812-2.77813 2.778125 2.778125 0 0 1 2.77813 2.77813z" fill="url(#linearGradient469)" style="paint-order:normal"/><path d="m1.26708 2.45728s0.1986 0.29156 0.58386 0.29178c0.38529 2.6e-4 0.58899-0.29165 0.58899-0.29165" fill="none" stop-color="#000000" stroke="#292f33" stroke-linecap="round" stroke-linejoin="round" stroke-width=".205787" style="font-variation-settings:normal"/><path d="m4.28918 2.45729s-0.1986 0.29154-0.58386 0.29176c-0.38529 2.7e-4 -0.589-0.29164-0.589-0.29164" fill="none" stop-color="#000000" stroke="#292f33" stroke-linecap="round" stroke-linejoin="round" stroke-width=".205787" style="font-variation-settings:normal"/><path d="m3.32882 3.9747a0.5506916 0.6173599 0 0 1-0.55069 0.61736 0.5506916 0.6173599 0 0 1-0.55069-0.61736 0.5506916 0.6173599 0 0 1 0.55069-0.61735 0.5506916 0.6173599 0 0 1 0.55069 0.61735z" fill="#292f33"/><g fill="none" stroke-linecap="round" stroke-linejoin="round"><path d="m4.0524 0.5325883h0.82159l-0.82159 1.02609h0.82159" stop-color="#000000" stroke="#f19020" stroke-width=".309978" style="font-variation-settings:normal"/><path d="m4.13472 0.45125h0.82158l-0.82158 1.02609h0.82158" stop-color="#000000" stroke="#3771c8" stroke-width=".309978" style="font-variation-settings:normal"/><path d="m2.10442 0.6635983h0.52829l-0.52829 0.65979h0.52829" stop-color="#000000" stroke="#f19020" stroke-width=".19932" style="font-variation-settings:normal"/><path d="m2.18673 0.58226h0.52829l-0.52829 0.65979h0.52829" stop-color="#000000" stroke="#3771c8" stroke-width=".19932" style="font-variation-settings:normal"/><path d="m2.99981 0.1974583h0.61555l-0.61555 0.76875h0.61555" stop-color="#000000" stroke="#f19020" stroke-width=".23224" style="font-variation-settings:normal"/><path d="m3.08213 0.11612h0.61554l-0.61554 0.76875h0.61554" stop-color="#000000" stroke="#3771c8" stroke-width=".23224" style="font-variation-settings:normal"/></g></svg>
