<?xml version="1.0" encoding="UTF-8"?>
<svg width="36.14097" height="24.33789" version="1.1" viewBox="0 0 9.562298 6.4394" xmlns="http://www.w3.org/2000/svg" xmlns:xlink="http://www.w3.org/1999/xlink"><defs><linearGradient id="linearGradient530" x1="-41.77163" x2="-39.97806" y1="107.6606" y2="110.2571" gradientTransform="matrix(-1.037043 0 0 1.037043 -34.31068 -109.4977)" gradientUnits="userSpaceOnUse" xlink:href="#linearGradient488"/><linearGradient id="linearGradient488"><stop stop-color="#80b3ff" offset="0"/><stop stop-color="#dbe7ff" offset="1"/></linearGradient><linearGradient id="linearGradient532" x1="-41.77163" x2="-39.97805" y1="107.6606" y2="110.2571" gradientTransform="matrix(1.037043 0 0 1.037043 43.87297 -109.4977)" gradientUnits="userSpaceOnUse" xlink:href="#linearGradient488"/><linearGradient id="linearGradient534" x1="-76.97428" x2="-73.13896" y1="106.8402" y2="110.6756" gradientTransform="matrix(1.024396 0 0 1.024396 81.66881 -107.7499)" gradientUnits="userSpaceOnUse"><stop stop-color="#ffd74c" offset="0"/><stop stop-color="#feb83e" offset="1"/></linearGradient></defs><path d="m6.9895 1.39398a2.208345 1.194197 0 0 1-2.20835 1.19418 2.208345 1.194197 0 0 1-2.20834-1.19418 2.208345 1.194197 0 0 1 2.20834-1.1942 2.208345 1.194197 0 0 1 2.20835 1.1942" fill="none" stroke="#80b3ff" stroke-linecap="round" stroke-linejoin="round" stroke-width=".39952"/><path d="m7.18935 1.39393a2.408204 1.393932 0 0 1-2.40821 1.39396 2.408204 1.393932 0 0 1-2.40821-1.39396 2.408204 1.393932 0 0 1 2.40821-1.39393 2.408204 1.393932 0 0 1 2.40821 1.39393z" fill="none"/><g><path d="m6.966 2.15089h2.042289c0.288241 0 0.554009 0.23166 0.554009 0.52063v1.40169c0 0.25838-0.152131 0.53641-0.448118 0.55402-0.229266 0.0136-0.380619-0.0551-0.638206-0.29536-0.386514-0.36057-0.534424 0.0751-0.760204 0.31691-0.22063 0.23633-0.55092 0.20311-0.56749 0.19482" fill="url(#linearGradient530)" stop-color="#000000" style="font-variation-settings:normal"/><path d="m2.5963 2.15089h-2.04229c-0.28824 0-0.55401 0.23166-0.55401 0.52063v1.40169c0 0.25838 0.15214 0.53641 0.44812 0.55402 0.22927 0.0136 0.38062-0.0551 0.63821-0.29536 0.38651-0.36057 0.53442 0.0751 0.7602 0.31691 0.22063 0.23633 0.55092 0.20311 0.56749 0.19482" fill="url(#linearGradient532)" stop-color="#000000" style="font-variation-settings:normal"/><path d="m7.55929 3.66125a2.778139 2.778139 0 0 1-2.77814 2.77815 2.778139 2.778139 0 0 1-2.77814-2.77815 2.778139 2.778139 0 0 1 2.77814-2.77814 2.778139 2.778139 0 0 1 2.77814 2.77814z" fill="url(#linearGradient534)" style="paint-order:normal"/></g><path d="m4.78116 2.68967a0.7062249 0.7062249 0 0 1-0.70623 0.70623 0.7062249 0.7062249 0 0 1-0.70623-0.70623 0.7062249 0.7062249 0 0 1 0.70623-0.70622 0.7062249 0.7062249 0 0 1 0.70623 0.70622z" fill="#fff" stroke="#433410" stroke-width=".205788"/><path d="m4.41939 2.32792a0.3444664 0.3444664 0 0 1-0.34446 0.34447 0.3444664 0.3444664 0 0 1-0.34446-0.34447 0.3444664 0.3444664 0 0 1 0.34446-0.34447 0.3444664 0.3444664 0 0 1 0.34446 0.34447z" fill="#433410"/><path d="m6.1936 2.68967a0.7062249 0.7062249 0 0 1-0.70622 0.70623 0.7062249 0.7062249 0 0 1-0.70622-0.70623 0.7062249 0.7062249 0 0 1 0.70622-0.70622 0.7062249 0.7062249 0 0 1 0.70622 0.70622z" fill="#fff" stroke="#433410" stroke-width=".205788"/><path d="m5.83185 2.32792a0.3444664 0.3444664 0 0 1-0.34448 0.34447 0.3444664 0.3444664 0 0 1-0.34446-0.34447 0.3444664 0.3444664 0 0 1 0.34446-0.34447 0.3444664 0.3444664 0 0 1 0.34448 0.34447z" fill="#433410"/><path d="m3.84918 4.11823c0 0.12369 0.0808 0.50204 0.77811 0.47753" fill="none" stop-color="#000000" stroke="#433410" stroke-width=".205788" style="font-variation-settings:normal"/></svg>
