<?xml version="1.0" encoding="UTF-8"?>
<svg width="9.41934mm" height="6.407941mm" version="1.1" viewBox="0 0 9.41934 6.407941" xmlns="http://www.w3.org/2000/svg" xmlns:cc="http://creativecommons.org/ns#" xmlns:dc="http://purl.org/dc/elements/1.1/" xmlns:rdf="http://www.w3.org/1999/02/22-rdf-syntax-ns#" xmlns:xlink="http://www.w3.org/1999/xlink"><title>MyBB Vector Smiley - Angel</title><defs><filter id="filter972" x="-.0136411" y="-.02356662" width="1.027282" height="1.047133" color-interpolation-filters="sRGB"><feGaussianBlur stdDeviation="0.026397016"/></filter><linearGradient id="linearGradient132-0" x1="-41.77163" x2="-40.97352" y1="107.6606" y2="109.2568" gradientTransform="matrix(-1.000018 0 0 1.000018 -32.9865 -105.4892)" gradientUnits="userSpaceOnUse" xlink:href="#linearGradient144"/><linearGradient id="linearGradient144"><stop stop-color="#caddfc" offset="0"/><stop stop-color="#fff" offset="1"/></linearGradient><linearGradient id="linearGradient146-7" x1="-41.77163" x2="-40.97352" y1="107.6606" y2="109.2568" gradientTransform="matrix(1.000018 0 0 1.000018 42.40584 -105.4892)" gradientUnits="userSpaceOnUse" xlink:href="#linearGradient144"/><linearGradient id="linearGradient162-7" x1="-76.97428" x2="-73.13896" y1="106.8402" y2="110.6756" gradientTransform="matrix(.9878225 0 0 .9878225 78.8523 -103.8037)" gradientUnits="userSpaceOnUse"><stop stop-color="#fee03f" offset="0"/><stop stop-color="#feb434" offset="1"/></linearGradient></defs><metadata><rdf:RDF><cc:Work rdf:about=""><dc:format>image/svg+xml</dc:format><dc:type rdf:resource="http://purl.org/dc/dcmitype/StillImage"/><dc:title>MyBB Vector Smiley - Angel</dc:title><dc:date>2025-07-13</dc:date><dc:creator><cc:Agent><dc:title>Paul Verbitsky</dc:title></cc:Agent></dc:creator><dc:rights><cc:Agent><dc:title>Distributed under GNU Lesser General Public License v3.0</dc:title></cc:Agent></dc:rights><cc:license rdf:resource="https://www.gnu.org/licenses/lgpl-3.0.html"/></cc:Work></rdf:RDF></metadata><path transform="matrix(1.000018 0 0 1.000018 108.0469 -107.4078)" d="m-103.3806 107.5052a2.322184 1.344142 0 0 0-2.277 1.34382 2.322184 1.344142 0 0 0 2.32241 1.34436 2.322184 1.344142 0 0 0 2.32185-1.34436 2.322184 1.344142 0 0 0-2.32185-1.34382 2.322184 1.344142 0 0 0-0.0454 0zm0.0438 0.38583h5.6e-4a0.3837441 0.3844167 0 0 0 2e-3 0c0.54939 2e-5 1.09527 0.13486 1.44979 0.33978 0.35452 0.20493 0.48757 0.44008 0.48801 0.61765 4e-5 0.17776-0.1335 0.41187-0.48801 0.61711-0.35451 0.20523-0.89986 0.34142-1.44979 0.34143-0.55025 2.9e-4 -1.09652-0.13615-1.45144-0.34143-0.35491-0.20529-0.48804-0.43926-0.488-0.61711 5.6e-4 -0.17758 0.13348-0.41272 0.488-0.61765 0.3544-0.20485 0.90004-0.33968 1.44925-0.33978z" fill="#ffd42a" filter="url(#filter972)"/><path d="m7.0319 1.44339a2.322226 1.344166 0 0 1-2.32223 1.34419 2.322226 1.344166 0 0 1-2.32223-1.34419 2.322226 1.344166 0 0 1 2.32223-1.34417 2.322226 1.344166 0 0 1 2.32223 1.34417z" fill="none" stroke="#000" stroke-width=".198441"/><g stroke="#000" stroke-linecap="round" stroke-linejoin="round" stroke-width=".198441"><path d="m6.81653 2.17332h1.969362c0.277957 0 0.534227 0.22339 0.534227 0.50205v1.35165c0 0.24916-0.146693 0.51726-0.432119 0.53423-0.221079 0.0131-0.367028-0.0531-0.615415-0.28481-0.372705-0.3477-0.515345 0.0724-0.733055 0.30559-0.21276 0.22789-0.53125 0.19586-0.54723 0.18787" fill="url(#linearGradient132-0)" stop-color="#000000" style="font-variation-settings:normal"/><path d="m2.60282 2.17332h-1.96937c-0.27795 0-0.53423 0.22339-0.53423 0.50205v1.35165c0 0.24916 0.1467 0.51726 0.43212 0.53423 0.22108 0.0131 0.36703-0.0531 0.61542-0.28481 0.37271-0.3477 0.51534 0.0724 0.73306 0.30559 0.21275 0.22789 0.53125 0.19586 0.54723 0.18787" fill="url(#linearGradient146-7)" stop-color="#000000" style="font-variation-settings:normal"/><path d="m7.38863 3.62976a2.678954 2.678954 0 0 1-2.67895 2.67896 2.678954 2.678954 0 0 1-2.67896-2.67896 2.678954 2.678954 0 0 1 2.67896-2.67895 2.678954 2.678954 0 0 1 2.67895 2.67895z" fill="url(#linearGradient162-7)" style="paint-order:normal"/></g><path d="m4.70968 2.77224a0.6810113 0.6810113 0 0 1-0.68102 0.68101 0.6810113 0.6810113 0 0 1-0.68101-0.68101 0.6810113 0.6810113 0 0 1 0.68101-0.68101 0.6810113 0.6810113 0 0 1 0.68102 0.68101z" fill="#fff" stroke="#000" stroke-width=".198441"/><path d="m4.36083 2.4234a0.3321683 0.3321683 0 0 1-0.33217 0.33217 0.3321683 0.3321683 0 0 1-0.33216-0.33217 0.3321683 0.3321683 0 0 1 0.33216-0.33217 0.3321683 0.3321683 0 0 1 0.33217 0.33217z"/><path d="m6.07169 2.77224a0.6810113 0.6810113 0 0 1-0.681 0.68101 0.6810113 0.6810113 0 0 1-0.68101-0.68101 0.6810113 0.6810113 0 0 1 0.68101-0.68101 0.6810113 0.6810113 0 0 1 0.681 0.68101z" fill="#fff" stroke="#000" stroke-width=".198441"/><path d="m5.72287 2.4234a0.3321683 0.3321683 0 0 1-0.33218 0.33217 0.3321683 0.3321683 0 0 1-0.33217-0.33217 0.3321683 0.3321683 0 0 1 0.33217-0.33217 0.3321683 0.3321683 0 0 1 0.33218 0.33217z"/><path d="m3.81098 4.14979c0 0.11927 0.0779 0.48412 0.75033 0.46049" fill="none" stop-color="#000000" stroke="#000" stroke-width=".198441" style="font-variation-settings:normal"/></svg>
