<?xml version="1.0" encoding="UTF-8"?>
<svg width="21" height="21" version="1.1" viewBox="0 0 5.55625 5.55625" xmlns="http://www.w3.org/2000/svg" xmlns:cc="http://creativecommons.org/ns#" xmlns:dc="http://purl.org/dc/elements/1.1/" xmlns:rdf="http://www.w3.org/1999/02/22-rdf-syntax-ns#" xmlns:xlink="http://www.w3.org/1999/xlink"><title>MyBB Vector Smiley - Angry</title><defs><linearGradient id="linearGradient407-8" x1="-75.05662" x2="-75.05662" y1="106.0459" y2="110.5928" gradientTransform="matrix(1.024388 0 0 1.024388 79.66526 -108.6322)" gradientUnits="userSpaceOnUse"><stop stop-color="#eca549" offset="0"/><stop stop-color="#f05b44" offset="1"/></linearGradient></defs><metadata><rdf:RDF><cc:Work rdf:about=""><dc:format>image/svg+xml</dc:format><dc:type rdf:resource="http://purl.org/dc/dcmitype/StillImage"/><dc:title>MyBB Vector Smiley - Angry</dc:title><dc:date>2025-07-13</dc:date><dc:creator><cc:Agent><dc:title>Paul Verbitsky</dc:title></cc:Agent></dc:creator><dc:rights><cc:Agent><dc:title>Distributed under GNU Lesser General Public License v3.0</dc:title></cc:Agent></dc:rights><cc:license rdf:resource="https://www.gnu.org/licenses/lgpl-3.0.html"/></cc:Work></rdf:RDF></metadata><path d="m5.55625 2.77813a2.77812 2.77812 0 0 1-2.77813 2.77812 2.77812 2.77812 0 0 1-2.77812-2.77812 2.77812 2.77812 0 0 1 2.77812-2.77813 2.77812 2.77812 0 0 1 2.77813 2.77813z" fill="url(#linearGradient407-8)" style="paint-order:normal"/><g fill="none" stroke="#460e07"><path d="m3.67894 1.0501-0.90081 0.90083-0.90082-0.90083" stroke-linecap="round" stroke-linejoin="round" stroke-width=".205786"/><g><path d="m1.87731 1.8618v0.43934" stop-color="#000000" stroke-linecap="round" stroke-linejoin="round" stroke-width=".274382" style="font-variation-settings:normal"/><path d="m3.67894 1.8618v0.43934" stop-color="#000000" stroke-linecap="round" stroke-linejoin="round" stroke-width=".274382" style="font-variation-settings:normal"/><path d="m1.63323 3.99037s0.0865-0.46111 1.14489-0.46111c1.05844 0 1.1449 0.46111 1.1449 0.46111" stop-color="#000000" stroke-width=".205786" style="font-variation-settings:normal"/></g></g></svg>
