<?xml version="1.0" encoding="UTF-8"?>
<svg width="21" height="21" version="1.1" viewBox="0 0 5.55625 5.55625" xmlns="http://www.w3.org/2000/svg" xmlns:xlink="http://www.w3.org/1999/xlink"><defs><linearGradient id="linearGradient156" x1="-76.97428" x2="-73.13896" y1="106.8402" y2="110.6756" gradientTransform="matrix(1.024388 0 0 1.024388 79.66527 -108.6322)" gradientUnits="userSpaceOnUse"><stop stop-color="#ffd74c" offset="0"/><stop stop-color="#feb83e" offset="1"/></linearGradient></defs><path d="m5.55625 2.77813a2.77812 2.77812 0 0 1-2.77813 2.77812 2.77812 2.77812 0 0 1-2.77812-2.77812 2.77812 2.77812 0 0 1 2.77812-2.77813 2.77812 2.77812 0 0 1 2.77813 2.77813z" fill="url(#linearGradient156)" style="paint-order:normal"/><path d="m3.04858 3.27098h-0.0113q-0.13218 0.36068-0.47964 0.36068-0.26058 0-0.4211-0.18884-0.15861-0.18883-0.15861-0.52306 0-0.43244 0.22093-0.70246 0.22094-0.27192 0.53252-0.27192 0.28135 0 0.35311 0.22093h7e-3l0.0189-0.18695h0.42487q-0.0849 0.80443-0.0849 1.0518 0 0.26438 0.14352 0.26438 0.15106 0 0.24926-0.20017 0.0982-0.20016 0.0982-0.52306 0-0.44187-0.28136-0.72324-0.28137-0.28325-0.78555-0.28325-0.54006 0-0.89885 0.37767-0.35689 0.37577-0.35689 0.91772 0 0.52496 0.31535 0.82709 0.31724 0.30213 0.87429 0.30213 0.42488 0 0.778-0.16239v0.36067q-0.3229 0.13785-0.83087 0.13785-0.69679 0-1.13489-0.39844-0.43619-0.40032-0.43619-1.07445 0-0.68736 0.46641-1.15567 0.46642-0.4683 1.20097-0.4683 0.67981 0 1.09901 0.36444 0.4211 0.36256 0.4211 0.95738 0 0.48909-0.25681 0.78556-0.25681 0.29458-0.63637 0.29458-0.18694 0-0.30401-0.10007-0.11709-0.10008-0.12652-0.2606zm-0.25114-0.99704q-0.16995 0-0.27759 0.19451-0.10574 0.19261-0.10574 0.44752 0 0.18128 0.0718 0.28324 0.0736 0.10009 0.18883 0.10009 0.1775 0 0.27947-0.19072 0.10194-0.19072 0.10194-0.50985 0-0.15108-0.0718-0.23794-0.0699-0.0869-0.18695-0.0869z" fill="#433410"/></svg>
