<?xml version="1.0" encoding="UTF-8" standalone="no"?>
<svg
   xmlns:dc="http://purl.org/dc/elements/1.1/"
   xmlns:cc="http://creativecommons.org/ns#"
   xmlns:rdf="http://www.w3.org/1999/02/22-rdf-syntax-ns#"
   xmlns:svg="http://www.w3.org/2000/svg"
   xmlns="http://www.w3.org/2000/svg"
   xmlns:xlink="http://www.w3.org/1999/xlink"
   xmlns:sodipodi="http://sodipodi.sourceforge.net/DTD/sodipodi-0.dtd"
   xmlns:inkscape="http://www.inkscape.org/namespaces/inkscape"
   sodipodi:docname="at.svg"
   inkscape:version="1.0 (4035a4fb49, 2020-05-01)"
   id="svg652"
   version="1.1"
   viewBox="0 0 5.5562568 5.5562568"
   height="5.5562568mm"
   width="5.5562568mm">
  <title
     id="title12">MyBB Vector Smiley - At</title>
  <defs
     id="defs646">
    <linearGradient
       y2="110.67557"
       x2="-73.138962"
       y1="106.84025"
       x1="-76.974281"
       gradientTransform="matrix(0.98780458,0,0,0.98780458,76.919409,-104.65343)"
       gradientUnits="userSpaceOnUse"
       id="linearGradient156"
       xlink:href="#linearGradient81"
       inkscape:collect="always" />
    <linearGradient
       inkscape:collect="always"
       id="linearGradient81">
      <stop
         style="stop-color:#fee03f;stop-opacity:1"
         offset="0"
         id="stop77" />
      <stop
         style="stop-color:#feb434;stop-opacity:1"
         offset="1"
         id="stop79" />
    </linearGradient>
  </defs>
  <sodipodi:namedview
     inkscape:window-maximized="1"
     inkscape:window-y="-8"
     inkscape:window-x="-8"
     inkscape:window-height="837"
     inkscape:window-width="1600"
     showgrid="false"
     inkscape:document-rotation="0"
     inkscape:current-layer="svg652"
     inkscape:document-units="px"
     inkscape:cy="10.500013"
     inkscape:cx="10.500013"
     inkscape:zoom="28.809489"
     inkscape:pageshadow="2"
     inkscape:pageopacity="0.0"
     borderopacity="1.0"
     bordercolor="#666666"
     pagecolor="#ffffff"
     id="base"
     fit-margin-top="0"
     fit-margin-left="0"
     fit-margin-right="0"
     fit-margin-bottom="0" />
  <metadata
     id="metadata649">
    <rdf:RDF>
      <cc:Work
         rdf:about="">
        <dc:format>image/svg+xml</dc:format>
        <dc:type
           rdf:resource="http://purl.org/dc/dcmitype/StillImage" />
        <dc:title>MyBB Vector Smiley - At</dc:title>
        <dc:date>2025-07-13</dc:date>
        <dc:creator>
          <cc:Agent>
            <dc:title>Paul Verbitsky</dc:title>
          </cc:Agent>
        </dc:creator>
        <dc:rights>
          <cc:Agent>
            <dc:title>Distributed under GNU Lesser General Public License v3.0</dc:title>
          </cc:Agent>
        </dc:rights>
        <cc:license
           rdf:resource="https://www.gnu.org/licenses/lgpl-3.0.html" />
      </cc:Work>
    </rdf:RDF>
  </metadata>
  <path
     id="path154"
     style="fill:url(#linearGradient156);fill-opacity:1;stroke:#000000;stroke-width:0.198437;stroke-linecap:round;stroke-linejoin:round;stroke-miterlimit:4;stroke-dasharray:none;paint-order:normal"
     d="m 5.4570385,2.7781285 a 2.6789053,2.6789053 0 0 1 -2.67891,2.67891 2.6789053,2.6789053 0 0 1 -2.67891,-2.67891 2.6789053,2.6789053 0 0 1 2.67891,-2.67891 2.6789053,2.6789053 0 0 1 2.67891,2.67891 z" />
  <path
     id="path119"
     style="font-style:normal;font-variant:normal;font-weight:bold;font-stretch:normal;font-size:10.5833px;line-height:125%;font-family:Ebrima;-inkscape-font-specification:'Ebrima Bold';letter-spacing:0px;word-spacing:0px;fill:#000000;stroke:none;stroke-width:0.264583px;stroke-linecap:butt;stroke-linejoin:miter;stroke-opacity:1"
     d="m 3.0384985,3.2533785 h -0.0109 q -0.12746,0.3478 -0.46251,0.3478 -0.25128,0 -0.40606,-0.1821 -0.15295,-0.18208 -0.15295,-0.50438 0,-0.41699 0.21304,-0.67737 0.21305,-0.26221 0.5135,-0.26221 0.27131,0 0.3405,0.21304 h 0.007 l 0.0182,-0.18027 h 0.4097 q -0.0819,0.7757 -0.0819,1.01424 0,0.25493 0.13839,0.25493 0.14567,0 0.24036,-0.19302 0.0947,-0.19301 0.0947,-0.50438 0,-0.42609 -0.27131,-0.69741 -0.27132,-0.27313 -0.75749,-0.27313 -0.52078,0 -0.86675,0.36418 -0.34415,0.36235 -0.34415,0.88495 0,0.50621 0.30409,0.79755 0.30591,0.29134 0.84307,0.29134 0.4097,0 0.75021,-0.15659 v 0.34779 q -0.31137,0.13292 -0.80119,0.13292 -0.67191,0 -1.09436,-0.38421 -0.42062,-0.38602 -0.42062,-1.03608 0,-0.66281 0.44976,-1.11439 0.44976,-0.45158 1.15808,-0.45158 0.65553,0 1.05976,0.35143 0.40606,0.34961 0.40606,0.92319 0,0.47162 -0.24764,0.7575 -0.24764,0.28406 -0.61364,0.28406 -0.18027,0 -0.29316,-0.0965 -0.1129,-0.0965 -0.122,-0.25129 z m -0.24218,-0.96143 q -0.16388,0 -0.26767,0.18756 -0.10197,0.18573 -0.10197,0.43154 0,0.17481 0.0692,0.27314 0.071,0.0965 0.18209,0.0965 0.17116,0 0.26949,-0.18391 0.0983,-0.18391 0.0983,-0.49164 0,-0.14568 -0.0692,-0.22944 -0.0674,-0.0838 -0.18027,-0.0838 z" />
</svg>
