<?xml version="1.0" encoding="UTF-8"?>
<svg width="5.556257mm" height="5.556257mm" version="1.1" viewBox="0 0 5.556257 5.556257" xmlns="http://www.w3.org/2000/svg" xmlns:cc="http://creativecommons.org/ns#" xmlns:dc="http://purl.org/dc/elements/1.1/" xmlns:rdf="http://www.w3.org/1999/02/22-rdf-syntax-ns#" xmlns:xlink="http://www.w3.org/1999/xlink"><title>MyBB Vector Smiley - At</title><defs><linearGradient id="linearGradient156" x1="-76.97428" x2="-73.13896" y1="106.8402" y2="110.6756" gradientTransform="matrix(.9878046 0 0 .9878046 76.91941 -104.6534)" gradientUnits="userSpaceOnUse"><stop stop-color="#fee03f" offset="0"/><stop stop-color="#feb434" offset="1"/></linearGradient></defs><metadata><rdf:RDF><cc:Work rdf:about=""><dc:format>image/svg+xml</dc:format><dc:type rdf:resource="http://purl.org/dc/dcmitype/StillImage"/><dc:title>MyBB Vector Smiley - At</dc:title><dc:date>2025-07-13</dc:date><dc:creator><cc:Agent><dc:title>Paul Verbitsky</dc:title></cc:Agent></dc:creator><dc:rights><cc:Agent><dc:title>Distributed under GNU Lesser General Public License v3.0</dc:title></cc:Agent></dc:rights><cc:license rdf:resource="https://www.gnu.org/licenses/lgpl-3.0.html"/></cc:Work></rdf:RDF></metadata><path d="m5.457038 2.778128a2.678905 2.678905 0 0 1-2.67891 2.67891 2.678905 2.678905 0 0 1-2.67891-2.67891 2.678905 2.678905 0 0 1 2.67891-2.67891 2.678905 2.678905 0 0 1 2.67891 2.67891z" fill="url(#linearGradient156)" stroke="#000" stroke-linecap="round" stroke-linejoin="round" stroke-width=".198437" style="paint-order:normal"/><path d="m3.038498 3.253378h-0.0109q-0.12746 0.3478-0.46251 0.3478-0.25128 0-0.40606-0.1821-0.15295-0.18208-0.15295-0.50438 0-0.41699 0.21304-0.67737 0.21305-0.26221 0.5135-0.26221 0.27131 0 0.3405 0.21304h7e-3l0.0182-0.18027h0.4097q-0.0819 0.7757-0.0819 1.01424 0 0.25493 0.13839 0.25493 0.14567 0 0.24036-0.19302 0.0947-0.19301 0.0947-0.50438 0-0.42609-0.27131-0.69741-0.27132-0.27313-0.75749-0.27313-0.52078 0-0.86675 0.36418-0.34415 0.36235-0.34415 0.88495 0 0.50621 0.30409 0.79755 0.30591 0.29134 0.84307 0.29134 0.4097 0 0.75021-0.15659v0.34779q-0.31137 0.13292-0.80119 0.13292-0.67191 0-1.09436-0.38421-0.42062-0.38602-0.42062-1.03608 0-0.66281 0.44976-1.11439t1.15808-0.45158q0.65553 0 1.05976 0.35143 0.40606 0.34961 0.40606 0.92319 0 0.47162-0.24764 0.7575-0.24764 0.28406-0.61364 0.28406-0.18027 0-0.29316-0.0965-0.1129-0.0965-0.122-0.25129zm-0.24218-0.96143q-0.16388 0-0.26767 0.18756-0.10197 0.18573-0.10197 0.43154 0 0.17481 0.0692 0.27314 0.071 0.0965 0.18209 0.0965 0.17116 0 0.26949-0.18391 0.0983-0.18391 0.0983-0.49164 0-0.14568-0.0692-0.22944-0.0674-0.0838-0.18027-0.0838z"/></svg>
