<?xml version="1.0" encoding="UTF-8"?>
<svg width="21" height="21.00004" version="1.1" viewBox="0 0 5.55625 5.55626" xmlns="http://www.w3.org/2000/svg" xmlns:cc="http://creativecommons.org/ns#" xmlns:dc="http://purl.org/dc/elements/1.1/" xmlns:rdf="http://www.w3.org/1999/02/22-rdf-syntax-ns#" xmlns:xlink="http://www.w3.org/1999/xlink"><title>MyBB Vector Smiley - Biggrin</title><defs><linearGradient id="linearGradient83" x1="-76.97428" x2="-73.13896" y1="106.8402" y2="110.6756" gradientTransform="matrix(1.02439 0 0 1.02439 79.66542 -108.6324)" gradientUnits="userSpaceOnUse"><stop stop-color="#fee03f" offset="0"/><stop stop-color="#feb434" offset="1"/></linearGradient></defs><metadata><rdf:RDF><cc:Work rdf:about=""><dc:format>image/svg+xml</dc:format><dc:type rdf:resource="http://purl.org/dc/dcmitype/StillImage"/><dc:title>MyBB Vector Smiley - Biggrin</dc:title><dc:date>2025-07-13</dc:date><dc:creator><cc:Agent><dc:title>Paul Verbitsky</dc:title></cc:Agent></dc:creator><dc:rights><cc:Agent><dc:title>Distributed under GNU Lesser General Public License v3.0</dc:title></cc:Agent></dc:rights><cc:license rdf:resource="https://www.gnu.org/licenses/lgpl-3.0.html"/></cc:Work></rdf:RDF></metadata><path d="m5.55625 2.77813a2.778125 2.778125 0 0 1-2.77812 2.77813 2.778125 2.778125 0 0 1-2.77813-2.77813 2.778125 2.778125 0 0 1 2.77813-2.77813 2.778125 2.778125 0 0 1 2.77812 2.77813z" fill="url(#linearGradient83)" style="paint-order:normal"/><g stroke="#292f33" stroke-width=".205787"><path d="m3.29781 1.76903c0-0.22005 0.20165-0.39843 0.45041-0.39843 0.24874 0 0.45039 0.17838 0.45039 0.39843" fill="none" stroke-linecap="round" stroke-linejoin="round"/><path d="m1.35764 1.76903c0-0.22005 0.20165-0.39843 0.45041-0.39843 0.24874 0 0.45039 0.17838 0.45039 0.39843" fill="none" stroke-linecap="round" stroke-linejoin="round"/><g><path d="m4.45413 2.55723h-3.35201s-0.14213 2.04856 1.67601 2.04856 1.676-2.04856 1.676-2.04856z" fill="#fff" stop-color="#000000" style="font-variation-settings:normal"/><path d="m3.3368 2.61642v1.85334" fill="none" stop-color="#000000" stroke-linecap="round" stroke-linejoin="round" style="font-variation-settings:normal"/><path d="m2.21946 2.61642v1.85334" fill="none" stop-color="#000000" stroke-linecap="round" stroke-linejoin="round" style="font-variation-settings:normal"/></g></g></svg>
