<?xml version="1.0" encoding="UTF-8"?>
<svg width="5.556247mm" height="5.556257mm" version="1.1" viewBox="0 0 5.556247 5.556257" xmlns="http://www.w3.org/2000/svg" xmlns:cc="http://creativecommons.org/ns#" xmlns:dc="http://purl.org/dc/elements/1.1/" xmlns:rdf="http://www.w3.org/1999/02/22-rdf-syntax-ns#" xmlns:xlink="http://www.w3.org/1999/xlink"><title>MyBB Vector Smiley - Confused</title><defs><linearGradient id="linearGradient38" x1="-76.97428" x2="-73.13896" y1="106.8402" y2="110.6756" gradientTransform="matrix(.9878046 0 0 .9878046 76.9194 -104.6534)" gradientUnits="userSpaceOnUse"><stop stop-color="#fee03f" offset="0"/><stop stop-color="#feb434" offset="1"/></linearGradient></defs><metadata><rdf:RDF><cc:Work rdf:about=""><dc:format>image/svg+xml</dc:format><dc:type rdf:resource="http://purl.org/dc/dcmitype/StillImage"/><dc:title>MyBB Vector Smiley - Confused</dc:title><dc:date>2025-07-13</dc:date><dc:creator><cc:Agent><dc:title>Paul Verbitsky</dc:title></cc:Agent></dc:creator><dc:rights><cc:Agent><dc:title>Distributed under GNU Lesser General Public License v3.0</dc:title></cc:Agent></dc:rights><cc:license rdf:resource="https://www.gnu.org/licenses/lgpl-3.0.html"/></cc:Work></rdf:RDF></metadata><path d="m5.457028 2.778128a2.678905 2.678905 0 0 1-2.67891 2.67891 2.678905 2.678905 0 0 1-2.6789-2.67891 2.678905 2.678905 0 0 1 2.6789-2.67891 2.678905 2.678905 0 0 1 2.67891 2.67891z" fill="url(#linearGradient38)" stroke="#000" stroke-linecap="round" stroke-linejoin="round" stroke-width=".198437" style="paint-order:normal"/><path d="m2.778118 2.114098a0.6809989 0.6809989 0 0 1-0.68099 0.681 0.6809989 0.6809989 0 0 1-0.681-0.681 0.6809989 0.6809989 0 0 1 0.681-0.681 0.6809989 0.6809989 0 0 1 0.68099 0.681z" fill="#fff" stroke="#000" stroke-width=".198437"/><path d="m2.719648 2.365118a0.3321622 0.3321622 0 0 1-0.33216 0.33216 0.3321622 0.3321622 0 0 1-0.33216-0.33216 0.3321622 0.3321622 0 0 1 0.33216-0.33217 0.3321622 0.3321622 0 0 1 0.33216 0.33217z"/><path d="m4.140118 2.114098a0.6809989 0.6809989 0 0 1-0.681 0.681 0.6809989 0.6809989 0 0 1-0.681-0.681 0.6809989 0.6809989 0 0 1 0.681-0.681 0.6809989 0.6809989 0 0 1 0.681 0.681z" fill="#fff" stroke="#000" stroke-width=".198437"/><path d="m4.081648 2.365118a0.3321622 0.3321622 0 0 1-0.33216 0.33216 0.3321622 0.3321622 0 0 1-0.33217-0.33216 0.3321622 0.3321622 0 0 1 0.33217-0.33217 0.3321622 0.3321622 0 0 1 0.33216 0.33217z"/><path d="m1.685538 3.608508s0.25191 0.62023 1.09259 0.13229 1.09258 0.13229 1.09258 0.13229" fill="none" stop-color="#000000" stroke="#000" stroke-width=".198437" style="font-variation-settings:normal"/></svg>
