<?xml version="1.0" encoding="UTF-8"?>
<svg width="21" height="21.00004" version="1.1" viewBox="0 0 5.55625 5.55626" xmlns="http://www.w3.org/2000/svg" xmlns:xlink="http://www.w3.org/1999/xlink"><defs><linearGradient id="linearGradient38" x1="-76.97428" x2="-73.13896" y1="106.8402" y2="110.6756" gradientTransform="matrix(1.02439 0 0 1.02439 79.66541 -108.6324)" gradientUnits="userSpaceOnUse"><stop stop-color="#ffd74c" offset="0"/><stop stop-color="#feb83e" offset="1"/></linearGradient></defs><path d="m5.55625 2.77813a2.778125 2.778125 0 0 1-2.77813 2.77813 2.778125 2.778125 0 0 1-2.77812-2.77813 2.778125 2.778125 0 0 1 2.77812-2.77813 2.778125 2.778125 0 0 1 2.77813 2.77813z" fill="url(#linearGradient38)" style="paint-order:normal"/><path d="m2.77812 2.0895a0.7062214 0.7062214 0 0 1-0.70621 0.70623 0.7062214 0.7062214 0 0 1-0.70622-0.70623 0.7062214 0.7062214 0 0 1 0.70622-0.70622 0.7062214 0.7062214 0 0 1 0.70621 0.70622z" fill="#fff" stroke="#433410" stroke-width=".205787"/><path d="m2.57128 2.10173a0.3444647 0.3444647 0 0 1 0 0.48715 0.3444647 0.3444647 0 0 1-0.48715 0 0.3444647 0.3444647 0 0 1 0-0.48715 0.3444647 0.3444647 0 0 1 0.48715 0z" fill="#433410"/><path d="m4.19057 2.0895a0.7062214 0.7062214 0 0 1-0.70623 0.70623 0.7062214 0.7062214 0 0 1-0.70622-0.70623 0.7062214 0.7062214 0 0 1 0.70622-0.70622 0.7062214 0.7062214 0 0 1 0.70623 0.70622z" fill="#fff" stroke="#433410" stroke-width=".205787"/><path d="m3.98372 2.10173a0.3444647 0.3444647 0 0 1 0 0.48715 0.3444647 0.3444647 0 0 1-0.48715 0 0.3444647 0.3444647 0 0 1 0-0.48715 0.3444647 0.3444647 0 0 1 0.48715 0z" fill="#433410"/><path d="m1.64507 3.63926s0.26124 0.64321 1.13305 0.13719c0.87182-0.50601 1.13305 0.13719 1.13305 0.13719" fill="none" stop-color="#000000" stroke="#433410" stroke-width=".205787" style="font-variation-settings:normal"/></svg>
