<?xml version="1.0" encoding="UTF-8"?>
<svg width="21" height="21" version="1.1" viewBox="0 0 5.55625 5.55625" xmlns="http://www.w3.org/2000/svg" xmlns:cc="http://creativecommons.org/ns#" xmlns:dc="http://purl.org/dc/elements/1.1/" xmlns:rdf="http://www.w3.org/1999/02/22-rdf-syntax-ns#" xmlns:xlink="http://www.w3.org/1999/xlink"><title>MyBB Vector Smiley - Cool</title><defs><linearGradient id="linearGradient172" x1="-76.97428" x2="-73.13896" y1="106.8402" y2="110.6756" gradientTransform="matrix(1.02439 0 0 1.02439 79.66536 -108.6324)" gradientUnits="userSpaceOnUse"><stop stop-color="#fee03f" offset="0"/><stop stop-color="#feb434" offset="1"/></linearGradient><clipPath id="clipPath653"><path d="m-91.26155 111.1348a2.778123 2.778123 0 0 1-2.778125 2.77813 2.778123 2.778123 0 0 1-2.778125-2.77813 2.778123 2.778123 0 0 1 2.778125-2.77812 2.778123 2.778123 0 0 1 2.778125 2.77812z" fill="#fff" style="paint-order:normal"/></clipPath></defs><metadata><rdf:RDF><cc:Work rdf:about=""><dc:format>image/svg+xml</dc:format><dc:type rdf:resource="http://purl.org/dc/dcmitype/StillImage"/><dc:title>MyBB Vector Smiley - Cool</dc:title><dc:date>2025-07-13</dc:date><dc:creator><cc:Agent><dc:title>Paul Verbitsky</dc:title></cc:Agent></dc:creator><dc:rights><cc:Agent><dc:title>Distributed under GNU Lesser General Public License v3.0</dc:title></cc:Agent></dc:rights><cc:license rdf:resource="https://www.gnu.org/licenses/lgpl-3.0.html"/></cc:Work></rdf:RDF></metadata><path d="m5.55625 2.77812a2.778124 2.778124 0 0 1-2.778125 2.77813 2.778124 2.778124 0 0 1-2.778124-2.77813 2.778124 2.778124 0 0 1 2.778124-2.77812 2.778124 2.778124 0 0 1 2.778125 2.77812z" fill="url(#linearGradient172)" style="paint-order:normal"/><path d="m3.182351 3.61176c0.574092 0 0.954818-0.44098 0.954818-0.67872" fill="none" stop-color="#000000" stroke="#292f33" stroke-width=".205786" style="font-variation-settings:normal"/><path transform="translate(96.8178 -108.3567)" d="m-91.31099 110.613s-0.256463-0.59069-0.788374-0.59069h-3.880625c-0.531911 0-0.788374 0.59069-0.788374 0.59069" clip-path="url(#clipPath653)" fill="none" stop-color="#000000" stroke="#292f33" stroke-linecap="round" stroke-linejoin="round" stroke-width=".205786" style="font-variation-settings:normal"/><path d="m2.735586 1.66565a0.6591948 0.6591948 0 0 1-0.659195 0.65921 0.6591948 0.6591948 0 0 1-0.659195-0.65921 0.6591948 0.6591948 0 0 1 0.659195-0.65919 0.6591948 0.6591948 0 0 1 0.659195 0.65919z" fill="#292f33"/><path d="m4.139054 1.66565a0.6591948 0.6591948 0 0 1-0.659196 0.65921 0.6591948 0.6591948 0 0 1-0.659194-0.65921 0.6591948 0.6591948 0 0 1 0.659194-0.65919 0.6591948 0.6591948 0 0 1 0.659196 0.65919z" fill="#292f33"/></svg>
