<?xml version="1.0" encoding="UTF-8"?>
<svg width="21" height="21" version="1.1" viewBox="0 0 5.55625 5.55625" xmlns="http://www.w3.org/2000/svg" xmlns:xlink="http://www.w3.org/1999/xlink"><defs><linearGradient id="linearGradient172" x1="-76.97428" x2="-73.13896" y1="106.8402" y2="110.6756" gradientTransform="matrix(1.02439 0 0 1.02439 79.66536 -108.6324)" gradientUnits="userSpaceOnUse"><stop stop-color="#ffd74c" offset="0"/><stop stop-color="#feb83e" offset="1"/></linearGradient><clipPath id="clipPath653"><path d="m-91.26155 111.1348a2.778123 2.778123 0 0 1-2.778125 2.77813 2.778123 2.778123 0 0 1-2.778125-2.77813 2.778123 2.778123 0 0 1 2.778125-2.77812 2.778123 2.778123 0 0 1 2.778125 2.77812z" fill="#fff" style="paint-order:normal"/></clipPath><clipPath id="clipPath1486-1-1"><path d="m-99.46645 88.23495a0.6591948 0.6591948 0 0 1-0.659198 0.65921 0.6591948 0.6591948 0 0 1-0.65919-0.65921 0.6591948 0.6591948 0 0 1 0.65919-0.65919 0.6591948 0.6591948 0 0 1 0.659198 0.65919z" fill="#fff"/></clipPath><filter id="filter1824-1" x="-.1197932" y="-.1197934" width="1.239586" height="1.239587" color-interpolation-filters="sRGB"><feGaussianBlur stdDeviation="0.058646492"/></filter></defs><path d="m5.55625 2.77812a2.778124 2.778124 0 0 1-2.778125 2.77813 2.778124 2.778124 0 0 1-2.778124-2.77813 2.778124 2.778124 0 0 1 2.778124-2.77812 2.778124 2.778124 0 0 1 2.778125 2.77812z" fill="url(#linearGradient172)" style="paint-order:normal"/><path d="m3.182351 3.61176c0.574092 0 0.954818-0.44098 0.954818-0.67872" fill="none" stop-color="#000000" stroke="#433410" stroke-width=".205786" style="font-variation-settings:normal"/><path transform="translate(96.8178 -108.3567)" d="m-91.31099 110.613s-0.256463-0.59069-0.788374-0.59069h-3.880625c-0.531911 0-0.788374 0.59069-0.788374 0.59069" clip-path="url(#clipPath653)" fill="none" stop-color="#000000" stroke="#433410" stroke-linecap="round" stroke-linejoin="round" stroke-width=".205786" style="font-variation-settings:normal"/><g><path d="m2.735585 1.66565a0.6591948 0.6591948 0 0 1-0.659199 0.65921 0.6591948 0.6591948 0 0 1-0.65919-0.65921 0.6591948 0.6591948 0 0 1 0.65919-0.65919 0.6591948 0.6591948 0 0 1 0.659199 0.65919z" fill="#433410"/><path transform="translate(102.202 -86.5693)" d="m-99.39264 87.93857-1.029395 1.029399-0.14556-0.145554 1.029402-1.029399z" clip-path="url(#clipPath1486-1-1)" fill="#78673b" filter="url(#filter1824-1)"/><path d="m4.139053 1.66565a0.6591948 0.6591948 0 0 1-0.659199 0.65921 0.6591948 0.6591948 0 0 1-0.65919-0.65921 0.6591948 0.6591948 0 0 1 0.65919-0.65919 0.6591948 0.6591948 0 0 1 0.659199 0.65919z" fill="#433410"/><path transform="translate(103.6055 -86.5693)" d="m-99.39264 87.93857-1.029395 1.029399-0.14556-0.145554 1.029402-1.029399z" clip-path="url(#clipPath1486-1-1)" fill="#78673b" filter="url(#filter1824-1)"/></g></svg>
