<?xml version="1.0" encoding="UTF-8"?>
<svg width="5.556249mm" height="5.556257mm" version="1.1" viewBox="0 0 5.556249 5.556257" xmlns="http://www.w3.org/2000/svg" xmlns:cc="http://creativecommons.org/ns#" xmlns:dc="http://purl.org/dc/elements/1.1/" xmlns:rdf="http://www.w3.org/1999/02/22-rdf-syntax-ns#" xmlns:xlink="http://www.w3.org/1999/xlink"><title>MyBB Vector Smiley - Cry</title><defs><linearGradient id="linearGradient187" x1="-76.97428" x2="-73.13896" y1="106.8402" y2="110.6756" gradientTransform="matrix(.9878046 0 0 .9878046 76.9194 -104.6534)" gradientUnits="userSpaceOnUse"><stop stop-color="#fee03f" offset="0"/><stop stop-color="#feb434" offset="1"/></linearGradient><linearGradient id="linearGradient303-6" x1="-14.66267" x2="-14.66267" y1="110.1997" y2="111.0506" gradientTransform="matrix(-1 0 0 1 -11.21904 -108.2574)" gradientUnits="userSpaceOnUse"><stop stop-color="#fff" offset="0"/><stop stop-color="#007cfc" offset="1"/></linearGradient></defs><metadata><rdf:RDF><cc:Work rdf:about=""><dc:format>image/svg+xml</dc:format><dc:type rdf:resource="http://purl.org/dc/dcmitype/StillImage"/><dc:title>MyBB Vector Smiley - Cry</dc:title><dc:date>2025-07-13</dc:date><dc:creator><cc:Agent><dc:title>Paul Verbitsky</dc:title></cc:Agent></dc:creator><dc:rights><cc:Agent><dc:title>Distributed under GNU Lesser General Public License v3.0</dc:title></cc:Agent></dc:rights><cc:license rdf:resource="https://www.gnu.org/licenses/lgpl-3.0.html"/></cc:Work></rdf:RDF></metadata><g stroke="#000" stroke-width=".198437"><path d="m5.45703 2.778128a2.678905 2.678905 0 0 1-2.678907 2.67891 2.678905 2.678905 0 0 1-2.678905-2.67891 2.678905 2.678905 0 0 1 2.678905-2.67891 2.678905 2.678905 0 0 1 2.678907 2.67891z" fill="url(#linearGradient187)" stroke-linecap="round" stroke-linejoin="round" style="paint-order:normal"/><path d="m1.439272 4.124378s0.188026-0.25754 0.431302-0.29233c0.243276-0.0348 0.445033 0.29233 0.907551 0.29233s0.664276-0.32711 0.907552-0.29233c0.243276 0.0348 0.431301 0.29233 0.431301 0.29233" fill="none" stop-color="#000000" style="font-variation-settings:normal"/><path d="m2.778124 2.458118c0 0.17099 0.145051 0.33502 0.30171 0.33502h0.542575c0.343219 0 0.511624-0.2098 0.511624-0.46642v-0.1357c0-0.59442-0.354378-1.03499-0.980666-1.03499h-0.375243v1.30209c0 0.17099-0.145051 0.33502-0.30171 0.33502h-0.542575c-0.343219 0-0.511624-0.2098-0.511624-0.46642v-0.1357c0-0.59442 0.354378-1.03499 0.980666-1.03499h0.375243" fill="url(#linearGradient303-6)" stop-color="#000000" style="font-variation-settings:normal"/></g><path d="m2.778124 2.115728a0.3321622 0.3321622 0 0 1-0.332162 0.33216 0.3321622 0.3321622 0 0 1-0.332163-0.33216 0.3321622 0.3321622 0 0 1 0.332163-0.33217 0.3321622 0.3321622 0 0 1 0.332162 0.33217z"/><path d="m3.44245 2.115728a0.3321622 0.3321622 0 0 1-0.332162 0.33216 0.3321622 0.3321622 0 0 1-0.332163-0.33216 0.3321622 0.3321622 0 0 1 0.332163-0.33217 0.3321622 0.3321622 0 0 1 0.332162 0.33217z"/></svg>
