<?xml version="1.0" encoding="UTF-8" standalone="no"?>
<svg
   xmlns:dc="http://purl.org/dc/elements/1.1/"
   xmlns:cc="http://creativecommons.org/ns#"
   xmlns:rdf="http://www.w3.org/1999/02/22-rdf-syntax-ns#"
   xmlns:svg="http://www.w3.org/2000/svg"
   xmlns="http://www.w3.org/2000/svg"
   xmlns:xlink="http://www.w3.org/1999/xlink"
   xmlns:sodipodi="http://sodipodi.sourceforge.net/DTD/sodipodi-0.dtd"
   xmlns:inkscape="http://www.inkscape.org/namespaces/inkscape"
   width="5.5562491mm"
   height="5.5562572mm"
   viewBox="0 0 5.5562491 5.5562573"
   version="1.1"
   id="svg1011"
   inkscape:version="1.0 (4035a4fb49, 2020-05-01)"
   sodipodi:docname="cry.svg">
  <title
     id="title19">MyBB Vector Smiley - Cry</title>
  <defs
     id="defs1005">
    <linearGradient
       y2="110.67557"
       x2="-73.138962"
       y1="106.84025"
       x1="-76.974281"
       gradientTransform="matrix(0.98780456,0,0,0.98780456,76.919401,-104.65342)"
       gradientUnits="userSpaceOnUse"
       id="linearGradient187"
       xlink:href="#linearGradient359"
       inkscape:collect="always" />
    <linearGradient
       id="linearGradient359"
       inkscape:collect="always">
      <stop
         id="stop355"
         offset="0"
         style="stop-color:#fee03f;stop-opacity:1" />
      <stop
         id="stop357"
         offset="1"
         style="stop-color:#feb434;stop-opacity:1" />
    </linearGradient>
    <linearGradient
       inkscape:collect="always"
       xlink:href="#linearGradient170"
       id="linearGradient303-6"
       gradientUnits="userSpaceOnUse"
       gradientTransform="matrix(-1,0,0,1,-11.219037,-108.25744)"
       x1="-14.662672"
       y1="110.19974"
       x2="-14.662672"
       y2="111.05058" />
    <linearGradient
       id="linearGradient170"
       inkscape:collect="always">
      <stop
         id="stop166"
         offset="0"
         style="stop-color:#ffffff;stop-opacity:1" />
      <stop
         id="stop168"
         offset="1"
         style="stop-color:#007cfc;stop-opacity:1" />
    </linearGradient>
  </defs>
  <sodipodi:namedview
     fit-margin-bottom="0"
     fit-margin-right="0"
     fit-margin-left="0"
     fit-margin-top="0"
     id="base"
     pagecolor="#ffffff"
     bordercolor="#666666"
     borderopacity="1.0"
     inkscape:pageopacity="0.0"
     inkscape:pageshadow="2"
     inkscape:zoom="28.809486"
     inkscape:cx="10.499998"
     inkscape:cy="10.500014"
     inkscape:document-units="px"
     inkscape:current-layer="svg1011"
     inkscape:document-rotation="0"
     showgrid="false"
     inkscape:window-width="1600"
     inkscape:window-height="837"
     inkscape:window-x="-8"
     inkscape:window-y="-8"
     inkscape:window-maximized="1" />
  <metadata
     id="metadata1008">
    <rdf:RDF>
      <cc:Work
         rdf:about="">
        <dc:format>image/svg+xml</dc:format>
        <dc:type
           rdf:resource="http://purl.org/dc/dcmitype/StillImage" />
        <dc:title>MyBB Vector Smiley - Cry</dc:title>
        <dc:date>2025-07-13</dc:date>
        <dc:creator>
          <cc:Agent>
            <dc:title>Paul Verbitsky</dc:title>
          </cc:Agent>
        </dc:creator>
        <dc:rights>
          <cc:Agent>
            <dc:title>Distributed under GNU Lesser General Public License v3.0</dc:title>
          </cc:Agent>
        </dc:rights>
        <cc:license
           rdf:resource="https://www.gnu.org/licenses/lgpl-3.0.html" />
      </cc:Work>
    </rdf:RDF>
  </metadata>
  <path
     d="m 5.4570305,2.7781285 a 2.6789052,2.6789052 0 0 1 -2.678907,2.67891 2.6789052,2.6789052 0 0 1 -2.678905,-2.67891 2.6789052,2.6789052 0 0 1 2.678905,-2.67891 2.6789052,2.6789052 0 0 1 2.678907,2.67891 z"
     style="fill:url(#linearGradient187);fill-opacity:1;stroke:#000000;stroke-width:0.198437;stroke-linecap:round;stroke-linejoin:round;stroke-miterlimit:4;stroke-dasharray:none;paint-order:normal"
     id="path171" />
  <path
     sodipodi:nodetypes="czzzc"
     id="path181"
     d="m 1.4392715,4.1243785 c 0,0 0.188026,-0.25754 0.431302,-0.29233 0.243276,-0.0348 0.445033,0.29233 0.907551,0.29233 0.462518,0 0.664276,-0.32711 0.907552,-0.29233 0.243276,0.0348 0.431301,0.29233 0.431301,0.29233"
     style="font-variation-settings:normal;vector-effect:none;fill:none;fill-opacity:1;stroke:#000000;stroke-width:0.198437;stroke-linecap:butt;stroke-linejoin:miter;stroke-miterlimit:4;stroke-dasharray:none;stroke-dashoffset:0;stroke-opacity:1;stop-color:#000000" />
  <path
     style="font-variation-settings:normal;vector-effect:none;fill:url(#linearGradient303-6);fill-opacity:1;stroke:#000000;stroke-width:0.198437;stroke-linecap:butt;stroke-linejoin:miter;stroke-miterlimit:4;stroke-dasharray:none;stroke-dashoffset:0;stroke-opacity:1;stop-color:#000000"
     d="m 2.7781245,2.4581185 c 0,0.17099 0.145051,0.33502 0.30171,0.33502 h 0.542575 c 0.343219,0 0.511624,-0.2098 0.511624,-0.46642 v -0.1357 c 0,-0.59442 -0.354378,-1.03499 -0.980666,-1.03499 h -0.375243 v 1.30209 c 0,0.17099 -0.145051,0.33502 -0.30171,0.33502 h -0.542575 c -0.343219,0 -0.511624,-0.2098 -0.511624,-0.46642 v -0.1357 c 0,-0.59442 0.354378,-1.03499 0.980666,-1.03499 h 0.375243"
     id="path301-7"
     sodipodi:nodetypes="cssssscssssssc" />
  <path
     id="path195"
     style="fill:#000000;stroke:none;stroke-width:0.198437"
     d="m 2.7781245,2.1157285 a 0.33216223,0.33216223 0 0 1 -0.332162,0.33216 0.33216223,0.33216223 0 0 1 -0.332163,-0.33216 0.33216223,0.33216223 0 0 1 0.332163,-0.33217 0.33216223,0.33216223 0 0 1 0.332162,0.33217 z" />
  <path
     d="m 3.4424495,2.1157285 a 0.33216223,0.33216223 0 0 1 -0.332162,0.33216 0.33216223,0.33216223 0 0 1 -0.332163,-0.33216 0.33216223,0.33216223 0 0 1 0.332163,-0.33217 0.33216223,0.33216223 0 0 1 0.332162,0.33217 z"
     style="fill:#000000;stroke:none;stroke-width:0.198437"
     id="path156" />
</svg>
