<?xml version="1.0" encoding="UTF-8"?>
<svg width="21" height="21.00004" version="1.1" viewBox="0 0 5.55625 5.55626" xmlns="http://www.w3.org/2000/svg" xmlns:xlink="http://www.w3.org/1999/xlink"><defs><linearGradient id="linearGradient187" x1="-76.97428" x2="-73.13896" y1="106.8402" y2="110.6756" gradientTransform="matrix(1.02439 0 0 1.02439 79.66538 -108.6324)" gradientUnits="userSpaceOnUse"><stop stop-color="#ffd74c" offset="0"/><stop stop-color="#feb83e" offset="1"/></linearGradient><linearGradient id="linearGradient303-6" x1="-14.66267" x2="-14.66267" y1="110.1997" y2="111.0506" gradientTransform="matrix(-1.037037 0 0 1.037037 -11.73745 -112.3565)" gradientUnits="userSpaceOnUse"><stop stop-color="#fff" offset="0"/><stop stop-color="#0b90f4" offset="1"/></linearGradient></defs><path d="M 5.55625,2.77813 A 2.7781241,2.7781241 0 0 1 2.778124,5.55626 2.7781241,2.7781241 0 0 1 0,2.77813 2.7781241,2.7781241 0 0 1 2.778124,0 2.7781241,2.7781241 0 0 1 5.55625,2.77813 Z" fill="url(#linearGradient187)" style="paint-order:normal"/><path d="m1.389686 4.17424s0.19499-0.26708 0.447276-0.30316c0.252286-0.0361 0.461516 0.30316 0.941164 0.30316 0.479649 0 0.688879-0.33923 0.941165-0.30316 0.252287 0.0361 0.447275 0.30316 0.447275 0.30316" fill="none" stop-color="#000000" stroke="#433410" stroke-width=".205787" style="font-variation-settings:normal"/><g><path d="m2.778125 2.45966c0 0.17733 0.150424 0.34743 0.312885 0.34743h0.56267c0.355931 0 0.530573-0.21757 0.530573-0.48369v-0.14073c0-0.61643-0.367503-1.07332-1.016987-1.07332h-0.389141v1.35031c0 0.17733-0.150423 0.34743-0.312884 0.34743h-0.562671c-0.35593 0-0.530573-0.21757-0.530573-0.48369v-0.14073c0-0.61643 0.367503-1.07332 1.016987-1.07332h0.389141" fill="url(#linearGradient303-6)" stop-color="#000000" stroke="#433410" stroke-width=".205787" style="font-variation-settings:normal"/><path d="m2.778125 2.10459a0.3444646 0.3444646 0 0 1-0.344464 0.34447 0.3444646 0.3444646 0 0 1-0.344465-0.34447 0.3444646 0.3444646 0 0 1 0.344465-0.34447 0.3444646 0.3444646 0 0 1 0.344464 0.34447z" fill="#433410"/><path d="m3.467055 2.10459a0.3444646 0.3444646 0 0 1-0.344464 0.34447 0.3444646 0.3444646 0 0 1-0.344466-0.34447 0.3444646 0.3444646 0 0 1 0.344466-0.34447 0.3444646 0.3444646 0 0 1 0.344464 0.34447z" fill="#433410"/></g></svg>
