<?xml version="1.0" encoding="UTF-8"?>
<svg width="5.556249mm" height="5.556257mm" version="1.1" viewBox="0 0 5.556249 5.556257" xmlns="http://www.w3.org/2000/svg" xmlns:cc="http://creativecommons.org/ns#" xmlns:dc="http://purl.org/dc/elements/1.1/" xmlns:rdf="http://www.w3.org/1999/02/22-rdf-syntax-ns#" xmlns:xlink="http://www.w3.org/1999/xlink"><title>MyBB Vector Smiley - Dodgy</title><defs><linearGradient id="linearGradient168" x1="-76.97428" x2="-73.13896" y1="106.8402" y2="110.6756" gradientTransform="matrix(.9878046 0 0 .9878046 76.9194 -104.6534)" gradientUnits="userSpaceOnUse"><stop stop-color="#fee03f" offset="0"/><stop stop-color="#feb434" offset="1"/></linearGradient></defs><metadata><rdf:RDF><cc:Work rdf:about=""><dc:format>image/svg+xml</dc:format><dc:type rdf:resource="http://purl.org/dc/dcmitype/StillImage"/><dc:title>MyBB Vector Smiley - Dodgy</dc:title><dc:date>2025-07-13</dc:date><dc:creator><cc:Agent><dc:title>Paul Verbitsky</dc:title></cc:Agent></dc:creator><dc:rights><cc:Agent><dc:title>Distributed under GNU Lesser General Public License v3.0</dc:title></cc:Agent></dc:rights><cc:license rdf:resource="https://www.gnu.org/licenses/lgpl-3.0.html"/></cc:Work></rdf:RDF></metadata><path d="m5.45703 2.778128a2.678905 2.678905 0 0 1-2.678907 2.67891 2.678905 2.678905 0 0 1-2.678905-2.67891 2.678905 2.678905 0 0 1 2.678905-2.67891 2.678905 2.678905 0 0 1 2.678907 2.67891z" fill="url(#linearGradient168)" stroke="#000" stroke-linecap="round" stroke-linejoin="round" stroke-width=".198437" style="paint-order:normal"/><path d="m2.517086 1.746428c1e-6 0.37611-0.304893 0.681-0.680998 0.681-0.376106 0-0.681-0.30489-0.680999-0.681z" fill="#fff" stroke="#000" stroke-width=".198437"/><path d="m2.47652 2.002558a0.2743557 0.2743557 0 0 1-0.274355 0.27435 0.2743557 0.2743557 0 0 1-0.274356-0.27435 0.2743557 0.2743557 0 0 1 0.274356-0.27437 0.2743557 0.2743557 0 0 1 0.274355 0.27437z"/><path d="m4.401158 1.746428c1e-6 0.37611-0.304893 0.681-0.680998 0.681-0.376106 0-0.681-0.30489-0.680999-0.681z" fill="#fff" stroke="#000" stroke-width=".198437"/><path d="m4.360592 2.002558a0.2743557 0.2743557 0 0 1-0.274355 0.27435 0.2743557 0.2743557 0 0 1-0.274356-0.27435 0.2743557 0.2743557 0 0 1 0.274356-0.27437 0.2743557 0.2743557 0 0 1 0.274355 0.27437z"/><path d="m1.248744 3.534978c0.68544 0 0.46633 0.372 1.15177 0.372" fill="none" stop-color="#000000" stroke="#000" stroke-width=".198437" style="font-variation-settings:normal"/></svg>
