<?xml version="1.0" encoding="UTF-8" standalone="no"?>
<svg
   xmlns:dc="http://purl.org/dc/elements/1.1/"
   xmlns:cc="http://creativecommons.org/ns#"
   xmlns:rdf="http://www.w3.org/1999/02/22-rdf-syntax-ns#"
   xmlns:svg="http://www.w3.org/2000/svg"
   xmlns="http://www.w3.org/2000/svg"
   xmlns:xlink="http://www.w3.org/1999/xlink"
   xmlns:sodipodi="http://sodipodi.sourceforge.net/DTD/sodipodi-0.dtd"
   xmlns:inkscape="http://www.inkscape.org/namespaces/inkscape"
   width="5.5562491mm"
   height="5.5562572mm"
   viewBox="0 0 5.5562491 5.5562573"
   version="1.1"
   id="svg1077"
   inkscape:version="1.0 (4035a4fb49, 2020-05-01)"
   sodipodi:docname="dodgy.svg">
  <title
     id="title16">MyBB Vector Smiley - Dodgy</title>
  <defs
     id="defs1071">
    <linearGradient
       y2="110.67557"
       x2="-73.138962"
       y1="106.84025"
       x1="-76.974281"
       gradientTransform="matrix(0.98780456,0,0,0.98780456,76.919401,-104.65342)"
       gradientUnits="userSpaceOnUse"
       id="linearGradient168"
       xlink:href="#linearGradient317"
       inkscape:collect="always" />
    <linearGradient
       inkscape:collect="always"
       id="linearGradient317">
      <stop
         style="stop-color:#fee03f;stop-opacity:1"
         offset="0"
         id="stop313" />
      <stop
         style="stop-color:#feb434;stop-opacity:1"
         offset="1"
         id="stop315" />
    </linearGradient>
  </defs>
  <sodipodi:namedview
     fit-margin-bottom="0"
     fit-margin-right="0"
     fit-margin-left="0"
     fit-margin-top="0"
     id="base"
     pagecolor="#ffffff"
     bordercolor="#666666"
     borderopacity="1.0"
     inkscape:pageopacity="0.0"
     inkscape:pageshadow="2"
     inkscape:zoom="28.809486"
     inkscape:cx="10.499998"
     inkscape:cy="10.500014"
     inkscape:document-units="px"
     inkscape:current-layer="svg1077"
     inkscape:document-rotation="0"
     showgrid="false"
     inkscape:window-width="1600"
     inkscape:window-height="837"
     inkscape:window-x="-8"
     inkscape:window-y="-8"
     inkscape:window-maximized="1" />
  <metadata
     id="metadata1074">
    <rdf:RDF>
      <cc:Work
         rdf:about="">
        <dc:format>image/svg+xml</dc:format>
        <dc:type
           rdf:resource="http://purl.org/dc/dcmitype/StillImage" />
        <dc:title>MyBB Vector Smiley - Dodgy</dc:title>
        <dc:date>2025-07-13</dc:date>
        <dc:creator>
          <cc:Agent>
            <dc:title>Paul Verbitsky</dc:title>
          </cc:Agent>
        </dc:creator>
        <dc:rights>
          <cc:Agent>
            <dc:title>Distributed under GNU Lesser General Public License v3.0</dc:title>
          </cc:Agent>
        </dc:rights>
        <cc:license
           rdf:resource="https://www.gnu.org/licenses/lgpl-3.0.html" />
      </cc:Work>
    </rdf:RDF>
  </metadata>
  <path
     id="path166"
     style="fill:url(#linearGradient168);fill-opacity:1;stroke:#000000;stroke-width:0.198437;stroke-linecap:round;stroke-linejoin:round;stroke-miterlimit:4;stroke-dasharray:none;paint-order:normal"
     d="m 5.4570305,2.7781285 a 2.6789052,2.6789052 0 0 1 -2.678907,2.67891 2.6789052,2.6789052 0 0 1 -2.678905,-2.67891 2.6789052,2.6789052 0 0 1 2.678905,-2.67891 2.6789052,2.6789052 0 0 1 2.678907,2.67891 z" />
  <path
     sodipodi:nodetypes="cscc"
     id="path172"
     style="fill:#ffffff;stroke:#000000;stroke-width:0.198437"
     d="m 2.5170865,1.7464285 c 1e-6,0.37611 -0.304893,0.681 -0.680998,0.681 -0.376106,0 -0.681,-0.30489 -0.680999,-0.681 z" />
  <path
     d="m 2.4765195,2.0025585 a 0.27435573,0.27435573 0 0 1 -0.274355,0.27435 0.27435573,0.27435573 0 0 1 -0.274356,-0.27435 0.27435573,0.27435573 0 0 1 0.274356,-0.27437 0.27435573,0.27435573 0 0 1 0.274355,0.27437 z"
     style="fill:#000000;stroke:none;stroke-width:0.198437"
     id="path156-7-1" />
  <path
     d="m 4.4011585,1.7464285 c 1e-6,0.37611 -0.304893,0.681 -0.680998,0.681 -0.376106,0 -0.681,-0.30489 -0.680999,-0.681 z"
     style="fill:#ffffff;stroke:#000000;stroke-width:0.198437"
     id="path1044"
     sodipodi:nodetypes="cscc" />
  <path
     id="path1046"
     style="fill:#000000;stroke:none;stroke-width:0.198437"
     d="m 4.3605915,2.0025585 a 0.27435573,0.27435573 0 0 1 -0.274355,0.27435 0.27435573,0.27435573 0 0 1 -0.274356,-0.27435 0.27435573,0.27435573 0 0 1 0.274356,-0.27437 0.27435573,0.27435573 0 0 1 0.274355,0.27437 z" />
  <path
     style="font-variation-settings:normal;vector-effect:none;fill:none;fill-opacity:1;stroke:#000000;stroke-width:0.198437;stroke-linecap:butt;stroke-linejoin:miter;stroke-miterlimit:4;stroke-dasharray:none;stroke-dashoffset:0;stroke-opacity:1;stop-color:#000000"
     d="m 1.2487435,3.5349785 c 0.68544,0 0.46633,0.372 1.15177,0.372"
     id="path423"
     sodipodi:nodetypes="cc" />
</svg>
