<?xml version="1.0" encoding="UTF-8"?>
<svg width="5.556247mm" height="5.556257mm" version="1.1" viewBox="0 0 5.556247 5.556257" xmlns="http://www.w3.org/2000/svg" xmlns:cc="http://creativecommons.org/ns#" xmlns:dc="http://purl.org/dc/elements/1.1/" xmlns:rdf="http://www.w3.org/1999/02/22-rdf-syntax-ns#" xmlns:xlink="http://www.w3.org/1999/xlink"><title>MyBB Vector Smiley - Exclamation</title><defs><linearGradient id="linearGradient136" x1="-76.97428" x2="-73.13896" y1="106.8402" y2="110.6756" gradientTransform="matrix(.9878046 0 0 .9878046 76.91941 -104.6534)" gradientUnits="userSpaceOnUse"><stop stop-color="#fee03f" offset="0"/><stop stop-color="#feb434" offset="1"/></linearGradient></defs><metadata><rdf:RDF><cc:Work rdf:about=""><dc:format>image/svg+xml</dc:format><dc:type rdf:resource="http://purl.org/dc/dcmitype/StillImage"/><dc:title>MyBB Vector Smiley - Exclamation</dc:title><dc:date>2025-07-13</dc:date><dc:creator><cc:Agent><dc:title>Paul Verbitsky</dc:title></cc:Agent></dc:creator><dc:rights><cc:Agent><dc:title>Distributed under GNU Lesser General Public License v3.0</dc:title></cc:Agent></dc:rights><cc:license rdf:resource="https://www.gnu.org/licenses/lgpl-3.0.html"/></cc:Work></rdf:RDF></metadata><path d="m5.457028 2.778128a2.678905 2.678905 0 0 1-2.6789 2.67891 2.678905 2.678905 0 0 1-2.67891-2.67891 2.678905 2.678905 0 0 1 2.67891-2.67891 2.678905 2.678905 0 0 1 2.6789 2.67891z" fill="url(#linearGradient136)" stroke="#000" stroke-linecap="round" stroke-linejoin="round" stroke-width=".198437" style="paint-order:normal"/><path d="m2.638158 1.296358h0.28142q0.18379 0 0.17231 0.17803l-0.0862 1.61388q-0.0115 0.20675-0.2125 0.20675-0.21251 0-0.22399-0.20101l-0.10343-1.61962q-0.0115-0.17803 0.1723-0.17803zm5e-3 2.32603h0.26994q0.18378 0 0.18378 0.17805v0.27568q0 0.18378-0.18378 0.18378h-0.26994q-0.18379 0-0.18379-0.18378v-0.27568q0-0.17805 0.18379-0.17805z"/></svg>
