<?xml version="1.0" encoding="UTF-8"?>
<svg width="21" height="21.00004" version="1.1" viewBox="0 0 5.55625 5.55626" xmlns="http://www.w3.org/2000/svg" xmlns:xlink="http://www.w3.org/1999/xlink"><defs><linearGradient id="linearGradient136" x1="-76.97428" x2="-73.13896" y1="106.8402" y2="110.6756" gradientTransform="matrix(1.02439 0 0 1.02439 79.66542 -108.6324)" gradientUnits="userSpaceOnUse"><stop stop-color="#ffd74c" offset="0"/><stop stop-color="#feb83e" offset="1"/></linearGradient></defs><path d="m5.55625 2.77813a2.778125 2.778125 0 0 1-2.77812 2.77813 2.778125 2.778125 0 0 1-2.77813-2.77813 2.778125 2.778125 0 0 1 2.77813-2.77813 2.778125 2.778125 0 0 1 2.77812 2.77813z" fill="url(#linearGradient136)" style="paint-order:normal"/><path d="m2.63315 1.24148h0.29184q0.1906 0 0.17869 0.18462l-0.0894 1.67366q-0.0119 0.2144-0.22037 0.2144-0.22038 0-0.23229-0.20845l-0.10726-1.67961q-0.0119-0.18462 0.17868-0.18462zm5e-3 2.41218h0.27994q0.19059 0 0.19059 0.18464v0.28589q0 0.19059-0.19059 0.19059h-0.27994q-0.19059 0-0.19059-0.19059v-0.28589q0-0.18464 0.19059-0.18464z" fill="#433410"/></svg>
