<?xml version="1.0" encoding="UTF-8"?>
<svg width="5.55628mm" height="5.556246mm" version="1.1" viewBox="0 0 5.55628 5.556246" xmlns="http://www.w3.org/2000/svg" xmlns:cc="http://creativecommons.org/ns#" xmlns:dc="http://purl.org/dc/elements/1.1/" xmlns:rdf="http://www.w3.org/1999/02/22-rdf-syntax-ns#" xmlns:xlink="http://www.w3.org/1999/xlink"><title>MyBB Vector Smiley - Heart</title><defs><linearGradient id="linearGradient176" x1="-64.93763" x2="-64.93763" y1="108.6194" y2="113.7145" gradientTransform="translate(67.71577 -108.2574)" gradientUnits="userSpaceOnUse"><stop stop-color="#fe68ae" offset="0"/><stop stop-color="#ed1c7a" offset="1"/></linearGradient></defs><metadata><rdf:RDF><cc:Work rdf:about=""><dc:format>image/svg+xml</dc:format><dc:type rdf:resource="http://purl.org/dc/dcmitype/StillImage"/><dc:title>MyBB Vector Smiley - Heart</dc:title><dc:date>2025-07-13</dc:date><dc:creator><cc:Agent><dc:title>Paul Verbitsky</dc:title></cc:Agent></dc:creator><dc:rights><cc:Agent><dc:title>Distributed under GNU Lesser General Public License v3.0</dc:title></cc:Agent></dc:rights><cc:license rdf:resource="https://www.gnu.org/licenses/lgpl-3.0.html"/></cc:Work></rdf:RDF></metadata><path d="m2.73831 1.111155c-0.0108-0.0263-0.0153-0.0675-0.0238-0.0955-0.01304-0.0435-0.03037-0.0822-0.04886-0.12899-0.15252-0.38488-0.539607-0.76785-1.080646-0.78625-1.15946-0.0395-1.645377 0.88496-1.439807 1.77252 0.166338 0.71819 0.788545 1.4119 1.289438 1.998 0.2513381 0.2940302 0.5066541 0.5679401 0.7608321 0.8607002 0.176592 0.2073399 0.4553959 0.53564 0.582673 0.7253999 0.1272772-0.1897599 0.4060811-0.51806 0.5826733-0.7253999 0.254178-0.2927601 0.5094938-0.56667 0.7608318-0.8607002 0.500893-0.5860999 1.1231-1.27981 1.289438-1.998 0.2055698-0.88756-0.280347-1.81205-1.439807-1.77252-0.541039 0.0184-0.928126 0.40137-1.080646 0.78625-0.018489 0.0468-0.03582 0.0855-0.04886 0.12899-0.0085 0.028-0.012999 0.0692-0.023799 0.0955-0.0079 0.0194-0.02381 0.0319-0.03983 0.0319s-0.03193-0.0125-0.03983-0.0319z" fill="url(#linearGradient176)" fill-rule="evenodd" stroke="#000" stroke-linecap="round" stroke-linejoin="round" stroke-width=".198438"/></svg>
