<?xml version="1.0" encoding="UTF-8"?>
<svg width="21" height="21" version="1.1" viewBox="0 0 5.55625 5.55625" xmlns="http://www.w3.org/2000/svg" xmlns:xlink="http://www.w3.org/1999/xlink"><defs><linearGradient id="linearGradient499" x1="-67.24009" x2="-63.59412" y1="108.7503" y2="112.1284" gradientTransform="matrix(1.037064 0 0 1.037031 70.12258 -112.3692)" gradientUnits="userSpaceOnUse"><stop stop-color="#fd54a7" offset="0"/><stop stop-color="#e31b71" offset="1"/></linearGradient></defs><path d="m2.736815 1.0494c-0.0112-0.0273-0.01587-0.07-0.02468-0.099-0.01352-0.0451-0.03149-0.0853-0.05067-0.13377-0.158173-0.39913-0.559606-0.79628-1.120698-0.81536-1.202434-0.041-1.706361 0.91773-1.493172 1.83815 0.172503 0.74479 0.817771 1.46419 1.337229 2.07199 0.260654 0.3049199 0.5254331 0.5889699 0.7890321 0.89257 0.183137 0.21502 0.4722739 0.5554801 0.604269 0.75227 0.131994-0.1967899 0.4211309-0.53725 0.6042681-0.75227 0.2635999-0.3036001 0.528378-0.5876501 0.789032-0.89257 0.519458-0.6078001 1.164726-1.3272 1.33723-2.07199 0.2131878-0.9204201-0.2907392-1.87915-1.493173-1.83815-0.561091 0.0191-0.962525 0.41623-1.120698 0.81536-0.01918 0.0485-0.03715 0.0887-0.05067 0.13377-0.0088 0.029-0.013481 0.0718-0.02468 0.099-0.0082 0.0201-0.024691 0.0331-0.0413 0.0331-0.016611 0-0.03311-0.013-0.04131-0.0331z" fill="url(#linearGradient499)" fill-rule="evenodd"/></svg>
