<?xml version="1.0" encoding="UTF-8"?>
<svg width="5.556249mm" height="8.202108mm" version="1.1" viewBox="0 0 5.556249 8.202108" xmlns="http://www.w3.org/2000/svg" xmlns:cc="http://creativecommons.org/ns#" xmlns:dc="http://purl.org/dc/elements/1.1/" xmlns:rdf="http://www.w3.org/1999/02/22-rdf-syntax-ns#" xmlns:xlink="http://www.w3.org/1999/xlink"><title>MyBB Vector Smiley - Huh?</title><defs><linearGradient id="linearGradient179" x1="-76.97428" x2="-73.13896" y1="106.8402" y2="110.6756" gradientTransform="matrix(.9878046 0 0 .9878046 76.9194 -102.0076)" gradientUnits="userSpaceOnUse"><stop stop-color="#fee03f" offset="0"/><stop stop-color="#feb434" offset="1"/></linearGradient></defs><metadata><rdf:RDF><cc:Work rdf:about=""><dc:format>image/svg+xml</dc:format><dc:type rdf:resource="http://purl.org/dc/dcmitype/StillImage"/><dc:title>MyBB Vector Smiley - Huh?</dc:title><dc:date>2025-07-13</dc:date><dc:creator><cc:Agent><dc:title>Paul Verbitsky</dc:title></cc:Agent></dc:creator><dc:rights><cc:Agent><dc:title>Distributed under GNU Lesser General Public License v3.0</dc:title></cc:Agent></dc:rights><cc:license rdf:resource="https://www.gnu.org/licenses/lgpl-3.0.html"/></cc:Work></rdf:RDF></metadata><g stroke="#000" stroke-linecap="round" stroke-linejoin="round"><path d="m5.45703 5.42398a2.678905 2.678905 0 0 1-2.678907 2.67891 2.678905 2.678905 0 0 1-2.678905-2.67891 2.678905 2.678905 0 0 1 2.678905-2.67891 2.678905 2.678905 0 0 1 2.678907 2.67891z" fill="url(#linearGradient179)" stroke-width=".198437" style="paint-order:normal"/><path d="m1.979356 4.38517v0.46926" fill="none" stop-color="#000000" stroke-width=".264583" style="font-variation-settings:normal"/><path d="m3.576892 4.38517v0.46926" fill="none" stop-color="#000000" stroke-width=".264583" style="font-variation-settings:normal"/></g><g><path d="m1.38468 1.60067h-0.291998q-0.0031-0.0107-0.02905-0.078-0.02446-0.0673-0.02446-0.11772 0-0.0963 0.02599-0.18498 0.02752-0.0887 0.0795-0.16511 0.05198-0.078 0.204857-0.24766 0.154407-0.1697 0.154407-0.27977 0-0.21403-0.279767-0.21403-0.136062 0-0.284354 0.13606l-0.157465-0.29505q0.197213-0.15441 0.518258-0.15441 0.247663 0 0.412772 0.13759 0.166637 0.13759 0.166637 0.36538 0 0.15594-0.06115 0.26448-0.05962 0.10701-0.212501 0.25225-0.15135 0.14523-0.197214 0.24155-0.04586 0.0963-0.04586 0.21097 0 0.0245 0.0214 0.12842zm-0.129947 0.20791q0.103958 0 0.17581 0.0734 0.07338 0.0734 0.07338 0.17734 0 0.10396-0.07338 0.17734-0.07185 0.0734-0.17581 0.0734-0.103957 0-0.177339-0.0734-0.07338-0.0734-0.07338-0.17734 0-0.10396 0.07338-0.17734 0.07338-0.0734 0.177339-0.0734z"/><path d="m4.278578 1.60067h-0.291998q-0.0031-0.0107-0.02905-0.078-0.02446-0.0673-0.02446-0.11772 0-0.0963 0.02599-0.18498 0.02752-0.0887 0.0795-0.16511 0.05198-0.078 0.204857-0.24766 0.154407-0.1697 0.154407-0.27977 0-0.21403-0.279767-0.21403-0.136062 0-0.284354 0.13606l-0.157465-0.29505q0.197213-0.15441 0.518258-0.15441 0.247663 0 0.412772 0.13759 0.166637 0.13759 0.166637 0.36538 0 0.15594-0.06115 0.26448-0.05962 0.10701-0.212501 0.25225-0.15135 0.14523-0.197214 0.24155-0.04586 0.0963-0.04586 0.21097 0 0.0245 0.0214 0.12842zm-0.129947 0.20791q0.103958 0 0.17581 0.0734 0.07338 0.0734 0.07338 0.17734 0 0.10396-0.07338 0.17734-0.07185 0.0734-0.17581 0.0734-0.103957 0-0.177339-0.0734-0.07338-0.0734-0.07338-0.17734 0-0.10396 0.07338-0.17734 0.07338-0.0734 0.177339-0.0734z"/><path d="m2.831626 1.60067h-0.291998q-0.0031-0.0107-0.02905-0.078-0.02446-0.0673-0.02446-0.11772 0-0.0963 0.02599-0.18498 0.02752-0.0887 0.0795-0.16511 0.05198-0.078 0.204857-0.24766 0.154407-0.1697 0.154407-0.27977 0-0.21403-0.279767-0.21403-0.136062 0-0.284354 0.13606l-0.157465-0.29505q0.197213-0.15441 0.518258-0.15441 0.247663 0 0.412772 0.13759 0.166637 0.13759 0.166637 0.36538 0 0.15594-0.06115 0.26448-0.05962 0.10701-0.212501 0.25225-0.15135 0.14523-0.197213 0.24155-0.04586 0.0963-0.04586 0.21097 0 0.0245 0.0214 0.12842zm-0.129947 0.20791q0.103958 0 0.175811 0.0734 0.07338 0.0734 0.07338 0.17734 0 0.10396-0.07338 0.17734-0.07185 0.0734-0.175811 0.0734-0.103957 0-0.177339-0.0734-0.07338-0.0734-0.07338-0.17734 0-0.10396 0.07338-0.17734 0.07338-0.0734 0.177339-0.0734z"/></g><path d="m1.610164 6.50204s0.37533-0.29596 1.16796-0.29596 1.16796 0.29596 1.16796 0.29596" fill="none" stop-color="#000000" stroke="#000" stroke-width=".198437" style="font-variation-settings:normal"/></svg>
