<?xml version="1.0" encoding="UTF-8" standalone="no"?>
<svg
   xmlns:dc="http://purl.org/dc/elements/1.1/"
   xmlns:cc="http://creativecommons.org/ns#"
   xmlns:rdf="http://www.w3.org/1999/02/22-rdf-syntax-ns#"
   xmlns:svg="http://www.w3.org/2000/svg"
   xmlns="http://www.w3.org/2000/svg"
   xmlns:xlink="http://www.w3.org/1999/xlink"
   xmlns:sodipodi="http://sodipodi.sourceforge.net/DTD/sodipodi-0.dtd"
   xmlns:inkscape="http://www.inkscape.org/namespaces/inkscape"
   sodipodi:docname="huh_d.svg"
   inkscape:version="1.0 (4035a4fb49, 2020-05-01)"
   id="svg1166"
   version="1.1"
   viewBox="0 0 5.5562491 8.2021084"
   height="8.2021084mm"
   width="5.5562491mm">
  <title
     id="title17">MyBB Vector Smiley - Huh? (for dark theme)</title>
  <defs
     id="defs1160">
    <linearGradient
       y2="110.67557"
       x2="-73.138962"
       y1="106.84025"
       x1="-76.974281"
       gradientTransform="matrix(0.98780456,0,0,0.98780456,76.919401,-102.00757)"
       gradientUnits="userSpaceOnUse"
       id="linearGradient179"
       xlink:href="#linearGradient323"
       inkscape:collect="always" />
    <linearGradient
       inkscape:collect="always"
       id="linearGradient323">
      <stop
         style="stop-color:#fee03f;stop-opacity:1"
         offset="0"
         id="stop319" />
      <stop
         style="stop-color:#feb434;stop-opacity:1"
         offset="1"
         id="stop321" />
    </linearGradient>
  </defs>
  <sodipodi:namedview
     inkscape:window-maximized="1"
     inkscape:window-y="-8"
     inkscape:window-x="-8"
     inkscape:window-height="837"
     inkscape:window-width="1600"
     showgrid="false"
     inkscape:document-rotation="0"
     inkscape:current-layer="svg1166"
     inkscape:document-units="px"
     inkscape:cy="15.500047"
     inkscape:cx="10.499998"
     inkscape:zoom="19.516069"
     inkscape:pageshadow="2"
     inkscape:pageopacity="0.0"
     borderopacity="1.0"
     bordercolor="#666666"
     pagecolor="#ffffff"
     id="base"
     fit-margin-top="0"
     fit-margin-left="0"
     fit-margin-right="0"
     fit-margin-bottom="0" />
  <metadata
     id="metadata1163">
    <rdf:RDF>
      <cc:Work
         rdf:about="">
        <dc:format>image/svg+xml</dc:format>
        <dc:type
           rdf:resource="http://purl.org/dc/dcmitype/StillImage" />
        <dc:title>MyBB Vector Smiley - Huh? (for dark theme)</dc:title>
        <dc:date>2025-07-13</dc:date>
        <dc:creator>
          <cc:Agent>
            <dc:title>Paul Verbitsky</dc:title>
          </cc:Agent>
        </dc:creator>
        <dc:rights>
          <cc:Agent>
            <dc:title>Distributed under GNU Lesser General Public License v3.0</dc:title>
          </cc:Agent>
        </dc:rights>
        <cc:license
           rdf:resource="https://www.gnu.org/licenses/lgpl-3.0.html" />
      </cc:Work>
    </rdf:RDF>
  </metadata>
  <path
     d="M 5.4570305,5.42398 A 2.6789052,2.6789052 0 0 1 2.7781235,8.10289 2.6789052,2.6789052 0 0 1 0.0992185,5.42398 2.6789052,2.6789052 0 0 1 2.7781235,2.74507 2.6789052,2.6789052 0 0 1 5.4570305,5.42398 Z"
     style="fill:url(#linearGradient179);fill-opacity:1;stroke:#000000;stroke-width:0.198437;stroke-linecap:round;stroke-linejoin:round;stroke-miterlimit:4;stroke-dasharray:none;paint-order:normal"
     id="path177" />
  <path
     style="font-variation-settings:normal;vector-effect:none;fill:none;fill-opacity:1;stroke:#000000;stroke-width:0.264583;stroke-linecap:round;stroke-linejoin:round;stroke-miterlimit:4;stroke-dasharray:none;stroke-dashoffset:0;stroke-opacity:1;stop-color:#000000"
     d="M 1.9793555,4.38517 V 4.85443"
     id="path173"
     sodipodi:nodetypes="cc" />
  <path
     sodipodi:nodetypes="cc"
     id="path201"
     d="M 3.5768925,4.38517 V 4.85443"
     style="font-variation-settings:normal;vector-effect:none;fill:none;fill-opacity:1;stroke:#000000;stroke-width:0.264583;stroke-linecap:round;stroke-linejoin:round;stroke-miterlimit:4;stroke-dasharray:none;stroke-dashoffset:0;stroke-opacity:1;stop-color:#000000" />
  <path
     id="path277"
     style="font-style:normal;font-variant:normal;font-weight:bold;font-stretch:normal;font-size:3.13095px;line-height:125%;font-family:'Trebuchet MS';-inkscape-font-specification:'Trebuchet MS Bold';letter-spacing:0px;word-spacing:0px;fill:#ffffff;stroke:none;stroke-width:0.264583px;stroke-linecap:butt;stroke-linejoin:miter;stroke-opacity:1"
     d="m 1.3846805,1.60067 h -0.291998 q -0.0031,-0.0107 -0.02905,-0.078 -0.02446,-0.0673 -0.02446,-0.11772 0,-0.0963 0.02599,-0.18498 0.02752,-0.0887 0.0795,-0.16511 0.05198,-0.078 0.204857,-0.24766 0.154407,-0.1697 0.154407,-0.27977 0,-0.21403 -0.279767,-0.21403 -0.136062,0 -0.284354,0.13606 L 0.7823405,0.15441 Q 0.9795535,0 1.3005985,0 q 0.247663,0 0.412772,0.13759 0.166637,0.13759 0.166637,0.36538 0,0.15594 -0.06115,0.26448 -0.05962,0.10701 -0.212501,0.25225 -0.15135,0.14523 -0.197214,0.24155 -0.04586,0.0963 -0.04586,0.21097 0,0.0245 0.0214,0.12842 z m -0.129947,0.20791 q 0.103958,0 0.17581,0.0734 0.07338,0.0734 0.07338,0.17734 0,0.10396 -0.07338,0.17734 -0.07185,0.0734 -0.17581,0.0734 -0.103957,0 -0.177339,-0.0734 -0.07338,-0.0734 -0.07338,-0.17734 0,-0.10396 0.07338,-0.17734 0.07338,-0.0734 0.177339,-0.0734 z" />
  <path
     id="path280"
     style="font-style:normal;font-variant:normal;font-weight:bold;font-stretch:normal;font-size:3.13095px;line-height:125%;font-family:'Trebuchet MS';-inkscape-font-specification:'Trebuchet MS Bold';letter-spacing:0px;word-spacing:0px;fill:#ffffff;stroke:none;stroke-width:0.264583px;stroke-linecap:butt;stroke-linejoin:miter;stroke-opacity:1"
     d="m 4.2785785,1.60067 h -0.291998 q -0.0031,-0.0107 -0.02905,-0.078 -0.02446,-0.0673 -0.02446,-0.11772 0,-0.0963 0.02599,-0.18498 0.02752,-0.0887 0.0795,-0.16511 0.05198,-0.078 0.204857,-0.24766 0.154407,-0.1697 0.154407,-0.27977 0,-0.21403 -0.279767,-0.21403 -0.136062,0 -0.284354,0.13606 L 3.6762385,0.15441 Q 3.8734515,0 4.1944965,0 q 0.247663,0 0.412772,0.13759 0.166637,0.13759 0.166637,0.36538 0,0.15594 -0.06115,0.26448 -0.05962,0.10701 -0.212501,0.25225 -0.15135,0.14523 -0.197214,0.24155 -0.04586,0.0963 -0.04586,0.21097 0,0.0245 0.0214,0.12842 z m -0.129947,0.20791 q 0.103958,0 0.17581,0.0734 0.07338,0.0734 0.07338,0.17734 0,0.10396 -0.07338,0.17734 -0.07185,0.0734 -0.17581,0.0734 -0.103957,0 -0.177339,-0.0734 -0.07338,-0.0734 -0.07338,-0.17734 0,-0.10396 0.07338,-0.17734 0.07338,-0.0734 0.177339,-0.0734 z" />
  <path
     id="path283"
     style="font-style:normal;font-variant:normal;font-weight:bold;font-stretch:normal;font-size:3.13095px;line-height:125%;font-family:'Trebuchet MS';-inkscape-font-specification:'Trebuchet MS Bold';letter-spacing:0px;word-spacing:0px;fill:#ffffff;stroke:none;stroke-width:0.264583px;stroke-linecap:butt;stroke-linejoin:miter;stroke-opacity:1"
     d="m 2.8316255,1.60067 h -0.291998 q -0.0031,-0.0107 -0.02905,-0.078 -0.02446,-0.0673 -0.02446,-0.11772 0,-0.0963 0.02599,-0.18498 0.02752,-0.0887 0.0795,-0.16511 0.05198,-0.078 0.204857,-0.24766 0.154407,-0.1697 0.154407,-0.27977 0,-0.21403 -0.279767,-0.21403 -0.136062,0 -0.284354,0.13606 L 2.2292855,0.15441 Q 2.4264985,0 2.7475435,0 q 0.247663,0 0.412772,0.13759 0.166637,0.13759 0.166637,0.36538 0,0.15594 -0.06115,0.26448 -0.05962,0.10701 -0.212501,0.25225 -0.15135,0.14523 -0.197213,0.24155 -0.04586,0.0963 -0.04586,0.21097 0,0.0245 0.0214,0.12842 z m -0.129947,0.20791 q 0.103958,0 0.175811,0.0734 0.07338,0.0734 0.07338,0.17734 0,0.10396 -0.07338,0.17734 -0.07185,0.0734 -0.175811,0.0734 -0.103957,0 -0.177339,-0.0734 -0.07338,-0.0734 -0.07338,-0.17734 0,-0.10396 0.07338,-0.17734 0.07338,-0.0734 0.177339,-0.0734 z" />
  <path
     sodipodi:nodetypes="czc"
     id="path893-0-1"
     d="m 1.6101645,6.50204 c 0,0 0.37533,-0.29596 1.16796,-0.29596 0.79263,0 1.16796,0.29596 1.16796,0.29596"
     style="font-variation-settings:normal;vector-effect:none;fill:none;fill-opacity:1;stroke:#000000;stroke-width:0.198437;stroke-linecap:butt;stroke-linejoin:miter;stroke-miterlimit:4;stroke-dasharray:none;stroke-dashoffset:0;stroke-opacity:1;stop-color:#000000" />
</svg>
