<?xml version="1.0" encoding="UTF-8" standalone="no"?>
<svg
   xmlns:dc="http://purl.org/dc/elements/1.1/"
   xmlns:cc="http://creativecommons.org/ns#"
   xmlns:rdf="http://www.w3.org/1999/02/22-rdf-syntax-ns#"
   xmlns:svg="http://www.w3.org/2000/svg"
   xmlns="http://www.w3.org/2000/svg"
   xmlns:xlink="http://www.w3.org/1999/xlink"
   xmlns:sodipodi="http://sodipodi.sourceforge.net/DTD/sodipodi-0.dtd"
   xmlns:inkscape="http://www.inkscape.org/namespaces/inkscape"
   sodipodi:docname="lightbulb.svg"
   inkscape:version="1.0 (4035a4fb49, 2020-05-01)"
   id="svg1221"
   version="1.1"
   viewBox="0 0 5.5562472 5.5562568"
   height="5.5562568mm"
   width="5.5562472mm">
  <title
     id="title16">MyBB Vector Smiley - Lightbulb</title>
  <defs
     id="defs1215">
    <linearGradient
       inkscape:collect="always"
       xlink:href="#linearGradient81"
       id="linearGradient188"
       gradientUnits="userSpaceOnUse"
       gradientTransform="matrix(0.98780456,0,0,0.98780456,76.919399,-104.65343)"
       x1="-76.974281"
       y1="106.84025"
       x2="-73.138962"
       y2="110.67557" />
    <linearGradient
       inkscape:collect="always"
       id="linearGradient81">
      <stop
         style="stop-color:#fee03f;stop-opacity:1"
         offset="0"
         id="stop77" />
      <stop
         style="stop-color:#feb434;stop-opacity:1"
         offset="1"
         id="stop79" />
    </linearGradient>
  </defs>
  <sodipodi:namedview
     inkscape:window-maximized="1"
     inkscape:window-y="-8"
     inkscape:window-x="-8"
     inkscape:window-height="837"
     inkscape:window-width="1600"
     showgrid="false"
     inkscape:document-rotation="0"
     inkscape:current-layer="svg1221"
     inkscape:document-units="px"
     inkscape:cy="10.500013"
     inkscape:cx="10.499994"
     inkscape:zoom="28.809487"
     inkscape:pageshadow="2"
     inkscape:pageopacity="0.0"
     borderopacity="1.0"
     bordercolor="#666666"
     pagecolor="#ffffff"
     id="base"
     fit-margin-top="0"
     fit-margin-left="0"
     fit-margin-right="0"
     fit-margin-bottom="0" />
  <metadata
     id="metadata1218">
    <rdf:RDF>
      <cc:Work
         rdf:about="">
        <dc:format>image/svg+xml</dc:format>
        <dc:type
           rdf:resource="http://purl.org/dc/dcmitype/StillImage" />
        <dc:title>MyBB Vector Smiley - Lightbulb</dc:title>
        <dc:date>2025-07-13</dc:date>
        <dc:creator>
          <cc:Agent>
            <dc:title>Paul Verbitsky</dc:title>
          </cc:Agent>
        </dc:creator>
        <dc:rights>
          <cc:Agent>
            <dc:title>Distributed under GNU Lesser General Public License v3.0</dc:title>
          </cc:Agent>
        </dc:rights>
        <cc:license
           rdf:resource="https://www.gnu.org/licenses/lgpl-3.0.html" />
      </cc:Work>
    </rdf:RDF>
  </metadata>
  <path
     id="path186"
     style="fill:url(#linearGradient188);fill-opacity:1;stroke:#000000;stroke-width:0.198437;stroke-linecap:round;stroke-linejoin:round;stroke-miterlimit:4;stroke-dasharray:none;paint-order:normal"
     d="m 5.4570285,2.7781285 a 2.6789052,2.6789052 0 0 1 -2.67891,2.67891 2.6789052,2.6789052 0 0 1 -2.6789,-2.67891 2.6789052,2.6789052 0 0 1 2.6789,-2.67891 2.6789052,2.6789052 0 0 1 2.67891,2.67891 z" />
  <path
     sodipodi:nodetypes="cscsc"
     id="path80"
     d="m 2.9734485,4.1933685 c -0.0195,0.0504 -0.0675,0.10935 -0.12378,0.10935 h -0.0715 -0.0715 c -0.0563,0 -0.10425,-0.059 -0.12378,-0.10935"
     style="font-variation-settings:normal;vector-effect:none;fill:none;fill-opacity:1;stroke:#000000;stroke-width:0.198437;stroke-linecap:round;stroke-linejoin:round;stroke-miterlimit:4;stroke-dasharray:none;stroke-dashoffset:0;stroke-opacity:1;stop-color:#000000" />
  <path
     style="font-variation-settings:normal;vector-effect:none;fill:#fffaa7;fill-opacity:1;stroke:#000000;stroke-width:0.198437;stroke-linecap:round;stroke-linejoin:round;stroke-miterlimit:4;stroke-dasharray:none;stroke-dashoffset:0;stroke-opacity:1;stop-color:#000000"
     d="m 2.4435385,3.4483285 c -0.11672,0 -0.1645,-0.1019 -0.16524,-0.20494 -10e-4,-0.18491 -0.0731,-0.35345 -0.20072,-0.50412 -0.50072,-0.59099 -0.0644,-1.48573 0.70054,-1.48573 0.7649,0 1.20127,0.89474 0.70055,1.48573 -0.12766,0.15067 -0.19939,0.31921 -0.20072,0.50412 -7.4e-4,0.10304 -0.0485,0.20494 -0.16524,0.20494"
     id="path75"
     sodipodi:nodetypes="csscssc" />
  <path
     d="m 2.5977385,2.6823485 h 0.36077 v 0.94477 h -0.36077 z"
     style="fill:#000000;stroke:none;stroke-width:0.198437;stroke-linecap:round;stroke-linejoin:round"
     id="rect193" />
  <path
     sodipodi:nodetypes="sscccccccsscs"
     id="path76"
     d="m 2.9708585,4.1933685 c 0.11689,0 0.20648,-0.109 0.20648,-0.21371 v -0.32056 c 0,-0.0527 0.0343,-0.0301 0.0343,-0.0805 v -0.13028 h -0.43352 -0.43351 v 0.13028 c 0,0.0504 0.0343,0.0278 0.0343,0.0805 v 0.32056 c 0,0.10471 0.0896,0.21371 0.20648,0.21371 h 0.19274 z"
     style="font-variation-settings:normal;vector-effect:none;fill:#000000;fill-opacity:1;stroke:#000000;stroke-width:0.198437;stroke-linecap:round;stroke-linejoin:round;stroke-miterlimit:4;stroke-dasharray:none;stroke-dashoffset:0;stroke-opacity:1;stop-color:#000000" />
  <path
     id="path220"
     style="fill:#f9bd06;fill-opacity:1;stroke:none;stroke-width:0.198437;stroke-linecap:round;stroke-linejoin:round"
     d="m 2.9586285,2.6823485 h -0.36089 c 0,-0.0997 0.0808,-0.18044 0.18045,-0.18044 0.0997,0 0.18044,0.0808 0.18044,0.18044 z"
     sodipodi:nodetypes="ccsc" />
</svg>
