<?xml version="1.0" encoding="UTF-8"?>
<svg width="5.556247mm" height="5.556257mm" version="1.1" viewBox="0 0 5.556247 5.556257" xmlns="http://www.w3.org/2000/svg" xmlns:cc="http://creativecommons.org/ns#" xmlns:dc="http://purl.org/dc/elements/1.1/" xmlns:rdf="http://www.w3.org/1999/02/22-rdf-syntax-ns#" xmlns:xlink="http://www.w3.org/1999/xlink"><title>MyBB Vector Smiley - Lightbulb</title><defs><linearGradient id="linearGradient188" x1="-76.97428" x2="-73.13896" y1="106.8402" y2="110.6756" gradientTransform="matrix(.9878046 0 0 .9878046 76.9194 -104.6534)" gradientUnits="userSpaceOnUse"><stop stop-color="#fee03f" offset="0"/><stop stop-color="#feb434" offset="1"/></linearGradient></defs><metadata><rdf:RDF><cc:Work rdf:about=""><dc:format>image/svg+xml</dc:format><dc:type rdf:resource="http://purl.org/dc/dcmitype/StillImage"/><dc:title>MyBB Vector Smiley - Lightbulb</dc:title><dc:date>2025-07-13</dc:date><dc:creator><cc:Agent><dc:title>Paul Verbitsky</dc:title></cc:Agent></dc:creator><dc:rights><cc:Agent><dc:title>Distributed under GNU Lesser General Public License v3.0</dc:title></cc:Agent></dc:rights><cc:license rdf:resource="https://www.gnu.org/licenses/lgpl-3.0.html"/></cc:Work></rdf:RDF></metadata><g stroke="#000" stroke-linecap="round" stroke-linejoin="round" stroke-width=".198437"><path d="m5.457028 2.778128a2.678905 2.678905 0 0 1-2.67891 2.67891 2.678905 2.678905 0 0 1-2.6789-2.67891 2.678905 2.678905 0 0 1 2.6789-2.67891 2.678905 2.678905 0 0 1 2.67891 2.67891z" fill="url(#linearGradient188)" style="paint-order:normal"/><path d="m2.973448 4.193368c-0.0195 0.0504-0.0675 0.10935-0.12378 0.10935h-0.143c-0.0563 0-0.10425-0.059-0.12378-0.10935" fill="none" stop-color="#000000" style="font-variation-settings:normal"/><path d="m2.443538 3.448328c-0.11672 0-0.1645-0.1019-0.16524-0.20494-1e-3 -0.18491-0.0731-0.35345-0.20072-0.50412-0.50072-0.59099-0.0644-1.48573 0.70054-1.48573 0.7649 0 1.20127 0.89474 0.70055 1.48573-0.12766 0.15067-0.19939 0.31921-0.20072 0.50412-7.4e-4 0.10304-0.0485 0.20494-0.16524 0.20494" fill="#fffaa7" stop-color="#000000" style="font-variation-settings:normal"/></g><path d="m2.597738 2.682348h0.36077v0.94477h-0.36077z"/><path d="m2.970858 4.193368c0.11689 0 0.20648-0.109 0.20648-0.21371v-0.32056c0-0.0527 0.0343-0.0301 0.0343-0.0805v-0.13028h-0.86703v0.13028c0 0.0504 0.0343 0.0278 0.0343 0.0805v0.32056c0 0.10471 0.0896 0.21371 0.20648 0.21371h0.19274z" stop-color="#000000" stroke="#000" stroke-linecap="round" stroke-linejoin="round" stroke-width=".198437" style="font-variation-settings:normal"/><path d="m2.958628 2.682348h-0.36089c0-0.0997 0.0808-0.18044 0.18045-0.18044 0.0997 0 0.18044 0.0808 0.18044 0.18044z" fill="#f9bd06"/></svg>
