<?xml version="1.0" encoding="UTF-8"?>
<svg width="5.556247mm" height="5.556257mm" version="1.1" viewBox="0 0 5.556247 5.556257" xmlns="http://www.w3.org/2000/svg" xmlns:cc="http://creativecommons.org/ns#" xmlns:dc="http://purl.org/dc/elements/1.1/" xmlns:rdf="http://www.w3.org/1999/02/22-rdf-syntax-ns#" xmlns:xlink="http://www.w3.org/1999/xlink"><title>MyBB Vector Smiley - My</title><defs><linearGradient id="linearGradient163" x1="-76.97428" x2="-73.13896" y1="106.8402" y2="110.6756" gradientTransform="matrix(.9878046 0 0 .9878046 76.9194 -104.6534)" gradientUnits="userSpaceOnUse"><stop stop-color="#fee03f" offset="0"/><stop stop-color="#feb434" offset="1"/></linearGradient></defs><metadata><rdf:RDF><cc:Work rdf:about=""><dc:format>image/svg+xml</dc:format><dc:type rdf:resource="http://purl.org/dc/dcmitype/StillImage"/><dc:title>MyBB Vector Smiley - My</dc:title><dc:date>2025-07-13</dc:date><dc:creator><cc:Agent><dc:title>Paul Verbitsky</dc:title></cc:Agent></dc:creator><dc:rights><cc:Agent><dc:title>Distributed under GNU Lesser General Public License v3.0</dc:title></cc:Agent></dc:rights><cc:license rdf:resource="https://www.gnu.org/licenses/lgpl-3.0.html"/></cc:Work></rdf:RDF></metadata><path d="m5.457028 2.778128a2.678905 2.678905 0 0 1-2.67891 2.67891 2.678905 2.678905 0 0 1-2.6789-2.67891 2.678905 2.678905 0 0 1 2.6789-2.67891 2.678905 2.678905 0 0 1 2.67891 2.67891z" fill="url(#linearGradient163)" stroke="#000" stroke-linecap="round" stroke-linejoin="round" stroke-width=".198437" style="paint-order:normal"/><path d="m2.912608 3.627708h-0.37799v-1.01665q0-0.16471 0.0142-0.36377h-0.01q-0.0296 0.15641-0.0533 0.22513l-0.39812 1.15529h-0.31282l-0.40524-1.14344q-0.0166-0.0462-0.0533-0.23698h-0.0107q0.0154 0.2512 0.0154 0.44079v0.93963h-0.3448v-1.69916h0.56046l0.34717 1.00717q0.0415 0.12086 0.0604 0.24291h7e-3q0.032-0.14101 0.0675-0.24528l0.34718-1.0048h0.54624z"/><path d="m4.579768 1.928548-0.55335 1.09485v0.60431h-0.38273v-0.5972l-0.53913-1.10196h0.43723l0.27372 0.63392q7e-3 0.0178 0.0391 0.13864h5e-3q0.0154-0.0853 0.0367-0.1339l0.27845-0.63866z"/></svg>
