<?xml version="1.0" encoding="UTF-8"?>
<svg width="21" height="21.00004" version="1.1" viewBox="0 0 5.55625 5.55626" xmlns="http://www.w3.org/2000/svg" xmlns:xlink="http://www.w3.org/1999/xlink"><defs><linearGradient id="linearGradient163" x1="-76.97428" x2="-73.13896" y1="106.8402" y2="110.6756" gradientTransform="matrix(1.02439 0 0 1.02439 79.66541 -108.6324)" gradientUnits="userSpaceOnUse"><stop stop-color="#ffd74c" offset="0"/><stop stop-color="#feb83e" offset="1"/></linearGradient></defs><g><path d="m5.55625 2.77813a2.778125 2.778125 0 0 1-2.77813 2.77813 2.778125 2.778125 0 0 1-2.77812-2.77813 2.778125 2.778125 0 0 1 2.77812-2.77813 2.778125 2.778125 0 0 1 2.77813 2.77813z" fill="url(#linearGradient163)" style="paint-order:normal"/><path d="m2.91791 3.65917h-0.39199v-1.0543q0-0.17081 0.0147-0.37724h-0.0104q-0.0307 0.1622-0.0553 0.23347l-0.41286 1.19807h-0.32441l-0.42025-1.18579q-0.0172-0.0479-0.0553-0.24575h-0.0111q0.016 0.2605 0.016 0.45711v0.97443h-0.35757v-1.76209h0.58122l0.36003 1.04448q0.043 0.12533 0.0626 0.2519h7e-3q0.0332-0.14623 0.07-0.25436l0.36003-1.04202h0.56648z" fill="#433410"/><path d="m4.64682 1.89708-0.57384 1.1354v0.62669h-0.39691v-0.61931l-0.5591-1.14278h0.45343l0.28385 0.6574q7e-3 0.0185 0.0405 0.14378h5e-3q0.016-0.0885 0.0381-0.13886l0.28876-0.66232z" fill="#433410"/></g></svg>
