<?xml version="1.0" encoding="UTF-8"?>
<svg width="21" height="21.00004" version="1.1" viewBox="0 0 5.55625 5.55626" xmlns="http://www.w3.org/2000/svg" xmlns:xlink="http://www.w3.org/1999/xlink"><defs><linearGradient id="linearGradient55" x1="-76.97428" x2="-73.13896" y1="106.8402" y2="110.6756" gradientTransform="matrix(1.02439 0 0 1.02439 79.66541 -108.6324)" gradientUnits="userSpaceOnUse"><stop stop-color="#ffd74c" offset="0"/><stop stop-color="#feb83e" offset="1"/></linearGradient></defs><path d="m5.55625 2.77813a2.778125 2.778125 0 0 1-2.77812 2.77813 2.778125 2.778125 0 0 1-2.77813-2.77813 2.778125 2.778125 0 0 1 2.77813-2.77813 2.778125 2.778125 0 0 1 2.77812 2.77813z" fill="url(#linearGradient55)" style="paint-order:normal"/><path d="m1.63047 3.22567s0.23204 0.75895 1.14766 0.75895 1.14765-0.75895 1.14765-0.75895" fill="none" stop-color="#000000" stroke="#433410" stroke-width=".205787" style="font-variation-settings:normal"/><path d="m2.77813 1.80655a0.7062214 0.7062214 0 0 1-0.70622 0.70622 0.7062214 0.7062214 0 0 1-0.70622-0.70622 0.7062214 0.7062214 0 0 1 0.70622-0.70622 0.7062214 0.7062214 0 0 1 0.70622 0.70622z" fill="#fff" stroke="#433410" stroke-width=".205787"/><path d="m2.41637 1.4448a0.3444647 0.3444647 0 0 1-0.34446 0.34446 0.3444647 0.3444647 0 0 1-0.34446-0.34446 0.3444647 0.3444647 0 0 1 0.34446-0.34447 0.3444647 0.3444647 0 0 1 0.34446 0.34447z" fill="#433410"/><path d="m4.19057 1.80655a0.7062214 0.7062214 0 0 1-0.70622 0.70622 0.7062214 0.7062214 0 0 1-0.70622-0.70622 0.7062214 0.7062214 0 0 1 0.70622-0.70622 0.7062214 0.7062214 0 0 1 0.70622 0.70622z" fill="#fff" stroke="#433410" stroke-width=".205787"/><path d="m3.82882 1.4448a0.3444647 0.3444647 0 0 1-0.34447 0.34446 0.3444647 0.3444647 0 0 1-0.34447-0.34446 0.3444647 0.3444647 0 0 1 0.34447-0.34447 0.3444647 0.3444647 0 0 1 0.34447 0.34447z" fill="#433410"/></svg>
