<?xml version="1.0" encoding="UTF-8"?>
<svg width="5.556247mm" height="5.556257mm" version="1.1" viewBox="0 0 5.556247 5.556257" xmlns="http://www.w3.org/2000/svg" xmlns:cc="http://creativecommons.org/ns#" xmlns:dc="http://purl.org/dc/elements/1.1/" xmlns:rdf="http://www.w3.org/1999/02/22-rdf-syntax-ns#" xmlns:xlink="http://www.w3.org/1999/xlink"><title>MyBB Vector Smiley - Sad</title><defs><linearGradient id="linearGradient218" x1="-76.97428" x2="-73.13896" y1="106.8402" y2="110.6756" gradientTransform="matrix(.9878046 0 0 .9878046 76.9194 -104.6534)" gradientUnits="userSpaceOnUse"><stop stop-color="#fee03f" offset="0"/><stop stop-color="#feb434" offset="1"/></linearGradient></defs><metadata><rdf:RDF><cc:Work rdf:about=""><dc:format>image/svg+xml</dc:format><dc:type rdf:resource="http://purl.org/dc/dcmitype/StillImage"/><dc:title>MyBB Vector Smiley - Sad</dc:title><dc:date>2025-07-13</dc:date><dc:creator><cc:Agent><dc:title>Paul Verbitsky</dc:title></cc:Agent></dc:creator><dc:rights><cc:Agent><dc:title>Distributed under GNU Lesser General Public License v3.0</dc:title></cc:Agent></dc:rights><cc:license rdf:resource="https://www.gnu.org/licenses/lgpl-3.0.html"/></cc:Work></rdf:RDF></metadata><path d="m5.457028 2.778128a2.678905 2.678905 0 0 1-2.67891 2.67891 2.678905 2.678905 0 0 1-2.6789-2.67891 2.678905 2.678905 0 0 1 2.6789-2.67891 2.678905 2.678905 0 0 1 2.67891 2.67891z" fill="url(#linearGradient218)" stroke="#000" stroke-linecap="round" stroke-linejoin="round" stroke-width=".198437" style="paint-order:normal"/><g fill="none" stroke="#000"><g stroke-linecap="round" stroke-linejoin="round"><path d="m1.977078 1.711748v0.50557" stop-color="#000000" stroke-width=".264583" style="font-variation-settings:normal"/><path d="m3.579168 1.711748v0.50557" stop-color="#000000" stroke-width=".264583" style="font-variation-settings:normal"/><path d="m1.412348 1.461668 0.34895-0.31679" stop-color="#000000" stroke-width=".198437" style="font-variation-settings:normal"/><path d="m4.143888 1.461668-0.34894-0.31679" stop-color="#000000" stroke-width=".198437" style="font-variation-settings:normal"/></g><path d="m1.610164 3.856188s0.37533-0.29596 1.16796-0.29596 1.16796 0.29596 1.16796 0.29596" stop-color="#000000" stroke-width=".198437" style="font-variation-settings:normal"/></g></svg>
