<?xml version="1.0" encoding="UTF-8"?>
<svg width="21" height="21.00004" version="1.1" viewBox="0 0 5.55625 5.55626" xmlns="http://www.w3.org/2000/svg" xmlns:cc="http://creativecommons.org/ns#" xmlns:dc="http://purl.org/dc/elements/1.1/" xmlns:rdf="http://www.w3.org/1999/02/22-rdf-syntax-ns#" xmlns:xlink="http://www.w3.org/1999/xlink"><title>MyBB Vector Smiley - Sad</title><defs><linearGradient id="linearGradient218" x1="-76.97428" x2="-73.13896" y1="106.8402" y2="110.6756" gradientTransform="matrix(1.02439 0 0 1.02439 79.66541 -108.6324)" gradientUnits="userSpaceOnUse"><stop stop-color="#fee03f" offset="0"/><stop stop-color="#feb434" offset="1"/></linearGradient></defs><metadata><rdf:RDF><cc:Work rdf:about=""><dc:format>image/svg+xml</dc:format><dc:type rdf:resource="http://purl.org/dc/dcmitype/StillImage"/><dc:title>MyBB Vector Smiley - Sad</dc:title><dc:date>2025-07-13</dc:date><dc:creator><cc:Agent><dc:title>Paul Verbitsky</dc:title></cc:Agent></dc:creator><dc:rights><cc:Agent><dc:title>Distributed under GNU Lesser General Public License v3.0</dc:title></cc:Agent></dc:rights><cc:license rdf:resource="https://www.gnu.org/licenses/lgpl-3.0.html"/></cc:Work></rdf:RDF></metadata><path d="M 5.55625,2.77813 A 2.7781253,2.7781253 0 0 1 2.778119,5.55626 2.7781253,2.7781253 0 0 1 0,2.77813 2.7781253,2.7781253 0 0 1 2.778119,0 2.7781253,2.7781253 0 0 1 5.55625,2.77813 Z" fill="url(#linearGradient218)" style="paint-order:normal"/><g fill="none" stroke="#433410"><g stroke-linecap="round" stroke-linejoin="round"><path d="m1.947411 1.67225v0.5243" stop-color="#000000" stroke-width=".274382" style="font-variation-settings:normal"/><path d="m3.608838 1.67225v0.5243" stop-color="#000000" stroke-width=".274382" style="font-variation-settings:normal"/><path d="m1.361765 1.41291 0.361874-0.32852" stop-color="#000000" stroke-width=".205787" style="font-variation-settings:normal"/><path d="m4.194474 1.41291-0.361864-0.32852" stop-color="#000000" stroke-width=".205787" style="font-variation-settings:normal"/></g><path d="m1.633229 3.99038s0.0865-0.46111 1.14489-0.46111c1.05844 0 1.1449 0.46111 1.1449 0.46111" stop-color="#000000" stroke-width=".205786" style="font-variation-settings:normal"/></g></svg>
