<?xml version="1.0" encoding="UTF-8" standalone="no"?>
<svg
   xmlns:dc="http://purl.org/dc/elements/1.1/"
   xmlns:cc="http://creativecommons.org/ns#"
   xmlns:rdf="http://www.w3.org/1999/02/22-rdf-syntax-ns#"
   xmlns:svg="http://www.w3.org/2000/svg"
   xmlns="http://www.w3.org/2000/svg"
   xmlns:xlink="http://www.w3.org/1999/xlink"
   xmlns:sodipodi="http://sodipodi.sourceforge.net/DTD/sodipodi-0.dtd"
   xmlns:inkscape="http://www.inkscape.org/namespaces/inkscape"
   sodipodi:docname="sick.svg"
   inkscape:version="1.0 (4035a4fb49, 2020-05-01)"
   id="svg532"
   version="1.1"
   viewBox="0 0 5.5562472 5.5562573"
   height="5.5562572mm"
   width="5.5562472mm">
  <title
     id="title17">MyBB Vector Smiley - Sick</title>
  <defs
     id="defs526">
    <linearGradient
       y2="105.42249"
       x2="-75.056625"
       y1="113.19653"
       x1="-75.056625"
       gradientTransform="matrix(0.98780458,0,0,0.98780458,76.9194,-104.65343)"
       gradientUnits="userSpaceOnUse"
       id="linearGradient141-6"
       xlink:href="#linearGradient101"
       inkscape:collect="always" />
    <linearGradient
       id="linearGradient101"
       inkscape:collect="always">
      <stop
         id="stop97"
         offset="0"
         style="stop-color:#92c625;stop-opacity:1" />
      <stop
         id="stop99"
         offset="1"
         style="stop-color:#509528;stop-opacity:1" />
    </linearGradient>
  </defs>
  <sodipodi:namedview
     inkscape:window-maximized="1"
     inkscape:window-y="-8"
     inkscape:window-x="-8"
     inkscape:window-height="837"
     inkscape:window-width="1600"
     showgrid="false"
     inkscape:document-rotation="0"
     inkscape:current-layer="svg532"
     inkscape:document-units="px"
     inkscape:cy="10.500014"
     inkscape:cx="10.499995"
     inkscape:zoom="28.809486"
     inkscape:pageshadow="2"
     inkscape:pageopacity="0.0"
     borderopacity="1.0"
     bordercolor="#666666"
     pagecolor="#ffffff"
     id="base"
     fit-margin-top="0"
     fit-margin-left="0"
     fit-margin-right="0"
     fit-margin-bottom="0" />
  <metadata
     id="metadata529">
    <rdf:RDF>
      <cc:Work
         rdf:about="">
        <dc:format>image/svg+xml</dc:format>
        <dc:type
           rdf:resource="http://purl.org/dc/dcmitype/StillImage" />
        <dc:title>MyBB Vector Smiley - Sick</dc:title>
        <dc:date>2025-07-13</dc:date>
        <dc:creator>
          <cc:Agent>
            <dc:title>Paul Verbitsky</dc:title>
          </cc:Agent>
        </dc:creator>
        <dc:rights>
          <cc:Agent>
            <dc:title>Distributed under GNU Lesser General Public License v3.0</dc:title>
          </cc:Agent>
        </dc:rights>
        <cc:license
           rdf:resource="https://www.gnu.org/licenses/lgpl-3.0.html" />
      </cc:Work>
    </rdf:RDF>
  </metadata>
  <path
     id="path129-7"
     style="fill:url(#linearGradient141-6);fill-opacity:1;stroke:#000000;stroke-width:0.198437;stroke-linecap:round;stroke-linejoin:round;stroke-miterlimit:4;stroke-dasharray:none;paint-order:normal"
     d="m 5.4570285,2.7781285 a 2.6789053,2.6789053 0 0 1 -2.67891,2.67891 2.6789053,2.6789053 0 0 1 -2.6789,-2.67891 2.6789053,2.6789053 0 0 1 2.6789,-2.67891 2.6789053,2.6789053 0 0 1 2.67891,2.67891 z" />
  <path
     style="font-variation-settings:normal;vector-effect:none;fill:none;fill-opacity:1;stroke:#000000;stroke-width:0.198437;stroke-linecap:butt;stroke-linejoin:miter;stroke-miterlimit:4;stroke-dasharray:none;stroke-dashoffset:0;stroke-opacity:1;stop-color:#000000"
     d="m 1.9249585,3.2210485 c 0,0 0.13752,0.59945 0.85317,0.59945 0.71564,0 0.85316,-0.59945 0.85316,-0.59945"
     id="path143-2"
     sodipodi:nodetypes="czc" />
  <path
     sodipodi:nodetypes="czc"
     id="path145-5"
     d="m 1.9249585,4.4199585 c 0,0 0.13752,-0.59946 0.85317,-0.59946 0.71564,0 0.85316,0.59946 0.85316,0.59946"
     style="font-variation-settings:normal;vector-effect:none;fill:none;fill-opacity:1;stroke:#000000;stroke-width:0.198437;stroke-linecap:butt;stroke-linejoin:miter;stroke-miterlimit:4;stroke-dasharray:none;stroke-dashoffset:0;stroke-opacity:1;stop-color:#000000" />
  <path
     id="path151-7"
     style="fill:#ffffff;stroke:#000000;stroke-width:0.198437"
     d="m 2.7781185,2.1026285 a 0.68099888,0.68099888 0 0 1 -0.68099,0.681 0.68099888,0.68099888 0 0 1 -0.681,-0.681 0.68099888,0.68099888 0 0 1 0.681,-0.681 0.68099888,0.68099888 0 0 1 0.68099,0.681 z" />
  <path
     id="path153-3"
     style="fill:#000000;stroke:none;stroke-width:0.198437"
     d="m 2.7323585,2.3480685 a 0.33216223,0.33216223 0 0 1 -0.33217,0.33216 0.33216223,0.33216223 0 0 1 -0.33216,-0.33216 0.33216223,0.33216223 0 0 1 0.33216,-0.33217 0.33216223,0.33216223 0 0 1 0.33217,0.33217 z" />
  <path
     d="m 2.7781185,2.1026285 a 0.68099888,0.68099888 0 0 0 0.681,0.681 0.68099888,0.68099888 0 0 0 0.681,-0.681 0.68099888,0.68099888 0 0 0 -0.681,-0.681 0.68099888,0.68099888 0 0 0 -0.681,0.681 z"
     style="fill:#ffffff;stroke:#000000;stroke-width:0.198437"
     id="path155-8" />
  <path
     d="m 2.8238885,2.3480685 a 0.33216223,0.33216223 0 0 0 0.33217,0.33216 0.33216223,0.33216223 0 0 0 0.33216,-0.33216 0.33216223,0.33216223 0 0 0 -0.33216,-0.33217 0.33216223,0.33216223 0 0 0 -0.33217,0.33217 z"
     style="fill:#000000;stroke:none;stroke-width:0.198437"
     id="path157-4" />
</svg>
