<?xml version="1.0" encoding="UTF-8"?>
<svg width="21" height="21.00004" version="1.1" viewBox="0 0 5.55625 5.55626" xmlns="http://www.w3.org/2000/svg" xmlns:xlink="http://www.w3.org/1999/xlink"><defs><linearGradient id="linearGradient141-6" x1="-75.05662" x2="-75.05662" y1="114.2355" y2="105.4225" gradientTransform="matrix(1.02439 0 0 1.02439 79.66541 -108.6324)" gradientUnits="userSpaceOnUse"><stop stop-color="#8fc124" offset="0"/><stop stop-color="#509528" offset="1"/></linearGradient></defs><path d="m5.55625 2.77813a2.778125 2.778125 0 0 1-2.77813 2.77813 2.778125 2.778125 0 0 1-2.77812-2.77813 2.778125 2.778125 0 0 1 2.77812-2.77813 2.778125 2.778125 0 0 1 2.77813 2.77813z" fill="url(#linearGradient141-6)" style="paint-order:normal"/><g stroke="#1c340e" stroke-width=".205787"><path d="m1.89336 3.23745s0.14262 0.62166 0.88477 0.62166 0.88476-0.62166 0.88476-0.62166" fill="none" stop-color="#000000" style="font-variation-settings:normal"/><path d="m1.89336 4.48077s0.14262-0.62166 0.88477-0.62166 0.88476 0.62166 0.88476 0.62166" fill="none" stop-color="#000000" style="font-variation-settings:normal"/><path d="m2.77812 2.08951a0.7062214 0.7062214 0 0 1-0.70621 0.70622 0.7062214 0.7062214 0 0 1-0.70622-0.70622 0.7062214 0.7062214 0 0 1 0.70622-0.70622 0.7062214 0.7062214 0 0 1 0.70621 0.70622z" fill="#fff"/><path d="m2.77812 2.08951a0.7062214 0.7062214 0 0 0 0.70622 0.70622 0.7062214 0.7062214 0 0 0 0.70623-0.70622 0.7062214 0.7062214 0 0 0-0.70623-0.70622 0.7062214 0.7062214 0 0 0-0.70622 0.70622z" fill="#fff"/></g><path d="m2.98497 2.10173a0.3444647 0.3444647 0 0 0 0 0.48715 0.3444647 0.3444647 0 0 0 0.48715 0 0.3444647 0.3444647 0 0 0 0-0.48715 0.3444647 0.3444647 0 0 0-0.48715 0z" fill="#1c340e"/><path d="m2.57127 2.58888a0.3444647 0.3444647 0 0 1-0.48715-3e-5 0.3444647 0.3444647 0 0 1 0-0.48714 0.3444647 0.3444647 0 0 1 0.48715-1e-5 0.3444647 0.3444647 0 0 1 0 0.48718z" fill="#1c340e"/></svg>
