<?xml version="1.0" encoding="UTF-8"?>
<svg width="5.556247mm" height="5.556257mm" version="1.1" viewBox="0 0 5.556247 5.556257" xmlns="http://www.w3.org/2000/svg" xmlns:cc="http://creativecommons.org/ns#" xmlns:dc="http://purl.org/dc/elements/1.1/" xmlns:rdf="http://www.w3.org/1999/02/22-rdf-syntax-ns#" xmlns:xlink="http://www.w3.org/1999/xlink"><title>MyBB Vector Smiley - Sick</title><defs><linearGradient id="linearGradient141-6" x1="-75.05662" x2="-75.05662" y1="113.1965" y2="105.4225" gradientTransform="matrix(.9878046 0 0 .9878046 76.9194 -104.6534)" gradientUnits="userSpaceOnUse"><stop stop-color="#92c625" offset="0"/><stop stop-color="#509528" offset="1"/></linearGradient></defs><metadata><rdf:RDF><cc:Work rdf:about=""><dc:format>image/svg+xml</dc:format><dc:type rdf:resource="http://purl.org/dc/dcmitype/StillImage"/><dc:title>MyBB Vector Smiley - Sick</dc:title><dc:date>2025-07-13</dc:date><dc:creator><cc:Agent><dc:title>Paul Verbitsky</dc:title></cc:Agent></dc:creator><dc:rights><cc:Agent><dc:title>Distributed under GNU Lesser General Public License v3.0</dc:title></cc:Agent></dc:rights><cc:license rdf:resource="https://www.gnu.org/licenses/lgpl-3.0.html"/></cc:Work></rdf:RDF></metadata><g stroke="#000" stroke-width=".198437"><g><path d="m5.457028 2.778128a2.678905 2.678905 0 0 1-2.67891 2.67891 2.678905 2.678905 0 0 1-2.6789-2.67891 2.678905 2.678905 0 0 1 2.6789-2.67891 2.678905 2.678905 0 0 1 2.67891 2.67891z" fill="url(#linearGradient141-6)" stroke-linecap="round" stroke-linejoin="round" style="paint-order:normal"/><path d="m1.924958 3.221048s0.13752 0.59945 0.85317 0.59945c0.71564 0 0.85316-0.59945 0.85316-0.59945" fill="none" stop-color="#000000" style="font-variation-settings:normal"/><path d="m1.924958 4.419958s0.13752-0.59946 0.85317-0.59946c0.71564 0 0.85316 0.59946 0.85316 0.59946" fill="none" stop-color="#000000" style="font-variation-settings:normal"/></g><path d="m2.778118 2.102628a0.6809989 0.6809989 0 0 1-0.68099 0.681 0.6809989 0.6809989 0 0 1-0.681-0.681 0.6809989 0.6809989 0 0 1 0.681-0.681 0.6809989 0.6809989 0 0 1 0.68099 0.681z" fill="#fff"/></g><path d="m2.732358 2.348068a0.3321622 0.3321622 0 0 1-0.33217 0.33216 0.3321622 0.3321622 0 0 1-0.33216-0.33216 0.3321622 0.3321622 0 0 1 0.33216-0.33217 0.3321622 0.3321622 0 0 1 0.33217 0.33217z"/><path d="m2.778118 2.102628a0.6809989 0.6809989 0 0 0 0.681 0.681 0.6809989 0.6809989 0 0 0 0.681-0.681 0.6809989 0.6809989 0 0 0-0.681-0.681 0.6809989 0.6809989 0 0 0-0.681 0.681z" fill="#fff" stroke="#000" stroke-width=".198437"/><path d="m2.823888 2.348068a0.3321622 0.3321622 0 0 0 0.33217 0.33216 0.3321622 0.3321622 0 0 0 0.33216-0.33216 0.3321622 0.3321622 0 0 0-0.33216-0.33217 0.3321622 0.3321622 0 0 0-0.33217 0.33217z"/></svg>
