<?xml version="1.0" encoding="UTF-8"?>
<svg width="21" height="21.00004" version="1.1" viewBox="0 0 5.55625 5.55626" xmlns="http://www.w3.org/2000/svg" xmlns:cc="http://creativecommons.org/ns#" xmlns:dc="http://purl.org/dc/elements/1.1/" xmlns:rdf="http://www.w3.org/1999/02/22-rdf-syntax-ns#" xmlns:xlink="http://www.w3.org/1999/xlink"><title>MyBB Vector Smiley - Sleepy</title><defs><linearGradient id="linearGradient227" x1="-76.97428" x2="-73.13896" y1="106.8402" y2="110.6756" gradientTransform="matrix(1.02439 0 0 1.02439 79.66542 -108.6324)" gradientUnits="userSpaceOnUse"><stop stop-color="#fee03f" offset="0"/><stop stop-color="#feb434" offset="1"/></linearGradient></defs><metadata><rdf:RDF><cc:Work rdf:about=""><dc:format>image/svg+xml</dc:format><dc:type rdf:resource="http://purl.org/dc/dcmitype/StillImage"/><dc:title>MyBB Vector Smiley - Sleepy</dc:title><dc:date>2025-07-13</dc:date><dc:creator><cc:Agent><dc:title>Paul Verbitsky</dc:title></cc:Agent></dc:creator><dc:rights><cc:Agent><dc:title>Distributed under GNU Lesser General Public License v3.0</dc:title></cc:Agent></dc:rights><cc:license rdf:resource="https://www.gnu.org/licenses/lgpl-3.0.html"/></cc:Work></rdf:RDF></metadata><path d="m5.55625 2.77813a2.778125 2.778125 0 0 1-2.77812 2.77813 2.778125 2.778125 0 0 1-2.77813-2.77813 2.778125 2.778125 0 0 1 2.77813-2.77813 2.778125 2.778125 0 0 1 2.77812 2.77813z" fill="url(#linearGradient227)" style="paint-order:normal"/><g fill="none" stroke="#433410" stroke-width=".205787"><path d="m3.29781 1.56268c0 0.22005 0.201652 0.39843 0.450406 0.39843 0.248744 0 0.450396-0.17838 0.450396-0.39843" stroke-linecap="round" stroke-linejoin="round"/><path d="m1.357637 1.56268c0 0.22005 0.201652 0.39843 0.450406 0.39843 0.248744 0 0.450396-0.17838 0.450396-0.39843" stroke-linecap="round" stroke-linejoin="round"/><path d="m2.689227 3.58629c0.766385 0.0343 1.017048-0.0699 1.017048-0.50939" stop-color="#000000" style="font-variation-settings:normal"/></g></svg>
