<?xml version="1.0" encoding="UTF-8"?>
<svg width="21" height="21.00004" version="1.1" viewBox="0 0 5.55625 5.55626" xmlns="http://www.w3.org/2000/svg" xmlns:xlink="http://www.w3.org/1999/xlink"><defs><linearGradient id="linearGradient227" x1="-76.97428" x2="-73.13896" y1="106.8402" y2="110.6756" gradientTransform="matrix(1.02439 0 0 1.02439 79.66542 -108.6324)" gradientUnits="userSpaceOnUse"><stop stop-color="#ffd74c" offset="0"/><stop stop-color="#feb83e" offset="1"/></linearGradient></defs><path d="m5.55625 2.77813a2.778125 2.778125 0 0 1-2.77812 2.77813 2.778125 2.778125 0 0 1-2.77813-2.77813 2.778125 2.778125 0 0 1 2.77813-2.77813 2.778125 2.778125 0 0 1 2.77812 2.77813z" fill="url(#linearGradient227)" style="paint-order:normal"/><g fill="none" stroke="#433410" stroke-width=".205787"><path d="m3.29781 1.56268c0 0.22005 0.201652 0.39843 0.450406 0.39843 0.248744 0 0.450396-0.17838 0.450396-0.39843" stroke-linecap="round" stroke-linejoin="round"/><path d="m1.357637 1.56268c0 0.22005 0.201652 0.39843 0.450406 0.39843 0.248744 0 0.450396-0.17838 0.450396-0.39843" stroke-linecap="round" stroke-linejoin="round"/><path d="m2.689227 3.58629c0.766385 0.0343 1.017048-0.0699 1.017048-0.50939" stop-color="#000000" style="font-variation-settings:normal"/></g></svg>
