<?xml version="1.0" encoding="UTF-8"?>
<svg width="21" height="21.00004" version="1.1" viewBox="0 0 5.556249 5.55626" xmlns="http://www.w3.org/2000/svg" xmlns:xlink="http://www.w3.org/1999/xlink"><defs><linearGradient id="linearGradient334" x1="-76.97428" x2="-73.13896" y1="106.8402" y2="110.6756" gradientTransform="matrix(1.02439 0 0 1.02439 79.66541 -108.6324)" gradientUnits="userSpaceOnUse"><stop stop-color="#ffd74c" offset="0"/><stop stop-color="#feb83e" offset="1"/></linearGradient></defs><path d="m5.556249 2.77813a2.778125 2.778125 0 0 1-2.77813 2.77813 2.778125 2.778125 0 0 1-2.778119-2.77813 2.778125 2.778125 0 0 1 2.778119-2.77813 2.778125 2.778125 0 0 1 2.77813 2.77813z" fill="url(#linearGradient334)" style="paint-order:normal"/><g stroke="#433410"><path d="m1.947411 1.53112v0.5243" fill="none" stop-color="#000000" stroke-linecap="round" stroke-linejoin="round" stroke-width=".274382" style="font-variation-settings:normal"/><path d="m3.608838 1.53112v0.5243" fill="none" stop-color="#000000" stroke-linecap="round" stroke-linejoin="round" stroke-width=".274382" style="font-variation-settings:normal"/><path d="m4.289346 3.20572s-0.404912 1.06149-1.511222 1.06149c-1.106308 0-1.51122-1.06149-1.51122-1.06149s0.613809 0.2393 1.511222 0.2393c0.89741 0 1.51122-0.2393 1.51122-0.2393z" fill="#fff" stop-color="#000000" stroke-width=".205787" style="font-variation-settings:normal"/></g></svg>
