<?xml version="1.0" encoding="UTF-8"?>
<svg width="5.556247mm" height="5.556257mm" version="1.1" viewBox="0 0 5.556247 5.556257" xmlns="http://www.w3.org/2000/svg" xmlns:cc="http://creativecommons.org/ns#" xmlns:dc="http://purl.org/dc/elements/1.1/" xmlns:rdf="http://www.w3.org/1999/02/22-rdf-syntax-ns#" xmlns:xlink="http://www.w3.org/1999/xlink"><title>MyBB Vector Smiley - Tongue</title><defs><linearGradient id="linearGradient288" x1="-76.97428" x2="-73.13896" y1="106.8402" y2="110.6756" gradientTransform="matrix(.9878046 0 0 .9878046 76.91941 -104.6534)" gradientUnits="userSpaceOnUse"><stop stop-color="#fee03f" offset="0"/><stop stop-color="#feb434" offset="1"/></linearGradient></defs><metadata><rdf:RDF><cc:Work rdf:about=""><dc:format>image/svg+xml</dc:format><dc:type rdf:resource="http://purl.org/dc/dcmitype/StillImage"/><dc:title>MyBB Vector Smiley - Tongue</dc:title><dc:date>2025-07-13</dc:date><dc:creator><cc:Agent><dc:title>Paul Verbitsky</dc:title></cc:Agent></dc:creator><dc:rights><cc:Agent><dc:title>Distributed under GNU Lesser General Public License v3.0</dc:title></cc:Agent></dc:rights><cc:license rdf:resource="https://www.gnu.org/licenses/lgpl-3.0.html"/></cc:Work></rdf:RDF></metadata><g stroke="#000" stroke-width=".198437"><g stroke-linecap="round" stroke-linejoin="round"><path d="m5.457028 2.778128a2.678905 2.678905 0 0 1-2.6789 2.67891 2.678905 2.678905 0 0 1-2.67891-2.67891 2.678905 2.678905 0 0 1 2.67891-2.67891 2.678905 2.678905 0 0 1 2.6789 2.67891z" fill="url(#linearGradient288)" style="paint-order:normal"/><path d="m3.279248 1.805068c0-0.21219 0.19445-0.3842 0.43432-0.3842 0.23986 0 0.43431 0.17201 0.43431 0.3842" fill="none"/><path d="m1.408368 1.805068c0-0.21219 0.19445-0.3842 0.43432-0.3842 0.23986 0 0.43431 0.17201 0.43431 0.3842" fill="none"/><path d="m3.826488 2.939428 1e-7 0.59323c0 0.29227-0.23529 0.52756-0.5275562 0.52756-0.2922661 0-0.527556-0.23529-0.5275561-0.52756l-1e-7 -0.48594" fill="#e5595a"/></g><path d="m1.131942 2.721878s0.541565 0.31401 1.646181 0.31401 1.646181-0.31401 1.646181-0.31401" fill="none" stop-color="#000000" style="font-variation-settings:normal"/></g></svg>
