<?xml version="1.0" encoding="UTF-8"?>
<svg width="21" height="21.00004" version="1.1" viewBox="0 0 5.55625 5.55626" xmlns="http://www.w3.org/2000/svg" xmlns:xlink="http://www.w3.org/1999/xlink"><defs><linearGradient id="linearGradient332" x1="-76.97428" x2="-73.13896" y1="106.8402" y2="110.6756" gradientTransform="matrix(1.02439 0 0 1.02439 79.66541 -108.6324)" gradientUnits="userSpaceOnUse"><stop stop-color="#ffd74c" offset="0"/><stop stop-color="#feb83e" offset="1"/></linearGradient></defs><path d="m5.55625 2.77813a2.778125 2.778125 0 0 1-2.77813 2.77813 2.778125 2.778125 0 0 1-2.77812-2.77813 2.778125 2.778125 0 0 1 2.77812-2.77813 2.778125 2.778125 0 0 1 2.77813 2.77813z" fill="url(#linearGradient332)" style="paint-order:normal"/><g stroke="#433410"><path d="m4.289347 3.20572s-0.404912 1.06149-1.511222 1.06149c-1.106308 0-1.511221-1.06149-1.511221-1.06149s0.61381 0.2393 1.511222 0.2393c0.897411 0 1.511221-0.2393 1.511221-0.2393z" fill="#fff" stop-color="#000000" stroke-width=".205787" style="font-variation-settings:normal"/><path d="m3.748212 1.70289v0.32967" fill="none" stop-color="#000000" stroke-linecap="round" stroke-linejoin="round" stroke-width=".274382" style="font-variation-settings:normal"/><path d="m1.357638 1.66851c0 0.22005 0.201652 0.39843 0.450406 0.39843 0.248744 0 0.450396-0.17838 0.450396-0.39843" fill="none" stroke-linecap="round" stroke-linejoin="round" stroke-width=".205787"/></g></svg>
