<?xml version="1.0" encoding="UTF-8"?>
<svg width="5.556247mm" height="5.556257mm" version="1.1" viewBox="0 0 5.556247 5.556257" xmlns="http://www.w3.org/2000/svg" xmlns:cc="http://creativecommons.org/ns#" xmlns:dc="http://purl.org/dc/elements/1.1/" xmlns:rdf="http://www.w3.org/1999/02/22-rdf-syntax-ns#" xmlns:xlink="http://www.w3.org/1999/xlink"><title>MyBB Vector Smiley - Wink</title><defs><linearGradient id="linearGradient332" x1="-76.97428" x2="-73.13896" y1="106.8402" y2="110.6756" gradientTransform="matrix(.9878046 0 0 .9878046 76.9194 -104.6534)" gradientUnits="userSpaceOnUse"><stop stop-color="#fee03f" offset="0"/><stop stop-color="#feb434" offset="1"/></linearGradient></defs><metadata><rdf:RDF><cc:Work rdf:about=""><dc:format>image/svg+xml</dc:format><dc:type rdf:resource="http://purl.org/dc/dcmitype/StillImage"/><dc:title>MyBB Vector Smiley - Wink</dc:title><dc:date>2025-07-13</dc:date><dc:creator><cc:Agent><dc:title>Paul Verbitsky</dc:title></cc:Agent></dc:creator><dc:rights><cc:Agent><dc:title>Distributed under GNU Lesser General Public License v3.0</dc:title></cc:Agent></dc:rights><cc:license rdf:resource="https://www.gnu.org/licenses/lgpl-3.0.html"/></cc:Work></rdf:RDF></metadata><g stroke="#000"><g stroke-linecap="round" stroke-linejoin="round"><path d="m5.457028 2.778128a2.678905 2.678905 0 0 1-2.67891 2.67891 2.678905 2.678905 0 0 1-2.6789-2.67891 2.678905 2.678905 0 0 1 2.6789-2.67891 2.678905 2.678905 0 0 1 2.67891 2.67891z" fill="url(#linearGradient332)" stroke-width=".198437" style="paint-order:normal"/><path d="m3.713564 1.639238v0.3179" fill="none" stop-color="#000000" stroke-width=".264583" style="font-variation-settings:normal"/><path d="m1.408368 1.606088c0 0.21219 0.19445 0.3842 0.43432 0.3842 0.23986 0 0.43431-0.17201 0.43431-0.3842" fill="none" stroke-width=".198437"/></g><path d="m4.235372 3.088398s-0.390451 1.02358-1.457249 1.02358c-1.066797 0-1.457248-1.02358-1.457248-1.02358s0.591887 0.23075 1.457249 0.23075c0.86536 0 1.457248-0.23075 1.457248-0.23075z" fill="#fff" stop-color="#000000" stroke-width=".198437" style="font-variation-settings:normal"/></g></svg>
